<svg xmlns="http://www.w3.org/2000/svg" viewBox="0 0 65.18 47.75"><defs><style>.cls-1{fill:#aed7e8;}.cls-2{fill:#63afcd;}.cls-3{fill:#fff;}.cls-4{fill:#dbf1f5;}</style></defs><g id="Warstwa_2" data-name="Warstwa 2"><g id="Layer_1" data-name="Layer 1"><path class="cls-1" d="M10.36,7.15A8.23,8.23,0,1,0,8.23,23.33H20.12V0A10.52,10.52,0,0,0,10.36,7.15Z"/><path class="cls-2" d="M39.09,16.23A7.1,7.1,0,0,0,32,9.13a6.89,6.89,0,0,0-1.21.11A10.53,10.53,0,0,0,20.33,0h-.21V23.33H32A7.1,7.1,0,0,0,39.09,16.23Z"/><path class="cls-3" d="M19.67,22.13A13,13,0,1,0,16.3,47.75H35.13V10.81A16.66,16.66,0,0,0,19.67,22.13Z"/><path class="cls-4" d="M65.18,36.51A11.17,11.17,0,0,0,52,25.44,16.67,16.67,0,0,0,35.46,10.8h-.33V47.75H53.94A11.24,11.24,0,0,0,65.18,36.51Z"/></g></g></svg>