<svg xmlns="http://www.w3.org/2000/svg" viewBox="0 0 66.65 41.26"><defs><style>.cls-1{fill:#fff;}</style></defs><g id="Warstwa_2" data-name="Warstwa 2"><g id="Layer_1" data-name="Layer 1"><path class="cls-1" d="M29.72,24.25c-10.58,0-25,0-27.47-.05a2.26,2.26,0,0,1,0-4.51h0c14.76,0,37.19.08,38.49,0,.07,0,7-1.1,7.44-9.25a5.72,5.72,0,0,0-4.56-5.81,4.11,4.11,0,0,0-5,2.66A2.46,2.46,0,0,0,39,10.24a3.86,3.86,0,0,0,3,1.11,2.25,2.25,0,0,1,2.8,3.53c-2.1,1.75-5.74,1-8-.66a6.92,6.92,0,0,1-2.32-8.63A8.57,8.57,0,0,1,44.63.25,10.22,10.22,0,0,1,52.69,10.7C52.1,21.33,43.34,24.05,41,24.2,40.41,24.24,35.68,24.25,29.72,24.25Z"/><path class="cls-1" d="M59.13,36.42a9.3,9.3,0,0,1-1.47-.12c-3.59-.62-6.85-3.54-6-8.7a2.25,2.25,0,1,1,4.45.71c-.32,2,.47,3.22,2.34,3.54a3,3,0,0,0,3.63-2.35c.37-1.57-.18-3.7-2.93-4.54-2.26-.68-14.41-.8-21.53-.7h0a2.26,2.26,0,0,1,0-4.51c3.2,0,19.31-.19,22.9.9a8.25,8.25,0,0,1,6,9.88A7.34,7.34,0,0,1,59.13,36.42Z"/><path class="cls-1" d="M35.85,41.26a6,6,0,0,1-4.91-2.47,2.26,2.26,0,0,1,3.66-2.64,1.71,1.71,0,0,0,1.82.54A2.16,2.16,0,0,0,38.11,35a2.83,2.83,0,0,0-.29-2.16c-.35-.42-1.25-.94-3.58-1-1.87-.09-17.38,0-25.32,0h0a2.26,2.26,0,1,1,0-4.51c.94,0,23.1-.11,25.54,0,3.25.15,5.49,1,6.86,2.69a7,7,0,0,1,1.26,5.7,6.6,6.6,0,0,1-5.08,5.35A7,7,0,0,1,35.85,41.26Z"/></g></g></svg>