<svg xmlns="http://www.w3.org/2000/svg" viewBox="0 0 67.72 67.72"><defs><style>.cls-1{fill:#ffd300;}.cls-2{fill:#ffb400;}</style></defs><g id="Warstwa_2" data-name="Warstwa 2"><g id="Layer_1" data-name="Layer 1"><path class="cls-1" d="M13.52,34.08A20.34,20.34,0,0,0,33.86,54.42V13.73A20.34,20.34,0,0,0,13.52,34.08Z"/><path class="cls-1" d="M14.07,50.43,9.92,54.59a2.27,2.27,0,0,0,3.2,3.21l4.16-4.16a2.27,2.27,0,1,0-3.21-3.21Z"/><path class="cls-1" d="M10.42,33.86a2.27,2.27,0,0,0-2.27-2.27H2.27a2.27,2.27,0,1,0,0,4.54H8.15A2.27,2.27,0,0,0,10.42,33.86Z"/><path class="cls-1" d="M14.07,17.28a2.26,2.26,0,0,0,1.61.67,2.23,2.23,0,0,0,1.6-.67,2.26,2.26,0,0,0,0-3.21L13.12,9.92a2.27,2.27,0,1,0-3.2,3.21Z"/><path class="cls-2" d="M31.6,2.26V8.14a2.26,2.26,0,0,0,2.26,2.26V0a2.31,2.31,0,0,0-.46.05A2.25,2.25,0,0,0,31.6,2.26Z"/><path class="cls-2" d="M33.86,57.32a2.26,2.26,0,0,0-2.26,2.26v5.88a2.25,2.25,0,0,0,1,1.87,2.3,2.3,0,0,0,1.27.39Z"/><path class="cls-2" d="M54.2,34.08A20.35,20.35,0,0,0,33.86,13.73V54.42A20.34,20.34,0,0,0,54.2,34.08Z"/><path class="cls-2" d="M57.8,9.92a2.25,2.25,0,0,0-3.2,0l-4.16,4.15a2.26,2.26,0,0,0,3.2,3.2l4.16-4.16A2.26,2.26,0,0,0,57.8,9.92Z"/><path class="cls-2" d="M65.45,31.6H59.58a2.26,2.26,0,0,0,0,4.52h5.87a2.26,2.26,0,1,0,0-4.52Z"/><path class="cls-2" d="M53.64,50.45a2.26,2.26,0,0,0-3.2,3.19L54.6,57.8a2.26,2.26,0,1,0,3.2-3.2Z"/><path class="cls-2" d="M36.12,8.14V2.26A2.26,2.26,0,0,0,34.31.05a2.22,2.22,0,0,0-.45,0V10.4A2.26,2.26,0,0,0,36.12,8.14Z"/><path class="cls-2" d="M36.12,65.46V59.58a2.26,2.26,0,0,0-2.26-2.26v10.4a2.27,2.27,0,0,0,2.26-2.26Z"/></g></g></svg>