<svg xmlns="http://www.w3.org/2000/svg" viewBox="0 0 64.88 53.02"><defs><style>.cls-1{fill:#ffd300;}.cls-2{fill:#ffb400;}.cls-3{fill:#fff;}.cls-4{fill:#dbf1f5;}</style></defs><g id="Warstwa_2" data-name="Warstwa 2"><g id="Layer_1" data-name="Layer 1"><path class="cls-1" d="M9.39,23.67A14.13,14.13,0,0,0,23.52,37.8V9.54A14.13,14.13,0,0,0,9.39,23.67Z"/><path class="cls-1" d="M7.23,23.52a1.57,1.57,0,0,0-1.57-1.58H1.58a1.58,1.58,0,1,0,0,3.15H5.66A1.57,1.57,0,0,0,7.23,23.52Z"/><path class="cls-1" d="M9.77,12a1.59,1.59,0,0,0,1.12.47A1.58,1.58,0,0,0,12,9.78L9.12,6.89A1.58,1.58,0,1,0,6.89,9.12Z"/><path class="cls-2" d="M22,1.57V5.65a1.57,1.57,0,0,0,1.57,1.57V0a1.66,1.66,0,0,0-.32,0A1.58,1.58,0,0,0,22,1.57Z"/><path class="cls-2" d="M37.65,23.67A14.13,14.13,0,0,0,23.52,9.54V37.8A14.13,14.13,0,0,0,37.65,23.67Z"/><path class="cls-2" d="M40.15,6.89a1.56,1.56,0,0,0-2.22,0L35,9.78A1.56,1.56,0,0,0,35,12a1.58,1.58,0,0,0,1.11.46A1.6,1.6,0,0,0,37.26,12l2.89-2.89A1.58,1.58,0,0,0,40.15,6.89Z"/><path class="cls-2" d="M25.09,5.65V1.57A1.58,1.58,0,0,0,23.83,0a1.55,1.55,0,0,0-.31,0V7.22A1.57,1.57,0,0,0,25.09,5.65Z"/><path class="cls-3" d="M21.78,28.76A12.34,12.34,0,1,0,18.59,53H36.42V18A15.8,15.8,0,0,0,21.78,28.76Z"/><path class="cls-4" d="M64.88,42.38A10.65,10.65,0,0,0,54.23,31.73a9.94,9.94,0,0,0-1.82.17A15.79,15.79,0,0,0,36.74,18h-.32V53H54.23A10.64,10.64,0,0,0,64.88,42.38Z"/></g></g></svg>