<svg xmlns="http://www.w3.org/2000/svg" viewBox="0 0 72.72 55.93"><defs><style>.cls-1{fill:#ffdd2c;}.cls-2{fill:#fff;}.cls-3{fill:#dbf1f5;}</style></defs><g id="Warstwa_2" data-name="Warstwa 2"><g id="Layer_1" data-name="Layer 1"><path class="cls-1" d="M47.11,26.84C41.91,18.55,43.56,7.72,50.41,0a27.52,27.52,0,0,0-7.15,3.19C31.64,10.48,27.49,24.76,34,35.09S55.13,47.88,66.74,40.6a27.82,27.82,0,0,0,6-5.06C62.79,38.35,52.32,35.13,47.11,26.84Z"/><path class="cls-2" d="M15.33,32a12,12,0,0,0-3.14-.42,12.19,12.19,0,1,0,0,24.37h17.6V21.41A15.58,15.58,0,0,0,15.33,32Z"/><path class="cls-3" d="M57.87,45.42A10.5,10.5,0,0,0,47.36,34.91a9.8,9.8,0,0,0-1.8.17A15.59,15.59,0,0,0,30.1,21.39l-.31,0V55.93H47.36A10.51,10.51,0,0,0,57.87,45.42Z"/><polygon class="cls-1" points="58.04 8.85 61.6 6.98 60.92 10.94 63.8 13.75 59.82 14.33 58.04 17.94 56.26 14.33 52.27 13.75 55.16 10.94 54.48 6.98 58.04 8.85"/><polygon class="cls-1" points="23.61 4 26.12 2.68 25.64 5.48 27.67 7.46 24.86 7.86 23.61 10.41 22.35 7.86 19.55 7.46 21.58 5.48 21.1 2.68 23.61 4"/></g></g></svg>