<svg xmlns="http://www.w3.org/2000/svg" viewBox="0 0 45.96 49.36"><defs><style>.cls-1{fill:#70a9c9;}.cls-2{fill:#28587b;}</style></defs><g id="Warstwa_2" data-name="Warstwa 2"><g id="Layer_1" data-name="Layer 1"><path class="cls-1" d="M28.18,14.62s-11.76,17-11.76,23.32A11.59,11.59,0,0,0,28.18,49.36h.07V14.73Z"/><path class="cls-2" d="M39.94,37.94c0-6-10.74-21.82-11.69-23.21V49.36A11.59,11.59,0,0,0,39.94,37.94Z"/><path class="cls-1" d="M8.33,5S0,17.42,0,22a8.33,8.33,0,0,0,8.33,8.33h.05V5.09Z"/><path class="cls-2" d="M16.66,22c0-4.39-7.61-15.92-8.28-16.93V30.35A8.33,8.33,0,0,0,16.66,22Z"/><path class="cls-1" d="M39.9,0s-6.06,9-6.06,12.38a6.06,6.06,0,0,0,6.06,6h0V.06Z"/><path class="cls-2" d="M46,12.38C46,9.18,40.43.8,39.94.06V18.43A6.06,6.06,0,0,0,46,12.38Z"/></g></g></svg>