<svg xmlns="http://www.w3.org/2000/svg" xmlns:xlink="http://www.w3.org/1999/xlink" viewBox="0 0 92.95 92.95"><defs><style>.cls-1{fill:#43bbf7;}.cls-2{fill:url(#linear-gradient);}.cls-3{fill:url(#linear-gradient-2);}.cls-4{fill:#fff;}.cls-5{fill:#dbf1f5;}</style><linearGradient id="linear-gradient" x1="22.57" y1="59.48" x2="82.21" y2="59.48" gradientUnits="userSpaceOnUse"><stop offset="0" stop-color="#2a99e0"/><stop offset="0.39" stop-color="#31a3e6"/><stop offset="1" stop-color="#43bbf7"/></linearGradient><linearGradient id="linear-gradient-2" x1="55.8" y1="47.41" x2="91.59" y2="47.41" xlink:href="#linear-gradient"/></defs><g id="Warstwa_2" data-name="Warstwa 2"><g id="Layer_1" data-name="Layer 1"><circle class="cls-1" cx="46.47" cy="46.47" r="46.47"/><path class="cls-2" d="M82.21,76.18l-34.13-38-1.61,8.3L28.78,27.8,22.57,50.33,59.23,91.16A46.52,46.52,0,0,0,82.21,76.18Z"/><path class="cls-3" d="M59.87,27.33l-2.51,6.18L55.8,39.18,85.29,72a46,46,0,0,0,6.3-14.39L60.32,22.8Z"/><path class="cls-4" d="M48,38.09S36.82,54.74,36.82,60.91A11.17,11.17,0,0,0,48,72.08h.08V38.2Z"/><path class="cls-5" d="M59.15,60.91C59.15,55,49,39.56,48.06,38.2V72.07A11.16,11.16,0,0,0,59.15,60.91Z"/><path class="cls-4" d="M28.73,27.72s-8.33,12.42-8.33,17a8.33,8.33,0,0,0,8.33,8.33h.05V27.8Z"/><path class="cls-5" d="M37.06,44.74c0-4.4-7.61-15.92-8.28-16.94V53.06A8.32,8.32,0,0,0,37.06,44.74Z"/><path class="cls-4" d="M60.3,22.72s-6.06,9-6.06,12.37a6.06,6.06,0,0,0,6.06,6.06h0V22.77Z"/><path class="cls-5" d="M66.36,35.09c0-3.2-5.53-11.58-6-12.32V41.14A6.06,6.06,0,0,0,66.36,35.09Z"/></g></g></svg>