<svg xmlns="http://www.w3.org/2000/svg" viewBox="0 0 63.56 71.48"><defs><style>.cls-1{fill:#ffd300;}.cls-2{fill:#ffb400;}.cls-3{fill:#fff;}.cls-4{fill:#dbf1f5;}</style></defs><g id="Warstwa_2" data-name="Warstwa 2"><g id="Layer_1" data-name="Layer 1"><path class="cls-1" d="M9.39,23.67A14.13,14.13,0,0,0,23.52,37.8V9.54A14.13,14.13,0,0,0,9.39,23.67Z"/><path class="cls-1" d="M7.23,23.52a1.57,1.57,0,0,0-1.57-1.58H1.58a1.58,1.58,0,1,0,0,3.15H5.66A1.57,1.57,0,0,0,7.23,23.52Z"/><path class="cls-1" d="M9.77,12a1.59,1.59,0,0,0,1.12.47A1.58,1.58,0,0,0,12,9.78L9.12,6.89A1.58,1.58,0,1,0,6.89,9.12Z"/><path class="cls-2" d="M22,1.57V5.65a1.57,1.57,0,0,0,1.57,1.58V0a1.66,1.66,0,0,0-.32,0A1.58,1.58,0,0,0,22,1.57Z"/><path class="cls-2" d="M37.65,23.67A14.13,14.13,0,0,0,23.52,9.54V37.8A14.13,14.13,0,0,0,37.65,23.67Z"/><path class="cls-2" d="M40.15,6.89a1.58,1.58,0,0,0-2.22,0L35,9.78A1.58,1.58,0,0,0,35,12a1.57,1.57,0,0,0,2.22,0l2.89-2.89A1.58,1.58,0,0,0,40.15,6.89Z"/><path class="cls-2" d="M25.09,5.65V1.57A1.58,1.58,0,0,0,23.83,0a1.55,1.55,0,0,0-.31,0V7.23A1.58,1.58,0,0,0,25.09,5.65Z"/><path class="cls-3" d="M35.79,68.62a4.74,4.74,0,0,1-8.7-3.76c1-2.4,8.19-7,8.19-7S36.83,66.22,35.79,68.62Z"/><path class="cls-3" d="M20.45,28.76A12.34,12.34,0,1,0,17.27,53H35.1V18A15.82,15.82,0,0,0,20.45,28.76Z"/><path class="cls-4" d="M63.56,42.38A10.65,10.65,0,0,0,52.91,31.73a9.94,9.94,0,0,0-1.82.17A15.8,15.8,0,0,0,35.41,18H35.1V53H52.91A10.64,10.64,0,0,0,63.56,42.38Z"/></g></g></svg>