<svg xmlns="http://www.w3.org/2000/svg" viewBox="0 0 60.49 40.88"><defs><style>.cls-1{fill:#fff;}</style></defs><g id="Warstwa_2" data-name="Warstwa 2"><g id="Layer_1" data-name="Layer 1"><path class="cls-1" d="M50.85,4H14.91a2,2,0,1,1,0-4H50.85a2,2,0,0,1,0,4Z"/><path class="cls-1" d="M55.75,11.4H24.88a2,2,0,0,1,0-4H55.75a2,2,0,0,1,0,4Z"/><path class="cls-1" d="M17.44,11.4H8.1a2,2,0,0,1,0-4h9.34a2,2,0,1,1,0,4Z"/><path class="cls-1" d="M58.47,18.77H42.68a2,2,0,0,1,0-4H58.47a2,2,0,1,1,0,4Z"/><path class="cls-1" d="M35.87,18.77H2a2,2,0,0,1,0-4H35.87a2,2,0,1,1,0,4Z"/><path class="cls-1" d="M55.65,26.14H20.9a2,2,0,1,1,0-4H55.65a2,2,0,1,1,0,4Z"/><path class="cls-1" d="M14.81,26.14H4.29a2,2,0,0,1,0-4H14.81a2,2,0,0,1,0,4Z"/><path class="cls-1" d="M51.3,33.51H38a2,2,0,1,1,0-4H51.3a2,2,0,0,1,0,4Z"/><path class="cls-1" d="M31,33.51H10.73a2,2,0,1,1,0-4H31a2,2,0,1,1,0,4Z"/><path class="cls-1" d="M41.22,40.88h-22a2,2,0,1,1,0-4h22a2,2,0,1,1,0,4Z"/></g></g></svg>