<svg xmlns="http://www.w3.org/2000/svg" viewBox="0 0 61.92 55.44"><defs><style>.cls-1{fill:#fff;}.cls-2{fill:#dbf1f5;}</style></defs><g id="Warstwa_2" data-name="Warstwa 2"><g id="Layer_1" data-name="Layer 1"><path class="cls-1" d="M27.55,52.58a4.74,4.74,0,0,1-8.7-3.76c1-2.4,8.19-7,8.19-7S28.59,50.17,27.55,52.58Z"/><path class="cls-1" d="M42.57,52.58a4.74,4.74,0,1,1-8.7-3.76c1-2.4,8.19-7,8.19-7S43.61,50.17,42.57,52.58Z"/><path class="cls-1" d="M16.4,11.33A12.85,12.85,0,0,0,13,10.87,13,13,0,0,0,13,37H31.87V0A16.69,16.69,0,0,0,16.4,11.33Z"/><path class="cls-2" d="M61.92,25.71A11.17,11.17,0,0,0,48.75,14.64,16.68,16.68,0,0,0,32.2,0h-.33V37h18.8A11.25,11.25,0,0,0,61.92,25.71Z"/></g></g></svg>