<svg xmlns="http://www.w3.org/2000/svg" viewBox="0 0 61.92 65.58"><defs><style>.cls-1{fill:#fff;}.cls-2{fill:#dbf1f5;}</style></defs><g id="Warstwa_2" data-name="Warstwa 2"><g id="Layer_1" data-name="Layer 1"><path class="cls-1" d="M16.4,11.33A12.85,12.85,0,0,0,13,10.87,13,13,0,0,0,13,37H31.87V0A16.69,16.69,0,0,0,16.4,11.33Z"/><path class="cls-2" d="M61.92,25.71A11.17,11.17,0,0,0,48.75,14.64,16.68,16.68,0,0,0,32.2,0h-.33V37H50.68A11.24,11.24,0,0,0,61.92,25.71Z"/><path class="cls-1" d="M20.88,49.46a3.78,3.78,0,1,1-6.93-3c.83-1.91,6.53-5.58,6.53-5.58S21.71,47.54,20.88,49.46Z"/><path class="cls-1" d="M32.58,49.46a3.78,3.78,0,1,1-6.93-3c.82-1.91,6.52-5.58,6.52-5.58S33.4,47.54,32.58,49.46Z"/><path class="cls-1" d="M44.27,49.46a3.78,3.78,0,1,1-6.93-3c.83-1.91,6.52-5.58,6.52-5.58S45.1,47.54,44.27,49.46Z"/><path class="cls-1" d="M23.32,60.17c-.27,0-.43-.18-.43-.89L22,56.06a1.29,1.29,0,0,1,2.58,0l-.86,3.22C23.75,60,23.68,60.19,23.32,60.17Z"/><path class="cls-1" d="M23.32,60.17c-.13.24-.37.28-1-.07l-3.22-.87A1.29,1.29,0,0,1,20.4,57l2.36,2.35C23.38,59.71,23.52,59.87,23.32,60.17Z"/><path class="cls-1" d="M23.32,60.17c.14.23.05.47-.56.82L20.4,63.35a1.29,1.29,0,0,1-1.29-2.24l3.22-.86C23,59.89,23.15,59.85,23.32,60.17Z"/><path class="cls-1" d="M23.32,60.17c.27,0,.43.19.43.9l.86,3.22a1.29,1.29,0,1,1-2.58,0l.86-3.22C22.89,60.36,23,60.16,23.32,60.17Z"/><path class="cls-1" d="M23.32,60.17c.13-.23.38-.28,1,.08l3.22.86a1.29,1.29,0,0,1-1.29,2.24L23.88,61C23.26,60.64,23.12,60.48,23.32,60.17Z"/><path class="cls-1" d="M23.32,60.17c-.14-.23-.06-.46.56-.82L26.24,57a1.29,1.29,0,1,1,1.29,2.23l-3.22.87C23.7,60.45,23.49,60.5,23.32,60.17Z"/><path class="cls-1" d="M37.37,60.17c-.27,0-.43-.18-.43-.89l-.86-3.22a1.29,1.29,0,0,1,2.58,0l-.86,3.22C37.8,60,37.73,60.19,37.37,60.17Z"/><path class="cls-1" d="M37.37,60.17c-.13.24-.38.28-1-.07l-3.22-.87A1.29,1.29,0,0,1,34.45,57l2.36,2.35C37.42,59.71,37.56,59.87,37.37,60.17Z"/><path class="cls-1" d="M37.37,60.17c.13.23.05.47-.56.82l-2.36,2.36a1.29,1.29,0,0,1-1.29-2.24l3.22-.86C37,59.89,37.2,59.85,37.37,60.17Z"/><path class="cls-1" d="M37.37,60.17c.27,0,.43.19.42.9l.87,3.22a1.29,1.29,0,1,1-2.58,0l.86-3.22C36.94,60.36,37,60.16,37.37,60.17Z"/><path class="cls-1" d="M37.37,60.17c.13-.23.37-.28,1,.08l3.23.86a1.29,1.29,0,0,1-1.29,2.24L37.93,61C37.31,60.64,37.17,60.48,37.37,60.17Z"/><path class="cls-1" d="M37.37,60.17c-.14-.23-.06-.46.56-.82L40.29,57a1.28,1.28,0,0,1,1.76.47,1.3,1.3,0,0,1-.47,1.76l-3.22.87C37.74,60.45,37.53,60.5,37.37,60.17Z"/></g></g></svg>