<svg xmlns="http://www.w3.org/2000/svg" viewBox="0 0 61.92 52.87"><defs><style>.cls-1{fill:#fff;}.cls-2{fill:#dbf1f5;}</style></defs><g id="Warstwa_2" data-name="Warstwa 2"><g id="Layer_1" data-name="Layer 1"><path class="cls-1" d="M16.4,11.33A12.85,12.85,0,0,0,13,10.87,13,13,0,0,0,13,37H31.87V0A16.69,16.69,0,0,0,16.4,11.33Z"/><path class="cls-2" d="M61.92,25.71A11.17,11.17,0,0,0,48.75,14.64,16.67,16.67,0,0,0,32.2,0h-.33V37h18.8A11.25,11.25,0,0,0,61.92,25.71Z"/><path class="cls-1" d="M24.41,46.71c-.31,0-.49-.2-.49-1l-1-3.67a1.47,1.47,0,0,1,2.94,0l-1,3.67C24.9,46.51,24.82,46.74,24.41,46.71Z"/><path class="cls-1" d="M24.41,46.71c-.15.27-.43.32-1.13-.08l-3.66-1a1.46,1.46,0,1,1,1.46-2.54l2.69,2.68C24.47,46.19,24.63,46.37,24.41,46.71Z"/><path class="cls-1" d="M24.41,46.71c.16.27.06.53-.64.94l-2.69,2.68a1.46,1.46,0,1,1-1.46-2.54l3.66-1C24,46.4,24.22,46.35,24.41,46.71Z"/><path class="cls-1" d="M24.41,46.71c.31,0,.49.21.49,1l1,3.67a1.47,1.47,0,0,1-2.94,0l1-3.67C23.92,46.92,24,46.69,24.41,46.71Z"/><path class="cls-1" d="M24.41,46.72c.15-.27.43-.32,1.13.08l3.66,1a1.46,1.46,0,1,1-1.46,2.54l-2.69-2.68C24.35,47.24,24.19,47.06,24.41,46.72Z"/><path class="cls-1" d="M24.41,46.72c-.16-.27-.06-.53.64-.94l2.69-2.68a1.46,1.46,0,0,1,1.46,2.54l-3.66,1C24.84,47,24.6,47.08,24.41,46.72Z"/><path class="cls-1" d="M40.06,46.71c-.3,0-.48-.2-.48-1L38.6,42a1.47,1.47,0,1,1,2.93,0l-1,3.67C40.55,46.51,40.48,46.74,40.06,46.71Z"/><path class="cls-1" d="M40.06,46.71c-.14.27-.42.32-1.12-.08l-3.67-1a1.47,1.47,0,1,1,1.47-2.54l2.69,2.68C40.13,46.19,40.29,46.37,40.06,46.71Z"/><path class="cls-1" d="M40.06,46.71c.16.27.07.53-.63.94l-2.69,2.68a1.47,1.47,0,1,1-1.47-2.54l3.67-1C39.64,46.4,39.88,46.35,40.06,46.71Z"/><path class="cls-1" d="M40.06,46.71c.31,0,.49.21.49,1l1,3.67a1.47,1.47,0,1,1-2.93,0l1-3.67C39.58,46.92,39.65,46.69,40.06,46.71Z"/><path class="cls-1" d="M40.06,46.72c.15-.27.43-.32,1.13.08l3.67,1a1.47,1.47,0,1,1-1.47,2.54L40.7,47.65C40,47.24,39.84,47.06,40.06,46.72Z"/><path class="cls-1" d="M40.06,46.72c-.15-.27-.06-.53.64-.94l2.69-2.68a1.47,1.47,0,1,1,1.47,2.54l-3.67,1C40.49,47,40.25,47.08,40.06,46.72Z"/></g></g></svg>