<svg xmlns="http://www.w3.org/2000/svg" viewBox="0 0 61.92 65.56"><defs><style>.cls-1{fill:#aed7e8;}.cls-2{fill:#63afcd;}.cls-3{fill:#ffe62c;}.cls-4{fill:#ffd000;}</style></defs><g id="Warstwa_2" data-name="Warstwa 2"><g id="Layer_1" data-name="Layer 1"><path class="cls-1" d="M16.4,11.33A12.85,12.85,0,0,0,13,10.87,13,13,0,0,0,13,37H31.87V0A16.69,16.69,0,0,0,16.4,11.33Z"/><path class="cls-2" d="M61.92,25.71A11.17,11.17,0,0,0,48.75,14.64,16.67,16.67,0,0,0,32.2,0h-.33V37h18.8A11.25,11.25,0,0,0,61.92,25.71Z"/><polygon class="cls-3" points="28.17 40.96 36.39 40.96 33.31 49.27 40.5 49.27 28.17 65.56 30.57 53.8 23.38 53.8 28.17 40.96"/><polygon class="cls-4" points="33.31 49.27 36.39 40.96 31.69 40.96 31.69 60.9 40.5 49.27 33.31 49.27"/></g></g></svg>