<svg xmlns="http://www.w3.org/2000/svg" xmlns:xlink="http://www.w3.org/1999/xlink" viewBox="0 0 92.95 92.95"><defs><style>.cls-1{fill:#43bbf7;}.cls-2{fill:url(#linear-gradient);}.cls-3{fill:#fff;}</style><linearGradient id="linear-gradient" x1="47.22" y1="48.03" x2="68.22" y2="77.03" gradientUnits="userSpaceOnUse"><stop offset="0" stop-color="#2a99e0"/><stop offset="0.39" stop-color="#31a3e6"/><stop offset="1" stop-color="#43bbf7"/></linearGradient></defs><g id="Warstwa_2" data-name="Warstwa 2"><g id="Layer_1" data-name="Layer 1"><path class="cls-1" d="M93,46.47A46.48,46.48,0,1,1,46.48,0,46.48,46.48,0,0,1,93,46.47Z"/><path class="cls-2" d="M90.94,60,61.14,26.81l-7.45-.39-5.5,3.3V38.4l9.05,8.07L11.85,47.6l40.39,45A46.51,46.51,0,0,0,90.94,60Z"/><path class="cls-3" d="M41.08,48.23c-10.58,0-25,0-27.47,0a2.26,2.26,0,0,1,0-4.51h0c14.76,0,37.19.08,38.49,0,.07,0,7-1.09,7.44-9.25A5.71,5.71,0,0,0,55,28.63a4.1,4.1,0,0,0-5,2.66,2.44,2.44,0,0,0,.41,2.93,3.84,3.84,0,0,0,3,1.12,2.25,2.25,0,0,1,2.8,3.53c-2.1,1.74-5.74,1-8-.67a6.92,6.92,0,0,1-2.32-8.63A8.57,8.57,0,0,1,56,24.23a10.22,10.22,0,0,1,8.06,10.45C63.46,45.32,54.7,48,52.39,48.18,51.77,48.22,47,48.23,41.08,48.23Z"/><path class="cls-3" d="M70.5,60.41A9.35,9.35,0,0,1,69,60.28c-3.59-.61-6.85-3.54-6-8.69a2.25,2.25,0,1,1,4.45.7c-.32,2,.47,3.23,2.34,3.55a3,3,0,0,0,3.63-2.36c.37-1.57-.18-3.7-2.93-4.53-2.26-.69-14.41-.8-21.53-.71h0a2.26,2.26,0,0,1,0-4.51c3.2,0,19.31-.18,22.9.9a8.26,8.26,0,0,1,6,9.89A7.34,7.34,0,0,1,70.5,60.41Z"/><path class="cls-3" d="M47.21,65.25a6,6,0,0,1-4.91-2.48A2.25,2.25,0,0,1,46,60.14a1.71,1.71,0,0,0,1.82.53A2.16,2.16,0,0,0,49.47,59a2.85,2.85,0,0,0-.29-2.17c-.35-.41-1.25-.94-3.58-1-1.87-.08-17.38,0-25.32,0h0a2.26,2.26,0,1,1,0-4.51c.94,0,23.1-.1,25.54,0,3.25.14,5.49,1,6.86,2.68a7,7,0,0,1,1.26,5.7,6.58,6.58,0,0,1-5.08,5.35A7.06,7.06,0,0,1,47.21,65.25Z"/></g></g></svg>