<?xml version="1.0" standalone="no"?>
<!DOCTYPE svg PUBLIC "-//W3C//DTD SVG 20010904//EN"
 "http://www.w3.org/TR/2001/REC-SVG-20010904/DTD/svg10.dtd">
<svg version="1.0" xmlns="http://www.w3.org/2000/svg"
 width="700.000000pt" height="700.000000pt" viewBox="0 0 700.000000 700.000000"
 preserveAspectRatio="xMidYMid meet">
<metadata>
Created by potrace 1.11, written by Peter Selinger 2001-2013
</metadata>
<g transform="translate(0.000000,700.000000) scale(0.100000,-0.100000)"
fill="#000000" stroke="none">
<path d="M3278 6995 c-1 -1 -41 -6 -88 -9 -87 -7 -104 -9 -225 -27 -122 -18
-129 -20 -165 -29 -19 -5 -86 -21 -147 -35 -113 -26 -331 -96 -475 -154 -221
-88 -590 -294 -748 -418 -8 -6 -51 -40 -95 -74 -208 -161 -451 -406 -605 -609
-19 -25 -37 -47 -40 -50 -5 -5 -23 -31 -91 -131 -52 -77 -52 -76 -125 -199
-51 -86 -194 -369 -194 -385 0 -3 -8 -25 -19 -48 -47 -105 -127 -350 -157
-477 -24 -104 -54 -255 -59 -295 -4 -27 -8 -57 -10 -65 -3 -8 -7 -40 -10 -70
-3 -30 -9 -89 -14 -130 -9 -74 -6 -570 3 -643 21 -160 48 -321 71 -417 88
-371 223 -711 399 -1004 36 -60 66 -111 66 -113 0 -2 4 -9 10 -16 5 -7 47 -65
92 -129 162 -228 399 -484 608 -658 81 -67 344 -260 355 -260 3 0 37 -21 76
-46 277 -177 727 -354 1094 -430 61 -12 246 -44 285 -48 240 -28 682 -28 865
-1 238 35 438 80 630 142 1002 321 1811 1080 2190 2051 51 133 121 345 131
402 3 14 8 34 11 45 4 11 8 26 9 34 2 8 10 46 18 85 14 66 19 89 32 171 2 17
6 41 9 55 2 14 7 56 11 95 3 38 8 78 11 90 2 11 6 124 7 250 3 204 -2 330 -18
460 -13 101 -17 131 -21 145 -2 8 -7 35 -10 60 -11 82 -54 263 -96 400 -97
325 -274 695 -458 960 -47 69 -158 217 -176 236 -5 6 -23 28 -39 48 -87 111
-265 286 -464 458 -182 158 -531 372 -797 490 -205 90 -548 198 -735 232 -105
18 -143 24 -230 36 -41 5 -95 12 -120 15 -47 7 -546 16 -552 10z"/>
</g>
</svg>
