<svg xmlns="http://www.w3.org/2000/svg" viewBox="0 0 1920 1284" width="1920" height="1284"><defs><linearGradient id="grd1" gradientUnits="userSpaceOnUse"  x1="1828.035" y1="884.455" x2="1859.338" y2="195.801"><stop offset="0" stop-color="#ffffff"  /><stop offset="1" stop-color="#06b4ff"  /></linearGradient><linearGradient id="grd2" gradientUnits="userSpaceOnUse"  x1="2488.098" y1="914.462" x2="2519.4" y2="225.807"><stop offset="0" stop-color="#fffff5"  /><stop offset="1" stop-color="#38c3f5"  /></linearGradient><linearGradient id="grd3" gradientUnits="userSpaceOnUse"  x1="3296.57" y1="951.216" x2="3327.872" y2="262.562"><stop offset="0" stop-color="#ffffed"  /><stop offset="1" stop-color="#60cfed"  /></linearGradient><linearGradient id="grd4" gradientUnits="userSpaceOnUse"  x1="3262.431" y1="949.665" x2="3293.733" y2="261.01"><stop offset="0" stop-color="#ffffe7"  /><stop offset="1" stop-color="#80d9e7"  /></linearGradient><linearGradient id="grd5" gradientUnits="userSpaceOnUse"  x1="3081.483" y1="941.438" x2="3112.786" y2="252.783"><stop offset="0" stop-color="#ffffe2"  /><stop offset="1" stop-color="#99e1e2"  /></linearGradient><linearGradient id="grd6" gradientUnits="userSpaceOnUse"  x1="2955.315" y1="935.702" x2="2986.618" y2="247.048"><stop offset="0" stop-color="#ffffd8"  /><stop offset="1" stop-color="#ccf0d8"  /></linearGradient></defs><style>tspan { white-space:pre }.shp0 { fill: url(#grd1) } .shp1 { fill: url(#grd2) } .shp2 { fill: url(#grd3) } .shp3 { fill: url(#grd4) } .shp4 { fill: url(#grd5) } .shp5 { fill: url(#grd6) } .shp6 { fill: #a0dbf5 } .shp7 { fill: #aadff7 } .shp8 { fill: #96d0f3 } .shp9 { fill: #acc7d5 } .shp10 { fill: #a7c1cd } .shp11 { fill: #bbcedc } .shp12 { fill: #9db3c1 } .shp13 { fill: #9eb4c2 } .shp14 { fill: #94afbc } .shp15 { fill: #7c9fb8 } .shp16 { fill: #87aabd } .shp17 { fill: #769ab1 } .shp18 { fill: #7198a5 } .shp19 { fill: #6f93aa } .shp20 { fill: #ffc9f7 } .shp21 { fill: #adef5b } .shp22 { fill: #7dd75d } .shp23 { fill: #ff4f4f } .shp24 { fill: #60ce81 } .shp25 { fill: #4cc26c } .shp26 { fill: #c1e8f9 } </style><path class="shp0" d="M374.37 0.49L0.1 0.49L0.1 1282.48L0.1 916.11L149.25 877.63L304.63 889.29L449.9 844.41C372.9 687.35 329.67 510.74 329.67 324.02C329.67 211.83 345.24 103.36 374.37 0.49Z" /><path class="shp1" d="M896.35 0.49L374.37 0.49C345.24 103.36 329.67 211.83 329.67 324.02C329.67 510.74 372.9 687.35 449.9 844.41L530.11 819.63L765.48 875.74L933.75 845.33L1109.2 891.23C932.24 765.08 816.81 558.06 816.81 324.02C816.81 207.22 845.52 97.22 896.35 0.49Z" /><path class="shp2" d="M1919.51 0.49L1728.38 0.49C1832.56 70.4 1901.14 189.22 1901.14 324.02C1901.14 538.94 1727.11 713.21 1512.33 713.21C1297.56 713.21 1123.36 538.94 1123.36 324.02C1123.36 189.22 1191.94 70.4 1296.16 0.49L896.35 0.49C845.52 97.22 816.81 207.22 816.81 324.02C816.81 558.06 932.24 765.08 1109.2 891.23L1127.6 896.05L1382.7 878.29L1545.9 840.23L1739.71 878.29L1919.51 887.48L1919.51 0.49Z" /><path fill-rule="evenodd" class="shp3" d="M1901.14 324.02C1901.14 538.94 1727.11 713.21 1512.33 713.21C1297.56 713.21 1123.36 538.94 1123.36 324.02C1123.36 189.22 1191.94 70.4 1296.16 0.49L1728.38 0.49C1832.56 70.4 1901.14 189.22 1901.14 324.02ZM1724.27 324.02C1724.27 206.85 1629.4 111.93 1512.33 111.93C1395.22 111.93 1300.36 206.85 1300.36 324.02C1300.36 441.18 1395.22 536.23 1512.33 536.23C1629.4 536.23 1724.27 441.18 1724.27 324.02Z" /><path fill-rule="evenodd" class="shp4" d="M1724.27 324.02C1724.27 441.18 1629.4 536.23 1512.33 536.23C1395.22 536.23 1300.36 441.18 1300.36 324.02C1300.36 206.85 1395.22 111.93 1512.33 111.93C1629.4 111.93 1724.27 206.85 1724.27 324.02ZM1600.94 324.02C1600.94 275.07 1561.23 235.36 1512.33 235.36C1463.4 235.36 1423.69 275.07 1423.69 324.02C1423.69 372.96 1463.4 412.67 1512.33 412.67C1561.23 412.67 1600.94 372.96 1600.94 324.02Z" /><path class="shp5" d="M1512.33 235.36C1463.4 235.36 1423.69 275.07 1423.69 324.02C1423.69 372.96 1463.4 412.67 1512.33 412.67C1561.23 412.67 1600.94 372.96 1600.94 324.02C1600.94 275.07 1561.23 235.36 1512.33 235.36Z" /><path class="shp6" d="M0.09 1182.26L1919.52 1182.26L1919.52 846.35L1738.07 778.24L1523.68 783.61L1374.67 737.74L1203.82 762.02L1149.3 735.06L1000.28 737.74L647.73 594.64L567.8 591.96L495.01 629.78L426.07 624.41L338.85 651.37L234.78 653.16L180.26 685.49L22.57 745.79L0.09 750.14L0.09 1182.26Z" /><path class="shp7" d="M105.82 713.98L22.57 745.79L0.09 750.14L0.09 884.55L69.81 888.13L105.82 713.98Z" /><path class="shp8" d="M631.9 863.22L325.45 872.8L304.5 804.57L495.78 702.86L613 674.37L915.12 859.63L759.98 929.78L631.9 863.22Z" /><path class="shp7" d="M498.21 702.22L613 674.37L618.11 677.43L616.58 682.55L603.93 796.01L498.21 702.22Z" /><path class="shp7" d="M1919.52 876.12L1919.52 846.35L1738.07 778.24L1839.97 865.26C1850.18 865.26 1860.91 864.23 1870.75 866.54C1887.21 870.5 1903.56 873.82 1919.52 876.12ZM1519.97 782.46L1380.29 739.4L1461.12 855.55L1519.97 782.46Z" /><path class="shp7" d="M1367.14 738.77L1203.82 762.02L1172.28 746.43L1250.56 855.68L1367.14 738.77Z" /><path class="shp8" d="M1318.23 874.84L1146.36 863.34L1148.79 735.06L1149.3 735.06L1165.64 743.11L1318.23 874.84Z" /><path class="shp7" d="M1004.24 737.62L1020.71 866.54L1151.08 735.83L1149.3 735.06L1004.24 737.62Z" /><path class="shp7" d="M224.44 659.17L101.48 715.64L303.35 809.68L224.44 659.17Z" /><path class="shp7" d="M421.6 625.82L338.85 651.37L303.35 809.68L421.6 625.82Z" /><path class="shp7" d="M644.28 594.51L567.8 591.96L564.73 593.62L616.58 682.55L644.28 594.51Z" /><path class="shp7" d="M504.59 624.79L495.01 629.78L426.07 624.41L496.16 702.22L504.59 624.79Z" /><path class="shp9" d="M0.1 1283.06L1919.51 1283.06L1919.51 887.48L1739.71 878.29L1545.9 840.23L1382.7 878.29L1127.6 896.05L933.75 845.33L765.48 875.74L530.11 819.63L304.63 889.29L149.25 877.63L0.1 916.11L0.1 1283.06Z" /><path class="shp10" d="M307.19 888.51L354.94 1025.87L373.97 867.94L307.19 888.51Z" /><path class="shp9" d="M706.85 861.81L530.13 819.65L529.62 819.9L546.99 918.41L713.88 913.05C713.88 896.82 711.45 879.31 706.85 861.81Z" /><path class="shp11" d="M1724.28 1121.31L1741.9 878.42L1919.52 887.49L1724.28 1121.31Z" /><path class="shp11" d="M305.65 889.02L246.03 1012.07L155.23 878.16L304.63 889.28L305.65 889.02Z" /><path class="shp10" d="M1545.9 840.22L1382.71 878.29L1375.18 878.8L1459.08 1086.81L1545.9 840.22Z" /><path class="shp12" d="M1529.94 843.54L1516.79 1079.02L1718.03 1019.99L1704.11 1009.13L1544.24 840.22L1529.94 843.54Z" /><path class="shp11" d="M1395.74 1057.17L1516.79 1079.02L1540.03 841.24L1521.38 845.58L1395.74 1057.17Z" /><path class="shp12" d="M777.72 1030.21L776.7 1044.01L526.68 1021.52L688.47 913.3L777.72 1030.21Z" /><path class="shp10" d="M929.93 845.97L1068.98 1054.11L1173.3 934.64L1127.59 896.05L933.76 845.33L929.93 845.97Z" /><path class="shp13" d="M1167.68 941.15L1173.3 934.64L1127.59 896.05L1122.1 894.65L1104.1 994.94L1167.68 941.15Z" /><path class="shp10" d="M1328.45 1080.81L1169.98 1056.53L1173.3 934.64L1328.45 1080.81Z" /><path class="shp11" d="M1172.41 933.87L976.41 1109.3L1173.56 1195.67L1172.41 933.87Z" /><path class="shp11" d="M928.4 846.22L778.48 873.43L959.81 1051.42L928.4 846.22Z" /><path class="shp10" d="M779.38 873.18L765.46 875.74L539.2 821.82L688.47 913.3L764.32 1022.93L779.38 873.18Z" /><path class="shp11" d="M765.46 875.74L539.2 821.82L688.47 913.3L765.46 875.74Z" /><path class="shp11" d="M560.77 1013.6L532.94 820.29L530.13 819.65L519.66 822.96L447.77 1021.14L560.77 1013.6Z" /><path class="shp9" d="M523.87 821.69L501.28 828.59L340.38 996.1L467.43 1010.28L523.87 821.69Z" /><path class="shp14" d="M497.82 1048.61L468.58 1079.66L351.88 1001.33L454.16 945.12L457.22 944.35L495.91 990.6L497.82 1048.61Z" /><path class="shp11" d="M460.28 1022.67L455.18 939.62L352.9 995.84L373.2 1009.39L460.28 1022.67Z" /><path class="shp15" d="M0.09 991.37L213.84 959.3L403.2 993.03L699.19 1008.74L924.05 963.77L1119.42 990.73L1392.42 941.15L1654.18 1002.74L1834.6 992.52L1919.52 1009.13L1919.52 1237.97L0.09 1237.97L0.09 991.37Z" /><path class="shp16" d="M6.86 1207.94L0.09 1136.77L0.09 1201.81L6.86 1207.94Z" /><path class="shp16" d="M1653.03 1002.49L1722.24 1111.35L1827.58 992.9L1654.18 1002.74L1653.03 1002.49Z" /><path class="shp17" d="M189.71 962.88L213.84 959.3L403.2 993.03L412.02 993.41L314.59 1177.53L189.71 962.88Z" /><path class="shp18" d="M232.36 962.24L247.68 1170.63L14.14 1118.37L30.22 1108.79L215.76 959.3L232.36 962.24Z" /><path class="shp16" d="M388.14 1151.21L247.68 1170.63L220.75 960.19L242.32 964.03L388.14 1151.21Z" /><path class="shp18" d="M1049.57 1122.34L1106.39 1139.71L1374.03 1086.05L1208.8 1023.95L1049.57 1122.34Z" /><path class="shp17" d="M551.96 1161.05L696.38 1135.75L693.45 1008.36L551.96 1161.05Z" /><path class="shp16" d="M697.15 1010.66L875.79 1193.88L788.32 1237.97L696.25 1237.97L697.15 1010.66Z" /><path class="shp16" d="M930.44 964.67L1104.23 988.69L893.92 1146.1L930.44 964.67Z" /><path class="shp17" d="M1103.33 988.56L1119.42 990.73L1382.07 943.07L1208.8 1023.95L1120.83 1120.93L1103.33 988.56Z" /><path class="shp16" d="M1356.92 1112.75L1389.36 941.66L1392.42 941.15L1404.68 944.1L1488.06 1119.39L1356.92 1112.75Z" /><path class="shp15" d="M1399.83 942.95L1426 949.08L1612.68 1097.16L1465.32 1109.81L1399.83 942.95Z" /><path class="shp19" d="M1587.27 1109.43L1519.85 1023.57L1745.73 1091.93L1587.27 1109.43Z" /><path class="shp17" d="M1399.83 942.95L1426 949.08L1515.25 1019.99L1460.73 1098.06L1399.83 942.95Z" /><path class="shp15" d="M1519.34 1023.18L1465.32 1109.81L1361.52 1088.61L1432.51 1029.45L1519.34 1023.18Z" /><path class="shp19" d="M1519.34 1023.18L1472.48 1098.31L1435.96 1029.19L1519.34 1023.18Z" /><path class="shp20" d="M536.39 1178.68L536.89 1185.71L529.37 1179.19L536.39 1178.68Z" /><path class="shp21" d="M0.1 1283.06L1919.51 1283.06L1919.51 1121.32L0.1 1121.32L0.1 1283.06Z" /><path class="shp22" d="M0.09 1127.19L1919.52 1127.19L1919.52 1081.06C1739.1 1091.03 1497.64 1100.23 1409.02 1100.23C1427.28 1100.23 1054.93 1084.52 1068.98 1080.81L723.07 1096.01L0.09 1069.31L0.09 1127.19Z" /><path class="shp23" d="M1101.93 1200.02L1107.54 1184.31L1117.5 1205.64L1101.93 1200.02Z" /><path class="shp23" d="M952.02 1258.28L987.9 1248.19L941.92 1222.38L952.02 1258.28Z" /><path class="shp23" d="M706.6 1215.23L682.08 1219.06L710.43 1239.75L706.6 1215.23Z" /><path class="shp23" d="M1401.87 1196.44L1401.99 1213.05L1385.14 1196.57L1401.87 1196.44Z" /><path class="shp23" d="M1219.14 1262.24L1219.66 1283.07L1229.61 1283.07L1250.17 1261.6L1219.14 1262.24Z" /><path class="shp23" d="M1689.3 1239.12L1687.64 1214.33L1664.52 1240.65L1689.3 1239.12Z" /><path class="shp23" d="M1873.43 1221.48L1897.94 1217.91L1869.85 1196.95L1873.43 1221.48Z" /><path class="shp23" d="M1757.1 1186.6L1764.89 1185.45L1755.95 1178.81L1757.1 1186.6Z" /><path class="shp23" d="M1604 1191.07L1605.54 1183.28L1596.21 1189.54L1604 1191.07Z" /><path class="shp23" d="M1266.9 1183.41L1269.96 1176.12L1259.62 1180.47L1266.9 1183.41Z" /><path class="shp23" d="M1535.31 1234.9L1549.98 1234.77L1535.17 1220.08L1535.31 1234.9Z" /><path class="shp23" d="M1320.27 1232.48L1330.62 1244.49L1332.15 1222.12L1320.27 1232.48Z" /><path class="shp23" d="M989.68 1155.55L997.6 1155.43L989.68 1147.63L989.68 1155.55Z" /><path class="shp23" d="M1156.06 1150.95L1163.85 1150.82L1155.94 1143.16L1156.06 1150.95Z" /><path class="shp23" d="M1459.33 1153.25L1467.12 1151.72L1457.92 1145.46L1459.33 1153.25Z" /><path class="shp23" d="M776.57 1152.11L764.19 1150.7L778.87 1144.31L776.57 1152.11Z" /><path class="shp23" d="M1034.12 1202.45L1050.59 1205.26L1031.31 1218.93L1034.12 1202.45Z" /><path class="shp23" d="M1439.91 1267.74L1463.29 1259.82L1432 1244.23L1439.91 1267.74Z" /><path class="shp23" d="M1681.13 1151.21L1688.91 1149.8L1679.72 1143.54L1681.13 1151.21Z" /><path class="shp23" d="M409.34 1210.5L403.72 1194.79L393.76 1216.12L409.34 1210.5Z" /><path class="shp23" d="M628.58 1235.67L604.83 1228.89L635.35 1211.77L628.58 1235.67Z" /><path class="shp23" d="M805.94 1194.52L817.31 1196.18L804.15 1205.9L805.94 1194.52Z" /><path class="shp23" d="M81.56 1213.56L81.3 1230.17L98.15 1213.69L81.56 1213.56Z" /><path class="shp23" d="M292.12 1266.46L291.74 1283.07L283.69 1283.07L267.35 1265.95L292.12 1266.46Z" /><path class="shp23" d="M244.36 1193.88L241.3 1186.6L251.64 1190.82L244.36 1193.88Z" /><path class="shp23" d="M187.8 1251.76L171.96 1251.64L187.92 1235.92L187.8 1251.76Z" /><path class="shp23" d="M494.63 1169.99L486.72 1169.87L494.63 1162.07L494.63 1169.99Z" /><path class="shp23" d="M355.19 1161.3L347.4 1161.3L355.32 1153.51L355.19 1161.3Z" /><path class="shp23" d="M51.93 1163.61L44.15 1162.2L53.34 1155.81L51.93 1163.61Z" /><path class="shp23" d="M550.43 1224.68L542.64 1223.15L551.84 1216.89L550.43 1224.68Z" /><path class="shp23" d="M512.26 1255.47L495.78 1258.28L515.06 1271.96L512.26 1255.47Z" /><path class="shp23" d="M35.08 1267.86L29.07 1243.72L59.08 1261.99L35.08 1267.86Z" /><path class="shp24" d="M107.1 1283.07L218.44 757.55L329.66 1283.07L107.1 1283.07Z" /><path class="shp25" d="M219.85 1283.07L219.85 764.32L329.66 1283.07L219.85 1283.07Z" /><path class="shp24" d="M286.37 1283.07L394.27 845.33L502.29 1283.07L286.37 1283.07Z" /><path class="shp25" d="M395.68 1283.07L395.68 850.57L502.29 1283.07L395.68 1283.07Z" /><path class="shp24" d="M552.35 1283.07L634.58 949.58L716.81 1283.07L552.35 1283.07Z" /><path class="shp25" d="M635.6 1283.07L635.6 953.81L716.81 1283.07L635.6 1283.07Z" /><path class="shp24" d="M668.8 1283.07L725.5 1053.08L782.32 1283.07L668.8 1283.07Z" /><path class="shp25" d="M726.65 1283.07L726.65 1057.43L782.32 1283.07L726.65 1283.07Z" /><path class="shp24" d="M802.62 1283.07L840.55 1129.24L878.47 1283.07L802.62 1283.07Z" /><path class="shp25" d="M841.57 1283.07L841.57 1133.45L878.47 1283.07L841.57 1283.07Z" /><path class="shp26" d="M425.93 624.41L338.72 651.37L388.52 677.05L421.47 625.69L425.93 624.41Z" /><path class="shp26" d="M644.16 594.51L567.67 591.96L527.83 612.66L579.68 619.3L644.16 594.51Z" /><path class="shp26" d="M619.89 673.1L498.72 701.58L612.11 721.9L619.89 673.1Z" /></svg>