<svg xmlns="http://www.w3.org/2000/svg" viewBox="0 0 1600 1070" width="1600" height="1070">
	<defs>
		<linearGradient id="grd1" gradientUnits="userSpaceOnUse"  x1="1523.363" y1="737.046" x2="1549.448" y2="163.167">
			<stop offset="0" stop-color="#ffffff"  />
			<stop offset="1" stop-color="#06b4ff"  />
		</linearGradient>
		<linearGradient id="grd2" gradientUnits="userSpaceOnUse"  x1="2073.415" y1="762.052" x2="2099.5" y2="188.173">
			<stop offset="0" stop-color="#fffff5"  />
			<stop offset="1" stop-color="#38c3f5"  />
		</linearGradient>
		<linearGradient id="grd3" gradientUnits="userSpaceOnUse"  x1="2747.142" y1="792.68" x2="2773.227" y2="218.802">
			<stop offset="0" stop-color="#ffffed"  />
			<stop offset="1" stop-color="#60cfed"  />
		</linearGradient>
		<linearGradient id="grd4" gradientUnits="userSpaceOnUse"  x1="2718.693" y1="791.388" x2="2744.778" y2="217.508">
			<stop offset="0" stop-color="#ffffe7"  />
			<stop offset="1" stop-color="#80d9e7"  />
		</linearGradient>
		<linearGradient id="grd5" gradientUnits="userSpaceOnUse"  x1="2567.902" y1="784.532" x2="2593.988" y2="210.653">
			<stop offset="0" stop-color="#ffffe2"  />
			<stop offset="1" stop-color="#99e1e2"  />
		</linearGradient>
		<linearGradient id="grd6" gradientUnits="userSpaceOnUse"  x1="2462.762" y1="779.752" x2="2488.848" y2="205.873">
			<stop offset="0" stop-color="#ffffd8"  />
			<stop offset="1" stop-color="#ccf0d8"  />
		</linearGradient>
	</defs>
	<style>
		tspan { white-space:pre }
		.shp0 { fill: url(#grd1) } 
		.shp1 { fill: url(#grd2) } 
		.shp2 { fill: url(#grd3) } 
		.shp3 { fill: url(#grd4) } 
		.shp4 { fill: url(#grd5) } 
		.shp5 { fill: url(#grd6) } 
		.shp6 { fill: #a0dbf5 } 
		.shp7 { fill: #aadff7 } 
		.shp8 { fill: #96d0f3 } 
		.shp9 { fill: #acc7d5 } 
		.shp10 { fill: #a7c1cd } 
		.shp11 { fill: #bbcedc } 
		.shp12 { fill: #9db3c1 } 
		.shp13 { fill: #9eb4c2 } 
		.shp14 { fill: #94afbc } 
		.shp15 { fill: #7c9fb8 } 
		.shp16 { fill: #87aabd } 
		.shp17 { fill: #769ab1 } 
		.shp18 { fill: #7198a5 } 
		.shp19 { fill: #6f93aa } 
		.shp20 { fill: #ffc9f7 } 
		.shp21 { fill: #adef5b } 
		.shp22 { fill: #7dd75d } 
		.shp23 { fill: #ff4f4f } 
		.shp24 { fill: #60ce81 } 
		.shp25 { fill: #4cc26c } 
		.shp26 { fill: #c1e8f9 } 
	</style>
	<path id="Layer" class="shp0" d="M311.98 0.41L0.08 0.41L0.08 1068.73L0.08 763.43L124.38 731.36L253.86 741.08L374.92 703.67C310.75 572.79 274.73 425.62 274.73 270.02C274.73 176.53 287.7 86.13 311.98 0.41Z" />
	<path id="Layer" class="shp1" d="M746.96 0.41L311.98 0.41C287.7 86.13 274.73 176.53 274.73 270.02C274.73 425.62 310.75 572.79 374.92 703.67L441.76 683.02L637.9 729.78L778.13 704.44L924.33 742.69C776.87 637.57 680.67 465.05 680.67 270.02C680.67 172.68 704.6 81.02 746.96 0.41Z" />
	<path id="Layer" class="shp2" d="M1599.59 0.41L1440.32 0.41C1527.13 58.67 1584.28 157.68 1584.28 270.02C1584.28 449.12 1439.26 594.34 1260.28 594.34C1081.3 594.34 936.13 449.12 936.13 270.02C936.13 157.68 993.28 58.67 1080.13 0.41L746.96 0.41C704.6 81.02 680.67 172.68 680.67 270.02C680.67 465.05 776.87 637.57 924.33 742.69L939.67 746.71L1152.25 731.91L1288.25 700.19L1449.76 731.91L1599.59 739.57L1599.59 0.41Z" />
	<path id="Layer" fill-rule="evenodd" class="shp3" d="M1584.28 270.02C1584.28 449.12 1439.26 594.34 1260.28 594.34C1081.3 594.34 936.13 449.12 936.13 270.02C936.13 157.68 993.28 58.67 1080.13 0.41L1440.32 0.41C1527.13 58.67 1584.28 157.68 1584.28 270.02ZM1436.89 270.02C1436.89 172.38 1357.83 93.28 1260.28 93.28C1162.68 93.28 1083.63 172.38 1083.63 270.02C1083.63 367.65 1162.68 446.86 1260.28 446.86C1357.83 446.86 1436.89 367.65 1436.89 270.02Z" />
	<path id="Layer" fill-rule="evenodd" class="shp4" d="M1436.89 270.02C1436.89 367.65 1357.83 446.86 1260.28 446.86C1162.68 446.86 1083.63 367.65 1083.63 270.02C1083.63 172.38 1162.68 93.28 1260.28 93.28C1357.83 93.28 1436.89 172.38 1436.89 270.02ZM1334.12 270.02C1334.12 229.22 1301.03 196.13 1260.28 196.13C1219.5 196.13 1186.41 229.22 1186.41 270.02C1186.41 310.8 1219.5 343.89 1260.28 343.89C1301.03 343.89 1334.12 310.8 1334.12 270.02Z" />
	<path id="Layer" class="shp5" d="M1260.28 196.13C1219.5 196.13 1186.41 229.22 1186.41 270.02C1186.41 310.8 1219.5 343.89 1260.28 343.89C1301.03 343.89 1334.12 310.8 1334.12 270.02C1334.12 229.22 1301.03 196.13 1260.28 196.13Z" />
	<path id="Layer" class="shp6" d="M0.07 985.22L1599.6 985.22L1599.6 705.29L1448.39 648.53L1269.73 653.01L1145.56 614.78L1003.18 635.02L957.75 612.55L833.57 614.78L539.78 495.53L473.17 493.3L412.51 524.82L355.06 520.34L282.38 542.81L195.65 544.3L150.22 571.24L18.81 621.49L0.07 625.12L0.07 985.22Z" />
	<path id="Layer" class="shp7" d="M88.18 594.98L18.81 621.49L0.07 625.12L0.07 737.13L58.18 740.11L88.18 594.98Z" />
	<path id="Layer" class="shp8" d="M526.58 719.35L271.21 727.33L253.75 670.48L413.15 585.72L510.83 561.98L762.6 716.36L633.32 774.82L526.58 719.35Z" />
	<path id="Layer" class="shp7" d="M415.18 585.18L510.83 561.98L515.09 564.52L513.82 568.79L503.27 663.34L415.18 585.18Z" />
	<path id="Layer" class="shp7" d="M1599.6 730.1L1599.6 705.29L1448.39 648.53L1533.31 721.05C1541.82 721.05 1550.76 720.19 1558.96 722.12C1572.68 725.42 1586.3 728.18 1599.6 730.1ZM1266.64 652.05L1150.24 616.17L1217.6 712.96L1266.64 652.05Z" />
	<path id="Layer" class="shp7" d="M1139.28 615.64L1003.18 635.02L976.9 622.02L1042.13 713.07L1139.28 615.64Z" />
	<path id="Layer" class="shp8" d="M1098.53 729.03L955.3 719.45L957.33 612.55L957.75 612.55L971.37 619.26L1098.53 729.03Z" />
	<path id="Layer" class="shp7" d="M836.87 614.68L850.59 722.12L959.23 613.19L957.75 612.55L836.87 614.68Z" />
	<path id="Layer" class="shp7" d="M187.03 549.31L84.57 596.37L252.79 674.73L187.03 549.31Z" />
	<path id="Layer" class="shp7" d="M351.33 521.52L282.38 542.81L252.79 674.73L351.33 521.52Z" />
	<path id="Layer" class="shp7" d="M536.9 495.43L473.17 493.3L470.61 494.68L513.82 568.79L536.9 495.43Z" />
	<path id="Layer" class="shp7" d="M420.49 520.66L412.51 524.82L355.06 520.34L413.47 585.18L420.49 520.66Z" />
	<path id="Layer" class="shp9" d="M0.08 1069.22L1599.59 1069.22L1599.59 739.57L1449.76 731.91L1288.25 700.19L1152.25 731.91L939.67 746.71L778.13 704.44L637.9 729.78L441.76 683.02L253.86 741.08L124.38 731.36L0.08 763.43L0.08 1069.22Z" />
	<path id="Layer" class="shp10" d="M255.99 740.43L295.78 854.89L311.64 723.28L255.99 740.43Z" />
	<path id="Layer" class="shp9" d="M589.04 718.17L441.78 683.04L441.35 683.25L455.83 765.34L594.9 760.88C594.9 747.35 592.88 732.76 589.04 718.17Z" />
	<path id="Layer" class="shp11" d="M1436.9 934.42L1451.58 732.02L1599.6 739.58L1436.9 934.42Z" />
	<path id="Layer" class="shp11" d="M254.71 740.85L205.03 843.39L129.36 731.8L253.86 741.07L254.71 740.85Z" />
	<path id="Layer" class="shp10" d="M1288.25 700.18L1152.26 731.91L1145.98 732.33L1215.9 905.67L1288.25 700.18Z" />
	<path id="Layer" class="shp12" d="M1274.95 702.95L1263.99 899.18L1431.69 849.99L1420.09 840.94L1286.87 700.18L1274.95 702.95Z" />
	<path id="Layer" class="shp11" d="M1163.12 880.98L1263.99 899.18L1283.36 701.03L1267.82 704.65L1163.12 880.98Z" />
	<path id="Layer" class="shp12" d="M648.1 858.51L647.25 870.01L438.9 851.27L573.73 761.08L648.1 858.51Z" />
	<path id="Layer" class="shp10" d="M774.94 704.98L890.82 878.42L977.75 778.87L939.66 746.71L778.13 704.44L774.94 704.98Z" />
	<path id="Layer" class="shp13" d="M973.07 784.29L977.75 778.87L939.66 746.71L935.08 745.54L920.08 829.12L973.07 784.29Z" />
	<path id="Layer" class="shp10" d="M1107.04 900.67L974.98 880.44L977.75 778.87L1107.04 900.67Z" />
	<path id="Layer" class="shp11" d="M977.01 778.23L813.67 924.42L977.97 996.39L977.01 778.23Z" />
	<path id="Layer" class="shp11" d="M773.67 705.18L648.73 727.86L799.84 876.18L773.67 705.18Z" />
	<path id="Layer" class="shp10" d="M649.48 727.65L637.88 729.78L449.33 684.85L573.73 761.08L636.93 852.44L649.48 727.65Z" />
	<path id="Layer" class="shp11" d="M637.88 729.78L449.33 684.85L573.73 761.08L637.88 729.78Z" />
	<path id="Layer" class="shp11" d="M467.31 844.67L444.12 683.58L441.78 683.04L433.05 685.8L373.14 850.95L467.31 844.67Z" />
	<path id="Layer" class="shp9" d="M436.56 684.74L417.73 690.49L283.65 830.08L389.53 841.9L436.56 684.74Z" />
	<path id="Layer" class="shp14" d="M414.85 873.84L390.48 899.72L293.23 834.44L378.47 787.6L381.02 786.96L413.26 825.5L414.85 873.84Z" />
	<path id="Layer" class="shp11" d="M383.57 852.23L379.32 783.02L294.08 829.87L311 841.16L383.57 852.23Z" />
	<path id="Layer" class="shp15" d="M0.07 826.14L178.2 799.42L336 827.52L582.66 840.62L770.04 803.14L932.85 825.61L1160.35 784.29L1378.48 835.62L1528.83 827.1L1599.6 840.94L1599.6 1031.64L0.07 1031.64L0.07 826.14Z" />
	<path id="Layer" class="shp16" d="M5.72 1006.62L0.07 947.31L0.07 1001.51L5.72 1006.62Z" />
	<path id="Layer" class="shp16" d="M1377.53 835.41L1435.2 926.13L1522.98 827.42L1378.48 835.62L1377.53 835.41Z" />
	<path id="Layer" class="shp17" d="M158.09 802.4L178.2 799.42L336 827.52L343.35 827.84L262.16 981.27L158.09 802.4Z" />
	<path id="Layer" class="shp18" d="M193.63 801.87L206.4 975.53L11.78 931.97L25.18 923.99L179.8 799.42L193.63 801.87Z" />
	<path id="Layer" class="shp16" d="M323.45 959.34L206.4 975.53L183.96 800.16L201.93 803.36L323.45 959.34Z" />
	<path id="Layer" class="shp18" d="M874.64 935.28L921.99 949.76L1145.03 905.04L1007.33 853.29L874.64 935.28Z" />
	<path id="Layer" class="shp17" d="M459.97 967.54L580.32 946.46L577.88 840.3L459.97 967.54Z" />
	<path id="Layer" class="shp16" d="M580.96 842.22L729.83 994.9L656.93 1031.64L580.21 1031.64L580.96 842.22Z" />
	<path id="Layer" class="shp16" d="M775.37 803.89L920.19 823.91L744.93 955.08L775.37 803.89Z" />
	<path id="Layer" class="shp17" d="M919.44 823.8L932.85 825.61L1151.72 785.89L1007.33 853.29L934.02 934.11L919.44 823.8Z" />
	<path id="Layer" class="shp16" d="M1130.77 927.29L1157.8 784.72L1160.35 784.29L1170.57 786.75L1240.05 932.83L1130.77 927.29Z" />
	<path id="Layer" class="shp15" d="M1166.53 785.79L1188.33 790.9L1343.9 914.3L1221.1 924.84L1166.53 785.79Z" />
	<path id="Layer" class="shp19" d="M1322.73 924.53L1266.54 852.98L1454.78 909.94L1322.73 924.53Z" />
	<path id="Layer" class="shp17" d="M1166.53 785.79L1188.33 790.9L1262.71 849.99L1217.28 915.05L1166.53 785.79Z" />
	<path id="Layer" class="shp15" d="M1266.12 852.65L1221.1 924.84L1134.6 907.17L1193.76 857.88L1266.12 852.65Z" />
	<path id="Layer" class="shp19" d="M1266.12 852.65L1227.07 915.26L1196.63 857.66L1266.12 852.65Z" />
	<path id="Layer" class="shp20" d="M446.99 982.23L447.41 988.09L441.14 982.66L446.99 982.23Z" />
	<path id="Layer" class="shp21" d="M0.08 1069.22L1599.59 1069.22L1599.59 934.43L0.08 934.43L0.08 1069.22Z" />
	<path id="Layer" class="shp22" d="M0.07 939.33L1599.6 939.33L1599.6 900.88C1449.25 909.19 1248.03 916.86 1174.18 916.86C1189.4 916.86 879.11 903.77 890.82 900.67L602.56 913.34L0.07 891.09L0.07 939.33Z" />
	<path id="Layer" class="shp23" d="M918.28 1000.02L922.95 986.92L931.25 1004.7L918.28 1000.02Z" />
	<path id="Layer" class="shp23" d="M793.35 1048.57L823.25 1040.16L784.93 1018.65L793.35 1048.57Z" />
	<path id="Layer" class="shp23" d="M588.83 1012.69L568.4 1015.88L592.02 1033.13L588.83 1012.69Z" />
	<path id="Layer" class="shp23" d="M1168.22 997.03L1168.33 1010.88L1154.28 997.14L1168.22 997.03Z" />
	<path id="Layer" class="shp23" d="M1015.95 1051.87L1016.38 1069.22L1024.67 1069.22L1041.81 1051.33L1015.95 1051.87Z" />
	<path id="Layer" class="shp23" d="M1407.75 1032.6L1406.37 1011.94L1387.1 1033.88L1407.75 1032.6Z" />
	<path id="Layer" class="shp23" d="M1561.19 1017.9L1581.62 1014.93L1558.21 997.46L1561.19 1017.9Z" />
	<path id="Layer" class="shp23" d="M1464.25 988.83L1470.74 987.88L1463.29 982.34L1464.25 988.83Z" />
	<path id="Layer" class="shp23" d="M1336.67 992.56L1337.95 986.07L1330.18 991.28L1336.67 992.56Z" />
	<path id="Layer" class="shp23" d="M1055.75 986.18L1058.3 980.1L1049.68 983.73L1055.75 986.18Z" />
	<path id="Layer" class="shp23" d="M1279.42 1029.08L1291.65 1028.98L1279.31 1016.73L1279.42 1029.08Z" />
	<path id="Layer" class="shp23" d="M1100.23 1027.07L1108.85 1037.08L1110.13 1018.43L1100.23 1027.07Z" />
	<path id="Layer" class="shp23" d="M824.73 962.96L831.33 962.86L824.73 956.36L824.73 962.96Z" />
	<path id="Layer" class="shp23" d="M963.38 959.13L969.88 959.02L963.28 952.63L963.38 959.13Z" />
	<path id="Layer" class="shp23" d="M1216.11 961.04L1222.6 959.77L1214.93 954.55L1216.11 961.04Z" />
	<path id="Layer" class="shp23" d="M647.14 960.09L636.83 958.92L649.06 953.59L647.14 960.09Z" />
	<path id="Layer" class="shp23" d="M861.77 1002.04L875.49 1004.38L859.42 1015.78L861.77 1002.04Z" />
	<path id="Layer" class="shp23" d="M1199.93 1056.45L1219.41 1049.85L1193.33 1036.86L1199.93 1056.45Z" />
	<path id="Layer" class="shp23" d="M1400.94 959.34L1407.43 958.17L1399.77 952.95L1400.94 959.34Z" />
	<path id="Layer" class="shp23" d="M341.12 1008.75L336.43 995.66L328.13 1013.43L341.12 1008.75Z" />
	<path id="Layer" class="shp23" d="M523.82 1029.73L504.03 1024.08L529.46 1009.81L523.82 1029.73Z" />
	<path id="Layer" class="shp23" d="M671.62 995.43L681.09 996.82L670.13 1004.92L671.62 995.43Z" />
	<path id="Layer" class="shp23" d="M67.97 1011.3L67.75 1025.14L81.79 1011.41L67.97 1011.3Z" />
	<path id="Layer" class="shp23" d="M243.43 1055.38L243.12 1069.22L236.41 1069.22L222.79 1054.96L243.43 1055.38Z" />
	<path id="Layer" class="shp23" d="M203.63 994.9L201.08 988.83L209.7 992.35L203.63 994.9Z" />
	<path id="Layer" class="shp23" d="M156.5 1043.13L143.3 1043.03L156.6 1029.93L156.5 1043.13Z" />
	<path id="Layer" class="shp23" d="M412.19 974.99L405.6 974.89L412.19 968.39L412.19 974.99Z" />
	<path id="Layer" class="shp23" d="M295.99 967.75L289.5 967.75L296.1 961.26L295.99 967.75Z" />
	<path id="Layer" class="shp23" d="M43.27 969.67L36.79 968.5L44.45 963.17L43.27 969.67Z" />
	<path id="Layer" class="shp23" d="M458.69 1020.57L452.2 1019.29L459.87 1014.08L458.69 1020.57Z" />
	<path id="Layer" class="shp23" d="M426.88 1046.23L413.15 1048.57L429.22 1059.97L426.88 1046.23Z" />
	<path id="Layer" class="shp23" d="M29.23 1056.55L24.23 1036.43L49.23 1051.66L29.23 1056.55Z" />
	<path id="Layer" class="shp24" d="M89.25 1069.22L182.03 631.29L274.72 1069.22L89.25 1069.22Z" />
	<path id="Layer" class="shp25" d="M183.21 1069.22L183.21 636.93L274.72 1069.22L183.21 1069.22Z" />
	<path id="Layer" class="shp24" d="M238.64 1069.22L328.56 704.44L418.58 1069.22L238.64 1069.22Z" />
	<path id="Layer" class="shp25" d="M329.73 1069.22L329.73 708.81L418.58 1069.22L329.73 1069.22Z" />
	<path id="Layer" class="shp24" d="M460.29 1069.22L528.82 791.32L597.34 1069.22L460.29 1069.22Z" />
	<path id="Layer" class="shp25" d="M529.67 1069.22L529.67 794.84L597.34 1069.22L529.67 1069.22Z" />
	<path id="Layer" class="shp24" d="M557.33 1069.22L604.58 877.57L651.93 1069.22L557.33 1069.22Z" />
	<path id="Layer" class="shp25" d="M605.54 1069.22L605.54 881.19L651.93 1069.22L605.54 1069.22Z" />
	<path id="Layer" class="shp24" d="M668.85 1069.22L700.46 941.03L732.06 1069.22L668.85 1069.22Z" />
	<path id="Layer" class="shp25" d="M701.31 1069.22L701.31 944.54L732.06 1069.22L701.31 1069.22Z" />
	<path id="Layer" class="shp26" d="M354.94 520.34L282.27 542.81L323.77 564.21L351.23 521.41L354.94 520.34Z" />
	<path id="Layer" class="shp26" d="M536.8 495.43L473.06 493.3L439.86 510.55L483.07 516.08L536.8 495.43Z" />
	<path id="Layer" class="shp26" d="M516.57 559.25L415.6 582.98L510.09 599.92L516.57 559.25Z" />
</svg>