<svg xmlns="http://www.w3.org/2000/svg" xmlns:xlink="http://www.w3.org/1999/xlink" viewBox="0 0 1417.33 708.66"><defs><style>.cls-1{fill:url(#linear-gradient);}.cls-2{opacity:0.8;fill:url(#linear-gradient-2);}.cls-10,.cls-11,.cls-12,.cls-13,.cls-14,.cls-3,.cls-40,.cls-41,.cls-42,.cls-8{fill:#fff;}.cls-21,.cls-3{opacity:0.2;}.cls-4{fill:url(#linear-gradient-3);}.cls-5{fill:url(#linear-gradient-4);}.cls-6{fill:url(#linear-gradient-5);}.cls-7{fill:url(#linear-gradient-6);}.cls-8{opacity:0.05;}.cls-41,.cls-9{opacity:0.5;}.cls-10{opacity:0.13;}.cls-11{opacity:0.11;}.cls-12{opacity:0.1;}.cls-13{opacity:0.15;}.cls-14{opacity:0.12;}.cls-15{fill:#d0ec85;}.cls-16{fill:#d8ef9c;}.cls-17{fill:#b3d963;}.cls-18{opacity:0.3;}.cls-19{fill:#ea6a5e;}.cls-20{fill:#c9544f;}.cls-22{fill:#dd5f5f;}.cls-23{fill:#7f5739;}.cls-24{fill:#6b462d;}.cls-25{fill:#ffffc7;}.cls-26{fill:#6d482f;}.cls-27{fill:#c0e55c;}.cls-28{fill:#9fcf3b;}.cls-29{fill:#aad451;}.cls-30{fill:#9dce37;}.cls-31{fill:#acd555;}.cls-32{fill:#587c1c;}.cls-33{fill:#4e6419;}.cls-34{fill:#537216;}.cls-35{fill:#597d1f;}.cls-36{fill:#6a8a35;}.cls-37{fill:#3e5605;}.cls-38{fill:#f3ff70;}.cls-39{fill:#465d0f;}.cls-40{opacity:0.4;}.cls-42{opacity:0.6;}</style><linearGradient id="linear-gradient" x1="-922.08" y1="277" x2="-922.08" y2="-3.11" gradientTransform="matrix(-1, 0, 0, 1, -213.42, 0)" gradientUnits="userSpaceOnUse"><stop offset="0" stop-color="#def1f7"/><stop offset="0.15" stop-color="#d9eff7"/><stop offset="0.33" stop-color="#cceaf8"/><stop offset="0.51" stop-color="#b5e1f9"/><stop offset="0.7" stop-color="#95d5fb"/><stop offset="0.89" stop-color="#6dc5fe"/><stop offset="1" stop-color="#54bbff"/></linearGradient><linearGradient id="linear-gradient-2" x1="-683" y1="561.6" x2="-683" y2="85.75" gradientTransform="matrix(-1, 0, 0, 1, 25.66, 0)" gradientUnits="userSpaceOnUse"><stop offset="0" stop-color="#8fbae7"/><stop offset="1" stop-color="#66ace3"/></linearGradient><linearGradient id="linear-gradient-3" x1="-478.16" y1="562.19" x2="-478.16" y2="137.02" gradientTransform="matrix(-1, 0, 0, 1, 25.66, 0)" gradientUnits="userSpaceOnUse"><stop offset="0" stop-color="#6599c4"/><stop offset="1" stop-color="#66ace3"/></linearGradient><linearGradient id="linear-gradient-4" x1="1995.59" y1="559.65" x2="1995.59" y2="72.07" gradientTransform="translate(-1147.58)" gradientUnits="userSpaceOnUse"><stop offset="0" stop-color="#3a75a7"/><stop offset="1" stop-color="#7dafe3"/></linearGradient><linearGradient id="linear-gradient-5" x1="1783.85" y1="556.46" x2="1783.85" y2="31.88" gradientTransform="translate(-1147.58)" gradientUnits="userSpaceOnUse"><stop offset="0" stop-color="#3a75a7"/><stop offset="1" stop-color="#9ac1e9"/></linearGradient><linearGradient id="linear-gradient-6" x1="2080.76" y1="562.97" x2="2080.76" y2="77.99" gradientTransform="translate(-1147.58)" gradientUnits="userSpaceOnUse"><stop offset="0" stop-color="#3a75a7"/><stop offset="1" stop-color="#638db0"/></linearGradient></defs><g id="Warstwa_2" data-name="Warstwa 2"><g id="Ńëîé_1" data-name="Ńëîé 1"><rect class="cls-1" width="1417.32" height="708.66"/><polygon class="cls-2" points="1417.33 558.26 912.35 363.53 739.92 218.4 615.01 178.09 512.1 69.49 362 192.61 345.9 178.9 177.09 211.58 114.62 241.47 37.75 267.25 0 283.39 0 283.39 0 347.79 0.55 557.74 0.55 557.74 0 483.87 1417.33 558.26"/><polygon class="cls-3" points="512.1 69.49 512.1 158.5 402.95 219.54 369.78 224.14 390.08 209.81 243.08 222.14 114.62 241.47 177.09 211.58 345.9 178.9 362 192.61 512.1 69.49"/><polygon class="cls-4" points="1005.76 558.26 1007.64 212.19 890.69 171.14 865.45 142.16 819.39 73.42 794.34 60.55 656.32 164.88 641.25 150.92 480.68 205.24 399.59 243.6 312.9 290.04 189.35 309.41 84.55 345.56 0.55 333.6 0 369.93 0.49 548.99 0.55 456.52 0.55 557.74 1005.76 558.26"/><polygon class="cls-3" points="794.34 60.55 794.34 151.19 669.49 226.52 680.1 203.43 581.86 208.46 399.59 243.6 480.68 205.24 641.25 150.92 656.32 164.88 794.34 60.55"/><polygon class="cls-5" points="955.46 241.24 1106.75 215.24 1417.33 0.33 1417.33 558.26 278.69 558.26 607.41 397.36 788.16 389.42 955.46 241.24"/><polygon class="cls-6" points="443.34 271.63 493.11 311.32 596.97 298.82 705.57 335.71 808.74 253.11 874.83 236.41 1140.45 22.37 1194.99 34.05 1272.54 100.52 1106.75 215.24 955.46 241.24 788.16 389.42 607.41 397.36 278.69 558.26 0 511 0 450.19 152.43 424.56 356.84 303 443.34 271.63"/><polygon class="cls-7" points="671.94 438.38 1055.13 363.45 1326.99 110.36 1417.33 162.85 1417.33 558.26 449.03 558.26 671.94 438.38"/><polygon class="cls-8" points="1140.45 22.37 1022.92 117.08 874.83 236.41 1085.34 115.59 1063.52 162.85 1130.82 117.37 1140.45 22.37"/><polygon class="cls-3" points="1055.13 363.45 1326.99 110.36 1242.28 261.82 1226.23 241.31 1062.1 402.86 997.24 412.88 1020.75 392.85 683.59 436.1 1055.13 363.45"/><polygon class="cls-3" points="845.86 338.32 955.46 241.24 1106.75 215.24 993.05 263.38 1036.52 264.72 967.64 285.45 845.86 338.32"/><polygon class="cls-3" points="0.55 524.81 100.27 494.11 71.51 520.74 203.86 470.1 364.43 377.74 443.34 271.63 356.84 303 152.43 424.56 0 450.19 0.55 524.81"/><polygon class="cls-3" points="278.69 558.26 598.93 437.93 582.88 433.02 607.41 397.36 278.69 558.26"/><g class="cls-9"><polygon class="cls-10" points="1191.95 212.19 532.86 206.02 0 55.79 0 511 1297.97 284.74 405.38 283.33 1191.95 212.19"/><polygon class="cls-11" points="1417.32 386.88 1417.32 0 872.17 101.78 207.67 47.56 548.09 150.45 1417.32 386.88"/><g class="cls-9"><polygon class="cls-12" points="1417.32 14.41 887.99 16.75 623.7 33.07 247.79 25.08 650.19 51.73 942.09 33.07 1417.32 43.18 1417.32 14.41"/><polygon class="cls-13" points="0 215.59 248.7 230.61 415.33 228.91 223.35 247.84 0 245.96 0 215.59"/><polygon class="cls-12" points="1417.32 276.73 1089.54 317.41 756.61 340.52 426.93 351.98 750.5 367.42 1114.44 369.93 1417.32 323.79 1417.32 276.73"/><polygon class="cls-14" points="0 34.08 294.74 52.5 654.69 43.49 1220.45 50.35 625 57.22 248.63 63.41 0 69.39 0 34.08"/><polygon class="cls-3" points="0 328.18 0 347.79 733.18 346.83 0 328.18"/><polygon class="cls-14" points="1417.32 162.85 1417.32 188.58 536.33 191 1417.32 162.85"/></g></g><polygon class="cls-15" points="0 450.19 187 429.35 363 462.1 591 438.28 793 497.82 998.82 419.56 1100.32 415.9 1283 453.17 1417.32 431.95 1417.32 708.66 0 708.66 0 450.19"/><polygon class="cls-16" points="0 503.91 176.83 478.24 353.32 505.75 470.32 505.75 516.32 467.85 523.99 466.32 528.32 493.52 516.66 512.47 521.32 521.64 551.66 501.47 617.82 468.16 644.32 474.57 699.32 515.83 474.32 579.09 0 571.76 0 503.91"/><polygon class="cls-17" points="450 564.11 653 488 886.93 466.2 1166 474.57 1171 682.99 450 682.99 450 564.11"/><polygon class="cls-18" points="839.13 493.83 794.74 495.83 891.13 521.51 926.53 516 839.13 493.83"/><polygon class="cls-19" points="795.86 465.31 778.47 464.08 778.46 464.95 778.47 465.78 778.51 492.24 782.3 493.08 788.79 494.51 794.74 495.83 795.86 465.31"/><polygon class="cls-20" points="838.92 462.85 794.66 466.02 794.67 467.58 794.74 495.83 839.13 493.83 838.98 468.78 838.92 462.85"/><polygon class="cls-21" points="838.92 462.85 794.66 466.02 794.67 467.58 820.72 467.02 831.86 468.73 838.98 468.78 838.92 462.85"/><polygon class="cls-22" points="777.33 463.75 781.36 452.75 786.08 442.72 787.35 444.58 792.56 453.48 794.66 466.02 780.46 465.02 777.59 464.92 777.33 463.75"/><polygon class="cls-23" points="788.45 494.3 783.62 493.26 782.93 493.09 782.93 473.36 784.57 473.52 788.45 473.92 788.45 494.3"/><polygon class="cls-21" points="784.57 473.52 782.93 473.36 782.93 493.09 783.62 493.26 783.35 479.92 783.31 477.62 783.78 474.25 784.57 473.52"/><polygon class="cls-23" points="788.11 458.87 785.11 458.68 784.42 458.64 784.37 454.16 786.03 454.2 788.09 454.18 788.11 458.87"/><polygon class="cls-21" points="786.03 454.2 784.37 454.16 784.42 458.64 785.11 458.68 784.91 458.28 784.65 455.67 785.02 454.38 786.03 454.2"/><polygon class="cls-24" points="776.91 463.51 777.54 465.08 778.47 465.78 778.46 464.95 777.95 463.44 781.65 452.89 787.08 444.14 785.61 441.5 780.28 452.55 776.91 463.51"/><polygon class="cls-23" points="831.11 441.79 785.61 441.5 786.86 445.07 791.58 453.97 793.98 466.54 795.03 466.97 839.98 465.68 840.58 464.95 836.96 451.75 832.44 442.73 831.11 441.79"/><polygon class="cls-25" points="812.61 474.88 803.87 475.14 803.77 483.87 811.63 483.62 812.51 483.61 812.61 474.88"/><polygon class="cls-21" points="812.61 474.88 810.68 474.94 811.83 475.72 812.14 477.63 812.16 483.07 811.63 483.62 812.51 483.61 812.61 474.88"/><polygon class="cls-25" points="831.7 473.82 829.55 473.88 822.96 474.08 822.86 482.81 830.29 482.59 831.6 482.56 831.7 473.82"/><polygon class="cls-21" points="831.7 473.82 829.55 473.88 830.55 474.82 831.2 476 831.22 482.2 830.29 482.59 831.6 482.56 831.7 473.82"/><rect class="cls-23" x="809.25" y="439.36" width="3.51" height="5.13"/><polygon class="cls-26" points="788.79 494.51 782.3 493.08 782.3 492.86 782.43 492.77 788.63 494.12 788.79 494.27 788.79 494.51"/><polygon class="cls-27" points="961.52 532.39 810.77 510.39 704.57 507.12 651.07 509.87 611.89 524.49 600.82 529.58 605.07 536.92 639.07 542.42 645.32 551.13 539.29 594.28 700.53 597.03 961.52 532.39"/><polygon class="cls-28" points="0 557.89 67 538.75 249 527.76 385 527.76 637 566.23 835 629.43 1089 708.66 0 708.66 0 557.89"/><polygon class="cls-29" points="13.84 636.3 24.33 634.93 16.31 572.64 8.5 555.47 0.55 557.74 5.21 572.64 13.84 636.3"/><polygon class="cls-29" points="34.54 633.71 45.12 632.33 37.24 569 28.74 549.68 21.14 551.86 26.21 568.98 34.54 633.71"/><polygon class="cls-29" points="55.86 631.42 66.54 630.04 58.8 565.67 49.48 543.76 42.29 545.81 47.85 565.63 55.86 631.42"/><polygon class="cls-29" points="77.76 629.44 88.53 628.07 80.94 562.65 71.02 538.51 67 538.75 63.98 539.61 70.06 562.59 77.76 629.44"/><polygon class="cls-29" points="100.19 627.78 111.06 626.41 103.6 559.95 94.57 537.08 87.26 537.52 92.8 559.87 100.19 627.78"/><polygon class="cls-29" points="123.11 626.43 134.07 625.06 126.75 557.56 118.44 535.64 111.07 536.09 116.02 557.45 123.11 626.43"/><polygon class="cls-29" points="146.46 625.4 157.51 624.02 150.33 555.48 142.6 534.18 135.22 534.63 139.68 555.36 146.46 625.4"/><polygon class="cls-29" points="170.19 624.68 181.34 623.3 174.3 553.71 167.01 532.71 159.67 533.15 163.73 553.57 170.19 624.68"/><polygon class="cls-29" points="194.26 624.27 205.5 622.89 198.61 552.26 191.66 531.22 184.4 531.66 188.11 552.1 194.26 624.27"/><polygon class="cls-29" points="218.63 624.17 229.96 622.8 223.21 551.13 216.5 529.72 209.36 530.15 212.79 550.94 218.63 624.17"/><polygon class="cls-29" points="243.23 624.39 254.66 623.02 248.05 550.3 241.51 528.21 234.53 528.63 237.71 550.1 243.23 624.39"/><polygon class="cls-29" points="268.03 624.93 279.56 623.55 273.08 549.79 266.95 527.76 259.96 527.76 262.81 549.57 268.03 624.93"/><polygon class="cls-29" points="292.98 625.78 304.6 624.4 298.27 549.6 292.58 527.76 285.63 527.76 288.07 549.36 292.98 625.78"/><polygon class="cls-29" points="318.02 626.94 329.74 625.57 323.55 549.72 318.24 527.76 311.35 527.76 313.43 549.46 318.02 626.94"/><polygon class="cls-29" points="343.12 628.42 354.93 627.05 348.88 550.16 343.89 527.76 337.11 527.76 338.84 549.87 343.12 628.42"/><polygon class="cls-29" points="368.22 630.22 380.12 628.84 374.21 550.91 369.5 527.76 362.87 527.76 364.25 550.6 368.22 630.22"/><polygon class="cls-29" points="393.27 632.32 405.27 630.95 399.5 551.98 395.34 529.33 388.62 528.31 389.61 551.65 393.27 632.32"/><polygon class="cls-29" points="418.23 634.86 430.32 633.49 424.69 553.48 421.4 533.31 414.37 532.24 414.88 553.13 418.23 634.86"/><polygon class="cls-29" points="443.06 637.72 455.24 636.35 449.75 555.29 447.17 537.25 439.89 536.14 440.01 554.92 443.06 637.72"/><polygon class="cls-29" points="467.86 640.89 480.14 639.52 474.79 557.42 472.81 541.16 465.33 540.02 465.13 557.03 467.86 640.89"/><polygon class="cls-29" points="492.52 644.38 504.89 643.01 499.68 559.86 498.2 545.04 490.58 543.88 490.1 559.45 492.52 644.38"/><polygon class="cls-29" points="516.9 648.19 529.36 646.81 524.29 562.63 523.22 548.86 515.5 547.68 514.79 562.2 516.9 648.19"/><polygon class="cls-29" points="540.94 652.31 553.5 650.93 548.57 565.71 547.84 552.62 540.08 551.43 539.14 565.25 540.94 652.31"/><polygon class="cls-29" points="564.6 656.75 577.25 655.37 572.47 569.1 572.05 556.31 564.29 555.13 563.11 568.63 564.6 656.75"/><polygon class="cls-29" points="587.83 661.5 600.58 660.13 595.93 572.82 595.82 559.94 588.1 558.76 586.66 572.32 587.83 661.5"/><polygon class="cls-29" points="610.59 666.58 623.43 665.2 618.92 576.85 619.13 563.5 611.48 562.33 609.72 576.33 610.59 666.58"/><polygon class="cls-29" points="632.81 671.97 645.75 670.6 641.38 581.2 641.93 567.8 637 566.23 634.41 565.83 632.26 580.66 632.81 671.97"/><polygon class="cls-29" points="654.47 677.68 667.5 676.3 663.27 585.86 664.01 574.85 656.35 572.41 654.23 585.31 654.47 677.68"/><polygon class="cls-29" points="675.54 683.71 688.67 682.33 684.58 590.85 685.43 581.69 677.65 579.21 675.61 590.27 675.54 683.71"/><polygon class="cls-30" points="1417.32 475.59 1257.07 487.9 1118 460.36 922.71 500.5 761 550.09 573 639.82 814 708.66 1417.32 708.66 1417.32 475.59"/><polygon class="cls-31" points="1417.32 493.89 1354.32 522.25 1291.32 493.83 1275.99 497.51 1239 542.02 1123.51 499.39 1103.26 517.27 1126.51 565.4 980.32 601.1 980.27 708.66 1417.32 708.66 1417.32 493.89"/><polygon class="cls-32" points="0 600.25 84.63 607.62 257.25 589.19 407.78 602.09 554.31 635.26 839.32 708.66 0 708.66 0 600.25"/><polygon class="cls-33" points="581.22 642.19 630.04 654.76 585.63 689.19 575.88 708.66 522.45 708.66 548.75 673.29 581.22 642.19"/><polygon class="cls-34" points="438.32 668.6 442.98 660.82 477.57 617.89 525.05 628.64 491.41 665.36 482.12 675.49 468.8 708.66 414.36 708.66 420.63 698.18 438.32 668.6"/><polygon class="cls-34" points="333.45 655.03 337.2 646.96 366.2 598.53 407.78 602.09 414.65 603.64 385.95 648.86 378.61 660.41 365.05 703.75 363.33 708.66 308.61 708.66 319.22 685.76 333.45 655.03"/><polygon class="cls-34" points="227.92 653.66 230.75 645.29 254.01 589.53 257.25 589.19 301.26 592.96 279.83 644.54 274.43 657.53 263.8 703.14 263 708.66 209.33 708.66 217.15 685.53 227.92 653.66"/><polygon class="cls-34" points="122 659.49 123.93 650.82 136.42 602.09 185.44 596.86 173.33 647.43 169.87 661.85 162.34 708.66 111.11 708.66 114.69 692.5 122 659.49"/><polygon class="cls-34" points="23.42 602.29 71.19 606.45 66.82 652.18 61.44 708.66 11.4 708.66 16.09 667.19 23.42 602.29"/><polygon class="cls-35" points="1417.32 536.08 1203.25 592.63 987.98 571.42 876.71 585.56 448.56 708.66 1417.32 708.66 1417.32 536.08"/><polygon class="cls-36" points="734.95 667.24 785.02 621.33 806.01 605.89 768.18 616.76 724.36 665.8 734.95 667.24"/><polygon class="cls-36" points="802.73 679.26 814.31 679.38 864.12 621.71 906.57 581.77 882.56 584.81 845.58 618.87 802.73 679.26"/><polygon class="cls-36" points="881.1 692.15 893.67 690.96 943.22 621.52 987 571.55 964.1 574.46 922.9 620.51 881.1 692.15"/><polygon class="cls-36" points="959.48 704.93 973.02 702.43 1022.32 621.22 1054.64 577.99 1035.31 576.09 1000.22 622.03 959.48 704.93"/><polygon class="cls-36" points="1124.98 584.92 1104.71 582.92 1077.54 623.58 1041.67 708.66 1055.15 708.66 1101.42 620.94 1124.98 584.92"/><polygon class="cls-36" points="1197.37 592.05 1176 589.94 1154.85 625.43 1124.35 708.66 1139.68 708.66 1180.52 620.97 1197.37 592.05"/><polygon class="cls-36" points="1286.28 570.7 1258.95 577.91 1232.17 627.63 1206.07 708.66 1223.25 708.66 1259.61 621.33 1286.28 570.7"/><polygon class="cls-36" points="1374.46 547.4 1346.45 554.8 1309.49 629.83 1286.98 708.66 1306 708.66 1338.71 621.7 1374.46 547.4"/><polygon class="cls-36" points="1417.32 564.91 1386.81 632.02 1367.27 708.66 1388.13 708.66 1417.32 623.49 1417.32 564.91"/><polygon class="cls-37" points="977.8 650.5 725.77 653.25 551.76 603.74 480.11 599.67 389.74 609.24 278.37 650.66 184.22 708.66 1383 708.66 977.8 650.5"/><polygon class="cls-38" points="558.7 641.55 560.27 636.65 563.73 638.81 561.18 641.74 558.7 641.55"/><polygon class="cls-38" points="545.34 635.83 546.43 633.23 548.01 635.43 546.87 637.54 545.34 635.83"/><polygon class="cls-38" points="570.13 639.59 571.4 635.66 574.16 637.39 572.12 639.74 570.13 639.59"/><polygon class="cls-38" points="569.06 681.46 569.61 677.52 572.83 679.53 571.07 683.71 569.06 681.46"/><polygon class="cls-38" points="597.02 667.11 597.45 664.08 599.92 665.62 598.57 668.83 597.02 667.11"/><polygon class="cls-38" points="586.9 682.23 587.28 679.5 589.51 680.89 588.29 683.78 586.9 682.23"/><polygon class="cls-38" points="581.04 678.78 582.15 676.12 583.77 678.37 582.61 680.52 581.04 678.78"/><polygon class="cls-38" points="581.05 680.28 581.8 678.49 582.88 680 582.1 681.44 581.05 680.28"/><polygon class="cls-38" points="592.8 686.62 593.29 683.16 596.12 684.92 594.57 688.59 592.8 686.62"/><polygon class="cls-38" points="591.01 645.32 592.17 641.71 594.72 643.29 592.84 645.45 591.01 645.32"/><polygon class="cls-38" points="577.23 680.27 577.63 677.43 579.95 678.88 578.68 681.89 577.23 680.27"/><polygon class="cls-38" points="597.46 682.8 598.58 679.29 601.06 680.84 599.23 682.94 597.46 682.8"/><polygon class="cls-38" points="562.37 643.87 563.83 640.37 565.96 643.33 564.43 646.16 562.37 643.87"/><polygon class="cls-38" points="665.6 658.5 666.63 656.95 668.32 658.53 667.23 659.76 665.6 658.5"/><polygon class="cls-38" points="644.34 691.28 645.59 689.42 647.62 691.33 646.3 692.8 644.34 691.28"/><polygon class="cls-38" points="613.73 661.39 614.07 659.5 616.65 660.75 615.37 662.65 613.73 661.39"/><polygon class="cls-38" points="615 634.45 616.37 631.66 619.75 633.3 617.39 634.81 615 634.45"/><polygon class="cls-38" points="646.11 692.43 647.04 690.54 649.34 691.65 647.73 692.68 646.11 692.43"/><polygon class="cls-38" points="621.98 698.18 622.3 696.38 624.77 697.58 623.55 699.39 621.98 698.18"/><polygon class="cls-38" points="632.39 656.33 633.41 654.81 635.07 656.36 633.99 657.56 632.39 656.33"/><polygon class="cls-38" points="670.4 676.19 671.57 673.82 674.46 675.22 672.45 676.5 670.4 676.19"/><polygon class="cls-38" points="659.05 694.17 659.46 691.87 662.61 693.4 661.04 695.72 659.05 694.17"/><polygon class="cls-38" points="660.53 652.47 661.89 650.43 664.12 652.51 662.67 654.13 660.53 652.47"/><polygon class="cls-39" points="230.06 708.66 329.06 672.66 380.8 638.28 443.05 667.16 491.8 636.91 517 642.05 518.79 665.78 508.8 686.96 498.55 708.66 230.06 708.66"/><polygon class="cls-39" points="701.03 674.04 678.5 651.52 683.67 645.11 729.67 668.33 882.52 671.29 1178.76 708.66 658.5 708.66 700 686.36 701.03 674.04"/><polygon class="cls-38" points="994.57 535.97 993.84 538.17 991.92 537.59 992.76 535.68 994.57 535.97"/><polygon class="cls-38" points="981.03 534.66 981.05 537.23 977.73 537.6 978.83 534.31 981.03 534.66"/><polygon class="cls-38" points="998.42 524.06 997.75 526.09 995.97 525.56 996.75 523.79 998.42 524.06"/><polygon class="cls-38" points="999.11 540.23 998.57 542.63 996.21 542.89 997.54 540.94 999.11 540.23"/><polygon class="cls-38" points="1004.56 512.22 1004.01 514.63 1001.64 514.89 1002.98 512.94 1004.56 512.22"/><polygon class="cls-38" points="997.5 553.04 997.51 554.01 996.26 554.14 996.67 552.92 997.5 553.04"/><polygon class="cls-38" points="1014.68 529.71 1014.24 531.66 1012.32 531.88 1013.4 530.29 1014.68 529.71"/><polygon class="cls-38" points="1025.02 533.83 1024.57 535.79 1022.65 536 1023.74 534.42 1025.02 533.83"/><polygon class="cls-38" points="1011.77 546.82 1011.32 548.77 1009.4 548.99 1010.49 547.4 1011.77 546.82"/><polygon class="cls-38" points="1031.27 518.55 1030.82 520.51 1028.9 520.72 1029.99 519.13 1031.27 518.55"/><polygon class="cls-38" points="1047.1 521.46 1046.66 523.41 1044.74 523.62 1045.82 522.04 1047.1 521.46"/><polygon class="cls-38" points="1039.18 496.09 1038.74 498.04 1036.82 498.26 1037.9 496.67 1039.18 496.09"/><polygon class="cls-38" points="1041.24 536.56 1040.91 538.02 1039.47 538.18 1040.28 537 1041.24 536.56"/><polygon class="cls-38" points="1060.09 538.58 1059.75 540.11 1058.24 540.28 1059.09 539.03 1060.09 538.58"/><polygon class="cls-38" points="1050.53 512.43 1050.21 513.84 1048.82 514 1049.6 512.85 1050.53 512.43"/><polygon class="cls-38" points="1054.09 527.58 1053.8 528.83 1052.57 528.97 1053.26 527.96 1054.09 527.58"/><polygon class="cls-38" points="1060.9 517.81 1060.65 518.92 1059.57 519.04 1060.18 518.14 1060.9 517.81"/><polygon class="cls-38" points="1003.18 534.94 1002.86 536.33 1001.49 536.48 1002.27 535.35 1003.18 534.94"/><polygon class="cls-38" points="987.1 522.45 986.32 524.81 984.24 524.2 985.15 522.14 987.1 522.45"/><polygon class="cls-38" points="995.52 495.82 995.53 497.95 992.77 498.25 993.68 495.53 995.52 495.82"/><polygon class="cls-38" points="1014.86 508.86 1014.88 510.77 1012.4 511.05 1013.22 508.6 1014.86 508.86"/><polygon class="cls-38" points="1025.76 495.71 1025.14 498.44 1022.47 498.73 1023.98 496.52 1025.76 495.71"/><polygon class="cls-38" points="1005.9 497.86 1005.11 501.35 1001.68 501.73 1003.62 498.9 1005.9 497.86"/><polygon class="cls-38" points="1032.21 498.03 1032.23 499.75 1030 500 1030.74 497.8 1032.21 498.03"/><polygon class="cls-38" points="1022.96 500.27 1022.97 502.21 1020.46 502.49 1021.29 500 1022.96 500.27"/><polygon class="cls-38" points="1032.38 491.13 1032.4 493.12 1029.83 493.4 1030.68 490.87 1032.38 491.13"/><polygon class="cls-38" points="1012.12 509.64 1011.61 511.9 1009.39 512.14 1010.64 510.31 1012.12 509.64"/><polygon class="cls-38" points="1022.03 513.11 1022.04 515.26 1019.26 515.56 1020.18 512.81 1022.03 513.11"/><polygon class="cls-38" points="1013.49 501.16 1013.51 503.31 1010.73 503.61 1011.64 500.87 1013.49 501.16"/><polygon class="cls-38" points="1003.09 511.83 1002.4 513.92 1000.56 513.37 1001.37 511.55 1003.09 511.83"/><polygon class="cls-38" points="979.17 530.88 979.18 532.04 977.68 532.21 978.18 530.72 979.17 530.88"/><polygon class="cls-38" points="963.83 513 963.84 514.16 962.34 514.33 962.83 512.84 963.83 513"/><polygon class="cls-38" points="948.64 528.13 948.65 529.29 947.15 529.46 947.64 527.97 948.64 528.13"/><polygon class="cls-38" points="956.96 538.1 956.96 539.26 955.46 539.43 955.96 537.94 956.96 538.1"/><polygon class="cls-38" points="964.68 554.92 964.68 556.08 963.18 556.24 963.68 554.76 964.68 554.92"/><polygon class="cls-38" points="929.35 561.63 929.36 562.62 928.07 562.76 928.5 561.49 929.35 561.63"/><polygon class="cls-38" points="941.03 547.63 941.04 548.97 939.31 549.16 939.88 547.45 941.03 547.63"/><polygon class="cls-38" points="916.18 521.97 916.18 522.63 915.33 522.72 915.61 521.88 916.18 521.97"/><polygon class="cls-38" points="912.98 563.83 912.98 564.67 911.9 564.79 912.26 563.72 912.98 563.83"/><polygon class="cls-38" points="919.44 543.3 919.45 544.46 917.95 544.62 918.44 543.14 919.44 543.3"/><polygon class="cls-38" points="976.49 508.81 976.5 510.44 974.39 510.68 975.09 508.59 976.49 508.81"/><polygon class="cls-38" points="967.02 524.49 967.02 525.19 966.12 525.29 966.42 524.39 967.02 524.49"/><polygon class="cls-38" points="993.96 511.63 993.37 513.41 991.8 512.95 992.49 511.4 993.96 511.63"/><polygon class="cls-38" points="1009.42 519.91 1008.61 522.34 1006.48 521.71 1007.42 519.59 1009.42 519.91"/><polygon class="cls-38" points="986.09 501.59 986.1 503.15 984.08 503.37 984.75 501.38 986.09 501.59"/><path class="cls-40" d="M1412.87,546.67a21.46,21.46,0,0,0-12.45,4,11.07,11.07,0,0,0-18.87,7.86,11.24,11.24,0,0,0,.39,2.92,14,14,0,0,0-8.51,5.1,42,42,0,0,0-48.87-13,13.93,13.93,0,0,0-26.56,2.24,21.43,21.43,0,0,0-3.78-.34,22.05,22.05,0,0,0-22,22c0,.1,0,.19,0,.29h-.3a13.93,13.93,0,0,0-13.34,9.9,28.43,28.43,0,0,0-27.86,3.28c-1.09,0-2.19-.08-3.29-.08a64.22,64.22,0,0,0-36,11,20.93,20.93,0,0,0-41.34,4.61c0,.73,0,1.44.11,2.15-.65,0-1.3-.06-2-.06a34.51,34.51,0,0,0-32.54,23,30,30,0,0,0-34.94,12.22,41.7,41.7,0,0,0-12.62-7,13.68,13.68,0,0,0,.2-2.31,13.93,13.93,0,1,0-27.86,0v.13a20.94,20.94,0,0,0-31.85-6.22,13.95,13.95,0,0,0-22.69,5.27A80.88,80.88,0,0,0,951.73,626c-2.47,0-4.91.12-7.32.34A34.5,34.5,0,0,0,877,621.53,64.5,64.5,0,0,0,863,616a20.7,20.7,0,0,0,2.89-10.59A20.93,20.93,0,0,0,824.78,600a13.94,13.94,0,0,0-17.71,13.41,14.12,14.12,0,0,0,.56,3.92,64.58,64.58,0,0,0-65.49,5.33,34.5,34.5,0,0,0-68.36,4.28,41.87,41.87,0,0,0-14.39-2.53c-.49,0-1,0-1.46,0v0a13.93,13.93,0,0,0-27.12-4.49,20.93,20.93,0,0,0-30.72,17.67,64.57,64.57,0,0,0-72.59,26.28,81.2,81.2,0,0,0-21.9-12.52,34.51,34.51,0,0,0-52.07-42,20.93,20.93,0,0,0-36.11,10.22A41.94,41.94,0,0,0,380,654.4q-2.32.52-4.59,1.23a34.5,34.5,0,0,0-56.16-16.43,20.93,20.93,0,0,0-32.43,24.62,64.59,64.59,0,0,0-36.41,29.36,64.55,64.55,0,0,0-89.72-25.51,34.15,34.15,0,0,0-2.48-6.83A13.93,13.93,0,1,0,140,643.9a34.64,34.64,0,0,0-6.89-1.94,20.94,20.94,0,0,0-8.38-26.57A12.89,12.89,0,0,0,103.86,601a20.35,20.35,0,0,0-22.81.59,34.5,34.5,0,0,0-63.86,11.64,64.87,64.87,0,0,0-7.81-.47,66,66,0,0,0-9.38.68v95.18H1417.32V547.13A21.74,21.74,0,0,0,1412.87,546.67Z"/><path class="cls-41" d="M1404.88,615.51a23.51,23.51,0,0,0-22.48,16.61,120.57,120.57,0,0,0-68.63-9.4,45.53,45.53,0,0,0-82.62,3,46,46,0,0,0-10.76-3.27c0-.4,0-.79,0-1.2a23.51,23.51,0,0,0-46.05-6.68,45.52,45.52,0,0,0-70.43,14.86,46.51,46.51,0,0,0-63.86,12.41,46.53,46.53,0,0,0-70,22.68c-1.92.63-3.83,1.29-5.72,2A81.76,81.76,0,0,0,839.82,646a120.93,120.93,0,0,0-17.91-18.83,23.51,23.51,0,0,0-14-42.39l-1.2,0a45.51,45.51,0,0,0-88.31,15.47c0,.45,0,.89,0,1.33a118.77,118.77,0,0,0-19.5,6.11,31.49,31.49,0,0,0-60.1,12.43,63.84,63.84,0,0,0-70,53.67,40.48,40.48,0,0,0-71.06,26.54c0,.17,0,.33,0,.5-1.06,0-2.12-.07-3.19-.07a81.47,81.47,0,0,0-23.77,3.52,46.52,46.52,0,0,0-86.95-15l-.53-.13a46.52,46.52,0,0,0-62.19-43.62A23.51,23.51,0,0,0,278,651.65a46.75,46.75,0,0,0-9.17-2.36c0-.34,0-.68,0-1a46.49,46.49,0,0,0-74.07-37.45,23.5,23.5,0,0,0-43.26,15.39,81.35,81.35,0,0,0-40.79,16.14A120.21,120.21,0,0,0,0,636.58v72.08H1417.32V619.07A23.35,23.35,0,0,0,1404.88,615.51Z"/><path class="cls-42" d="M1378.38,566.25a37.24,37.24,0,0,0-32,41.82c.13,1,.3,1.91.5,2.85a45.2,45.2,0,0,0-9.29,5,22.51,22.51,0,0,0-4.42-5.33,15,15,0,1,0-24.28-3.7,22.67,22.67,0,0,0-12.24,13.79,69.7,69.7,0,0,0-88-3.78,15,15,0,0,0-28.26-9.37,36.5,36.5,0,0,0-5-1.84,37.23,37.23,0,0,0-39.66,58.79,69.56,69.56,0,0,0-7.74,8.76,37.06,37.06,0,0,0-13.63-1.44A45.3,45.3,0,0,0,1076,651.62a17,17,0,0,0-33.08-7.72,22.65,22.65,0,0,0-18,2.37,37.24,37.24,0,1,0-62.3,40.8,87.67,87.67,0,0,0-21.3,17,69.7,69.7,0,0,0-81.75-16.13,22.58,22.58,0,0,0-35.67-13.8,15,15,0,0,0-28.18,9.23v0c-.52.07-1,.12-1.56.2a45.15,45.15,0,0,0-14.94,5.07,37.22,37.22,0,0,0-55.52-24.11,48.07,48.07,0,0,0-.49-5.31,45.25,45.25,0,0,0-51.61-37.84,44.67,44.67,0,0,0-8.23,2.07,15,15,0,0,0-10.61-4.38,15.28,15.28,0,0,0-4.08.56,22.59,22.59,0,1,0-41.3,17.28,68.93,68.93,0,0,0-15.09,6,37.23,37.23,0,0,0-72.72,5.22c-2.6-.23-5.23-.36-7.89-.36a87.39,87.39,0,0,0-36.91,8.12,15,15,0,0,0-24.47-5.68,22.59,22.59,0,0,0-34.38,6.71v-.15a15,15,0,1,0-30.06,0,14.71,14.71,0,0,0,.21,2.5,45.47,45.47,0,0,0-5.82,2.49,45.23,45.23,0,0,0-70.78,13.06,23.77,23.77,0,0,0-30.15,7.33A15,15,0,0,0,257.2,700.5a45,45,0,0,0-9.46,5.29,30.73,30.73,0,0,0-32.61-5.62,15.05,15.05,0,0,0-14.4-10.68h-.33c0-.1,0-.2,0-.3a23.8,23.8,0,0,0-27.87-23.44,15,15,0,0,0-28.67-2.41,45.26,45.26,0,0,0-52.74,14.07,15,15,0,0,0-9.18-5.5,12.09,12.09,0,0,0,.42-3.15A11.94,11.94,0,0,0,62,660.28a23.27,23.27,0,0,0-35.8,25.45,86.53,86.53,0,0,0-16.4,4.5A37.41,37.41,0,0,0,0,674.55v34.11H1417.32V588A37.24,37.24,0,0,0,1378.38,566.25Z"/></g></g></svg>