<svg xmlns="http://www.w3.org/2000/svg" viewBox="0 0 1920 1282" width="1920" height="1282"><defs><linearGradient id="grd1" gradientUnits="userSpaceOnUse"  x1="3490.185" y1="854.649" x2="3472.325" y2="64.342"><stop offset="0" stop-color="#ffec0b"  /><stop offset="1" stop-color="#79009f"  /></linearGradient><linearGradient id="grd2" gradientUnits="userSpaceOnUse"  x1="3519.118" y1="853.997" x2="3501.258" y2="63.69"><stop offset="0" stop-color="#ffef27"  /><stop offset="1" stop-color="#912ea1"  /></linearGradient><linearGradient id="grd3" gradientUnits="userSpaceOnUse"  x1="3514.81" y1="854.095" x2="3496.95" y2="63.788"><stop offset="0" stop-color="#fff23e"  /><stop offset="1" stop-color="#a554a2"  /></linearGradient><linearGradient id="grd4" gradientUnits="userSpaceOnUse"  x1="3504.011" y1="854.336" x2="3486.151" y2="64.029"><stop offset="0" stop-color="#fff44d"  /><stop offset="1" stop-color="#b26ca3"  /></linearGradient><linearGradient id="grd5" gradientUnits="userSpaceOnUse"  x1="3342.846" y1="857.978" x2="3324.986" y2="67.671"><stop offset="0" stop-color="#fff556"  /><stop offset="1" stop-color="#ba7ba4"  /></linearGradient><linearGradient id="grd6" gradientUnits="userSpaceOnUse"  x1="3218.154" y1="860.795" x2="3200.294" y2="70.488"><stop offset="0" stop-color="#fff768"  /><stop offset="1" stop-color="#c693a8"  /></linearGradient></defs><style>tspan { white-space:pre }.shp0 { fill: url(#grd1) } .shp1 { fill: #ffdba9 } .shp2 { fill: #8ac689 } .shp3 { fill: url(#grd2) } .shp4 { fill: url(#grd3) } .shp5 { fill: url(#grd4) } .shp6 { fill: url(#grd5) } .shp7 { fill: url(#grd6) } .shp8 { fill: #a136c0 } .shp9 { fill: #ad3ecb } .shp10 { fill: #a12db8 } .shp11 { fill: #6a4b85 } .shp12 { fill: #614579 } .shp13 { fill: #745690 } .shp14 { fill: #54406a } .shp15 { fill: #56436a } .shp16 { fill: #3f1a5d } .shp17 { fill: #48246a } .shp18 { fill: #341a51 } .shp19 { fill: #2c1a3e } .shp20 { fill: #301646 } .shp21 { fill: #ffac1c } .shp22 { fill: #747406 } .shp23 { fill: #93930b } .shp24 { fill: #f4d020 } .shp25 { fill: #4b5c03 } .shp26 { fill: #3b4600 } .shp27 { fill: #c980de } .shp28 { fill: #bc62d6 } </style><path class="shp0" d="M654.81 0.77L635.35 0.77L552.36 0.77L0.92 0.77L0.92 1.43L0.92 1281.3L1918.06 1281.3L476.25 1281.3C404.08 1128.49 363.64 957.67 363.64 777.54C363.64 480.19 473.45 208.46 654.81 0.77Z" /><path class="shp1" d="M1229.3 0.77L1218.69 0.77L1229.3 0.77Z" /><path class="shp2" d="M781.73 0.77L726.27 0.77L781.73 0.77Z" /><path class="shp2" d="M877.76 0.77L841.06 0.77L877.76 0.77Z" /><path class="shp3" d="M1918.06 0.77L1229.3 0.77L1218.69 0.77L877.76 0.77L841.06 0.77L781.73 0.77L726.27 0.77L654.81 0.77C473.45 208.46 363.64 480.19 363.64 777.54C363.64 957.67 404.08 1128.49 476.25 1281.3L1918.06 1281.3L1066.48 1281.3C933.34 1154.78 850.19 975.76 850.19 777.54C850.19 393.68 1161.27 82.67 1544.89 82.67C1682.27 82.67 1810.3 122.45 1918.06 191.35L1918.06 0.77Z" /><path class="shp4" d="M1544.89 82.67C1161.27 82.67 850.19 393.68 850.19 777.54C850.19 975.76 933.34 1154.78 1066.48 1281.3L1918.06 1281.3L1918.06 885.6C1871.24 1047.62 1721.93 1166.01 1544.89 1166.01C1330.37 1166.01 1156.54 992.1 1156.54 777.54C1156.54 562.95 1330.37 388.95 1544.89 388.95C1721.93 388.95 1871.24 507.33 1918.06 669.36L1918.06 191.35C1810.3 122.45 1682.27 82.67 1544.89 82.67Z" /><path fill-rule="evenodd" class="shp5" d="M1918.06 669.36L1918.06 885.6C1871.24 1047.62 1721.93 1166.01 1544.89 1166.01C1330.37 1166.01 1156.54 992.1 1156.54 777.54C1156.54 562.95 1330.37 388.95 1544.89 388.95C1721.93 388.95 1871.24 507.33 1918.06 669.36ZM1756.61 777.54C1756.61 660.56 1661.86 565.66 1544.89 565.66C1427.92 565.66 1333.17 660.56 1333.17 777.54C1333.17 894.4 1427.92 989.3 1544.89 989.3C1661.86 989.3 1756.61 894.4 1756.61 777.54Z" /><path fill-rule="evenodd" class="shp6" d="M1756.61 777.54C1756.61 894.4 1661.86 989.3 1544.89 989.3C1427.92 989.3 1333.17 894.4 1333.17 777.54C1333.17 660.56 1427.92 565.66 1544.89 565.66C1661.86 565.66 1756.61 660.56 1756.61 777.54ZM1633.39 777.54C1633.39 728.55 1593.73 688.98 1544.89 688.98C1496.06 688.98 1456.39 728.55 1456.39 777.54C1456.39 826.41 1496.06 865.94 1544.89 865.94C1593.73 865.94 1633.39 826.41 1633.39 777.54Z" /><path class="shp7" d="M1544.89 688.98C1496.06 688.98 1456.39 728.55 1456.39 777.54C1456.39 826.41 1496.06 865.94 1544.89 865.94C1593.73 865.94 1633.39 826.41 1633.39 777.54C1633.39 728.55 1593.73 688.98 1544.89 688.98Z" /><path class="shp8" d="M0.92 1180.66L1918.06 1180.66L1918.06 845.28L1736.83 777.28L1522.7 782.64L1373.86 736.84L1203.21 761.08L1148.76 734.16L999.92 736.84L647.79 593.96L567.95 591.28L495.25 629.05L426.38 623.69L339.28 650.6L235.33 652.39L180.87 684.66L23.37 744.88L0.92 749.21L0.92 1180.66Z" /><path class="shp9" d="M106.52 713.11L23.37 744.88L0.92 749.21L0.92 883.42L70.55 887L106.52 713.11Z" /><path class="shp10" d="M631.97 862.12L325.88 871.69L304.97 803.56L496.02 702.01L613.1 673.56L914.85 858.55L759.89 928.58L631.97 862.12Z" /><path class="shp9" d="M498.44 701.37L613.1 673.56L618.2 676.62L616.67 681.73L604.04 795.01L498.44 701.37Z" /><path class="shp9" d="M1918.06 875L1918.06 845.28L1736.83 777.28L1838.61 864.16C1848.81 864.16 1859.52 863.14 1869.34 865.43C1885.8 869.39 1902.12 872.71 1918.06 875ZM1519 781.49L1379.47 738.5L1460.2 854.47L1519 781.49Z" /><path class="shp9" d="M1366.34 737.86L1203.21 761.08L1171.71 745.52L1249.89 854.59L1366.34 737.86Z" /><path class="shp10" d="M1317.49 873.72L1145.83 862.25L1148.24 734.16L1148.76 734.16L1165.08 742.2L1317.49 873.72Z" /><path class="shp9" d="M1003.88 736.72L1020.33 865.43L1150.54 734.93L1148.76 734.16L1003.88 736.72Z" /><path class="shp9" d="M225 658.39L102.18 714.77L303.82 808.67L225 658.39Z" /><path class="shp9" d="M421.92 625.09L339.28 650.6L303.82 808.67L421.92 625.09Z" /><path class="shp9" d="M644.35 593.84L567.95 591.28L564.89 592.94L616.67 681.73L644.35 593.84Z" /><path class="shp9" d="M504.82 624.07L495.25 629.05L426.38 623.69L496.4 701.37L504.82 624.07Z" /><path class="shp11" d="M0.92 1281.32L1918.06 1281.32L1918.06 886.36L1738.49 877.18L1544.89 839.16L1381.9 877.18L1127.07 894.9L933.48 844.25L765.38 874.63L530.33 818.62L305.1 888.15L149.88 876.53L0.92 914.93L0.92 1281.32Z" /><path class="shp12" d="M307.65 887.38L355.34 1024.51L374.35 866.84L307.65 887.38Z" /><path class="shp11" d="M706.84 860.72L530.33 818.62L529.82 818.87L547.17 917.23L713.86 911.87C713.86 895.67 711.43 878.19 706.84 860.72Z" /><path class="shp13" d="M1723.06 1119.81L1740.67 877.3L1918.06 886.36L1723.06 1119.81Z" /><path class="shp13" d="M306.12 887.89L246.56 1010.74L155.88 877.04L305.1 888.15L306.12 887.89Z" /><path class="shp12" d="M1544.89 839.16L1381.9 877.18L1374.37 877.68L1458.16 1085.37L1544.89 839.16Z" /><path class="shp14" d="M1528.95 842.47L1515.81 1077.59L1716.81 1018.64L1702.91 1007.8L1543.23 839.16L1528.95 842.47Z" /><path class="shp13" d="M1394.9 1055.77L1515.81 1077.59L1539.02 840.17L1520.4 844.51L1394.9 1055.77Z" /><path class="shp14" d="M777.62 1028.86L776.6 1042.63L526.89 1020.18L688.48 912.13L777.62 1028.86Z" /><path class="shp12" d="M929.65 844.9L1068.54 1052.71L1172.73 933.43L1127.07 894.9L933.48 844.25L929.65 844.9Z" /><path class="shp15" d="M1167.12 939.93L1172.73 933.43L1127.07 894.9L1121.59 893.5L1103.61 993.64L1167.12 939.93Z" /><path class="shp12" d="M1327.69 1079.37L1169.42 1055.14L1172.73 933.43L1327.69 1079.37Z" /><path class="shp13" d="M1171.84 932.67L976.07 1107.82L1172.99 1194.06L1171.84 932.67Z" /><path class="shp13" d="M928.12 845.15L778.39 872.32L959.49 1050.03L928.12 845.15Z" /><path class="shp12" d="M779.28 872.07L765.38 874.63L539.38 820.79L688.48 912.13L764.23 1021.58L779.28 872.07Z" /><path class="shp13" d="M765.38 874.63L539.38 820.79L688.48 912.13L765.38 874.63Z" /><path class="shp13" d="M560.94 1012.27L533.13 819.26L530.33 818.62L519.87 821.93L448.06 1019.8L560.94 1012.27Z" /><path class="shp11" d="M524.08 820.66L501.5 827.55L340.8 994.79L467.71 1008.94L524.08 820.66Z" /><path class="shp14" d="M516.56 1047.22L477.4 1078.22L321.68 1000.02L458.14 943.89L462.22 943.12L514 989.31L516.56 1047.22Z" /><path class="shp13" d="M466.3 1021.33L459.54 938.41L323.08 994.53L349.99 1008.06L466.3 1021.33Z" /><path class="shp16" d="M0.92 990.07L214.42 958.05L403.56 991.73L699.19 1007.42L923.78 962.52L1118.92 989.44L1391.59 939.93L1653.04 1001.42L1833.25 991.22L1918.06 1007.8L1918.06 1236.29L0.92 1236.29L0.92 990.07Z" /><path class="shp17" d="M7.68 1206.3L0.92 1135.25L0.92 1200.18L7.68 1206.3Z" /><path class="shp17" d="M1651.89 1001.17L1721.02 1109.86L1826.24 991.6L1653.04 1001.42L1651.89 1001.17Z" /><path class="shp18" d="M190.31 961.62L214.42 958.05L403.56 991.73L412.35 992.11L315.04 1175.95L190.31 961.62Z" /><path class="shp19" d="M232.91 960.99L248.21 1169.06L14.95 1116.88L31.02 1107.31L216.33 958.05L232.91 960.99Z" /><path class="shp17" d="M388.5 1149.66L248.21 1169.06L221.3 958.95L242.85 962.77L388.5 1149.66Z" /><path class="shp19" d="M1049.15 1120.84L1105.9 1138.19L1373.22 1084.6L1208.19 1022.61L1049.15 1120.84Z" /><path class="shp18" d="M552.13 1159.48L696.38 1134.23L693.45 1007.04L552.13 1159.48Z" /><path class="shp17" d="M697.15 1009.34L875.57 1192.27L788.21 1236.29L696.25 1236.29L697.15 1009.34Z" /><path class="shp17" d="M930.16 963.41L1103.74 987.39L893.68 1144.56L930.16 963.41Z" /><path class="shp18" d="M1102.84 987.27L1118.92 989.44L1381.26 941.85L1208.19 1022.61L1120.31 1119.43L1102.84 987.27Z" /><path class="shp17" d="M1356.13 1111.27L1388.53 940.45L1391.59 939.93L1403.83 942.87L1487.11 1117.9L1356.13 1111.27Z" /><path class="shp16" d="M1398.98 941.72L1425.13 947.85L1611.59 1095.7L1464.42 1108.33L1398.98 941.72Z" /><path class="shp20" d="M1586.21 1107.95L1518.87 1022.21L1744.48 1090.47L1586.21 1107.95Z" /><path class="shp18" d="M1398.98 941.72L1425.13 947.85L1514.28 1018.64L1459.82 1096.6L1398.98 941.72Z" /><path class="shp16" d="M1518.36 1021.84L1464.42 1108.33L1360.72 1087.16L1431.64 1028.09L1518.36 1021.84Z" /><path class="shp20" d="M1518.36 1021.84L1471.55 1096.85L1435.08 1027.83L1518.36 1021.84Z" /><path class="shp21" d="M536.58 1177.09L537.08 1184.11L529.56 1177.6L536.58 1177.09Z" /><path class="shp22" d="M0.92 1281.32L1918.06 1281.32L1918.06 1107.82L0.92 1107.82L0.92 1281.32Z" /><path class="shp23" d="M0.92 1107.44L1918.06 1107.44L1918.06 1064.95C1737.85 1074.14 1496.68 1082.56 1408.17 1082.56C1426.41 1082.56 1054.51 1068.15 1068.54 1064.83L723.04 1078.73L0.92 1054.11L0.92 1107.44Z" /><path class="shp24" d="M1101.44 1186.91L1107.06 1171.22L1117 1192.52L1101.44 1186.91Z" /><path class="shp24" d="M951.71 1245.09L987.55 1235.01L941.64 1209.24L951.71 1245.09Z" /><path class="shp24" d="M706.58 1202.09L682.1 1205.92L710.42 1226.59L706.58 1202.09Z" /><path class="shp24" d="M1401.02 1183.35L1401.16 1199.92L1384.32 1183.47L1401.02 1183.35Z" /><path class="shp24" d="M1213.92 1258.48L1214.31 1281.19L1225.28 1281.19L1247.73 1257.84L1213.92 1258.48Z" /><path class="shp24" d="M1688.12 1225.95L1686.46 1201.21L1663.37 1227.48L1688.12 1225.95Z" /><path class="shp24" d="M1872.02 1208.34L1896.5 1204.78L1868.45 1183.86L1872.02 1208.34Z" /><path class="shp24" d="M1755.83 1173.52L1763.62 1172.37L1754.69 1165.74L1755.83 1173.52Z" /><path class="shp24" d="M1602.92 1177.98L1604.45 1170.2L1595.14 1176.46L1602.92 1177.98Z" /><path class="shp24" d="M1266.22 1170.34L1269.28 1163.06L1258.95 1167.4L1266.22 1170.34Z" /><path class="shp24" d="M1534.3 1221.74L1548.97 1221.61L1534.18 1206.94L1534.3 1221.74Z" /><path class="shp24" d="M1319.53 1219.32L1329.86 1231.31L1331.39 1208.99L1319.53 1219.32Z" /><path class="shp24" d="M989.33 1142.52L997.25 1142.4L989.33 1134.61L989.33 1142.52Z" /><path class="shp24" d="M1155.52 1137.93L1163.3 1137.8L1155.39 1130.15L1155.52 1137.93Z" /><path class="shp24" d="M1458.42 1140.22L1466.2 1138.69L1457.02 1132.44L1458.42 1140.22Z" /><path class="shp24" d="M776.47 1139.08L764.1 1137.67L778.77 1131.3L776.47 1139.08Z" /><path class="shp24" d="M1033.72 1189.34L1050.17 1192.15L1030.92 1205.8L1033.72 1189.34Z" /><path class="shp24" d="M1439.03 1254.52L1462.37 1246.62L1431.12 1231.06L1439.03 1254.52Z" /><path class="shp24" d="M1679.95 1138.19L1687.73 1136.78L1678.54 1130.53L1679.95 1138.19Z" /><path class="shp24" d="M409.67 1197.38L404.06 1181.69L394.12 1202.99L409.67 1197.38Z" /><path class="shp24" d="M628.66 1222.51L604.94 1215.74L635.42 1198.65L628.66 1222.51Z" /><path class="shp24" d="M805.81 1181.43L817.16 1183.08L804.02 1192.78L805.81 1181.43Z" /><path class="shp24" d="M82.29 1200.44L82.03 1217.02L98.87 1200.57L82.29 1200.44Z" /><path class="shp24" d="M292.6 1253.26L292.21 1269.83L284.18 1269.83L267.85 1252.74L292.6 1253.26Z" /><path class="shp24" d="M244.9 1180.8L241.84 1173.52L252.17 1177.74L244.9 1180.8Z" /><path class="shp24" d="M188.4 1238.58L172.58 1238.46L188.52 1222.76L188.4 1238.58Z" /><path class="shp24" d="M494.87 1156.94L486.96 1156.81L494.87 1149.03L494.87 1156.94Z" /><path class="shp24" d="M355.6 1148.26L347.82 1148.26L355.73 1140.48L355.6 1148.26Z" /><path class="shp24" d="M52.7 1150.56L44.92 1149.15L54.1 1142.78L52.7 1150.56Z" /><path class="shp24" d="M550.6 1211.54L542.83 1210.01L552.01 1203.75L550.6 1211.54Z" /><path class="shp24" d="M512.47 1242.28L496.02 1245.09L515.28 1258.74L512.47 1242.28Z" /><path class="shp24" d="M35.86 1254.66L29.87 1230.54L59.84 1248.79L35.86 1254.66Z" /><path class="shp25" d="M107.79 1281.32L219.01 756.62L330.09 1281.32L107.79 1281.32Z" /><path class="shp26" d="M220.41 1281.32L220.41 763.37L330.09 1281.32L220.41 1281.32Z" /><path class="shp25" d="M286.85 1281.32L394.62 844.25L502.52 1281.32L286.85 1281.32Z" /><path class="shp26" d="M396.03 1281.32L396.03 849.49L502.52 1281.32L396.03 1281.32Z" /><path class="shp25" d="M552.52 1281.32L634.65 948.36L716.79 1281.32L552.52 1281.32Z" /><path class="shp26" d="M635.67 1281.32L635.67 952.56L716.79 1281.32L635.67 1281.32Z" /><path class="shp25" d="M668.83 1281.32L725.46 1051.69L782.21 1281.32L668.83 1281.32Z" /><path class="shp26" d="M726.6 1281.32L726.6 1056.02L782.21 1281.32L726.6 1281.32Z" /><path class="shp25" d="M802.49 1281.32L840.37 1127.73L878.25 1281.32L802.49 1281.32Z" /><path class="shp26" d="M841.39 1281.32L841.39 1131.94L878.25 1281.32L841.39 1281.32Z" /><path class="shp27" d="M425.74 624.32L338.64 651.24L388.25 676.88L421.28 625.73L425.74 624.32Z" /><path class="shp27" d="M643.71 594.47L567.31 591.92L527.4 612.72L579.3 619.22L643.71 594.47Z" /><path class="shp28" d="M619.34 672.93L498.44 701.37L611.7 721.79L619.34 672.93Z" /></svg>