<svg xmlns="http://www.w3.org/2000/svg" viewBox="0 0 1920 1288" width="1920" height="1288"><defs><linearGradient id="grd1" gradientUnits="userSpaceOnUse"  x1="3490.633" y1="856.774" x2="3472.766" y2="66.153"><stop offset="0" stop-color="#ffec0b"  /><stop offset="1" stop-color="#79009f"  /></linearGradient><linearGradient id="grd2" gradientUnits="userSpaceOnUse"  x1="3519.57" y1="858.408" x2="3501.703" y2="67.787"><stop offset="0" stop-color="#ffef27"  /><stop offset="1" stop-color="#912ea1"  /></linearGradient><linearGradient id="grd3" gradientUnits="userSpaceOnUse"  x1="3515.261" y1="856.221" x2="3497.394" y2="65.599"><stop offset="0" stop-color="#fff23e"  /><stop offset="1" stop-color="#a554a2"  /></linearGradient><linearGradient id="grd4" gradientUnits="userSpaceOnUse"  x1="3504.461" y1="856.462" x2="3486.594" y2="65.84"><stop offset="0" stop-color="#fff44d"  /><stop offset="1" stop-color="#b26ca3"  /></linearGradient><linearGradient id="grd5" gradientUnits="userSpaceOnUse"  x1="3343.277" y1="860.105" x2="3325.41" y2="69.484"><stop offset="0" stop-color="#fff556"  /><stop offset="1" stop-color="#ba7ba4"  /></linearGradient><linearGradient id="grd6" gradientUnits="userSpaceOnUse"  x1="3218.571" y1="862.923" x2="3200.704" y2="72.301"><stop offset="0" stop-color="#fff768"  /><stop offset="1" stop-color="#c693a8"  /></linearGradient></defs><style>tspan { white-space:pre }.shp0 { fill: url(#grd1) } .shp1 { fill: #ffdba9 } .shp2 { fill: #8ac689 } .shp3 { fill: url(#grd2) } .shp4 { fill: url(#grd3) } .shp5 { fill: url(#grd4) } .shp6 { fill: url(#grd5) } .shp7 { fill: url(#grd6) } .shp8 { fill: #a136c0 } .shp9 { fill: #ad3ecb } .shp10 { fill: #a12db8 } .shp11 { fill: #6a4b85 } .shp12 { fill: #614579 } .shp13 { fill: #745690 } .shp14 { fill: #54406a } .shp15 { fill: #56436a } .shp16 { fill: #3f1a5d } .shp17 { fill: #48246a } .shp18 { fill: #341a51 } .shp19 { fill: #2c1a3e } .shp20 { fill: #301646 } .shp21 { fill: #ffac1c } .shp22 { fill: #747406 } .shp23 { fill: #93930b } .shp24 { fill: #f4d020 } .shp25 { fill: #4b5c03 } .shp26 { fill: #3b4600 } .shp27 { fill: #c980de } .shp28 { fill: #bc62d6 } </style><path class="shp0" d="M654.92 2.56L635.46 2.56L552.47 2.56L0.97 2.56L0.97 3.22L0.97 1283.6L1918.32 1283.6L476.35 1283.6C404.17 1130.73 363.72 959.83 363.72 779.64C363.72 482.16 473.55 210.33 654.92 2.56Z" /><path class="shp1" d="M1229.48 2.56L1218.88 2.56L1229.48 2.56Z" /><path class="shp2" d="M781.87 2.56L726.4 2.56L781.87 2.56Z" /><path class="shp2" d="M877.91 2.56L841.2 2.56L877.91 2.56Z" /><path class="shp3" d="M1918.32 4.84L1229.48 4.84L1218.88 4.84L877.91 4.84L841.2 4.84L781.87 4.84L726.4 4.84L654.92 4.84C473.55 212.61 363.72 484.45 363.72 781.92C363.72 962.12 404.17 1133.01 476.35 1285.89L1918.32 1285.89L1066.65 1285.89C933.49 1159.31 850.34 980.22 850.34 781.92C850.34 397.91 1161.45 86.77 1545.11 86.77C1682.5 86.77 1810.56 126.57 1918.32 195.49L1918.32 4.84Z" /><path class="shp4" d="M1545.11 84.49C1161.45 84.49 850.34 395.62 850.34 779.64C850.34 977.94 933.49 1157.02 1066.65 1283.6L1918.32 1283.6L1918.32 887.74C1871.5 1049.83 1722.17 1168.26 1545.11 1168.26C1330.57 1168.26 1156.72 994.28 1156.72 779.64C1156.72 564.96 1330.57 390.89 1545.11 390.89C1722.17 390.89 1871.5 509.32 1918.32 671.41L1918.32 193.21C1810.56 124.28 1682.5 84.49 1545.11 84.49Z" /><path fill-rule="evenodd" class="shp5" d="M1918.32 671.41L1918.32 887.74C1871.5 1049.83 1722.17 1168.26 1545.11 1168.26C1330.57 1168.26 1156.72 994.28 1156.72 779.64C1156.72 564.96 1330.57 390.89 1545.11 390.89C1722.17 390.89 1871.5 509.32 1918.32 671.41ZM1756.86 779.64C1756.86 662.61 1662.1 567.67 1545.11 567.67C1428.13 567.67 1333.37 662.61 1333.37 779.64C1333.37 896.54 1428.13 991.48 1545.11 991.48C1662.1 991.48 1756.86 896.54 1756.86 779.64Z" /><path fill-rule="evenodd" class="shp6" d="M1756.86 779.64C1756.86 896.54 1662.1 991.48 1545.11 991.48C1428.13 991.48 1333.37 896.54 1333.37 779.64C1333.37 662.61 1428.13 567.67 1545.11 567.67C1662.1 567.67 1756.86 662.61 1756.86 779.64ZM1633.62 779.64C1633.62 730.63 1593.95 691.04 1545.11 691.04C1496.27 691.04 1456.6 730.63 1456.6 779.64C1456.6 828.52 1496.27 868.07 1545.11 868.07C1593.95 868.07 1633.62 828.52 1633.62 779.64Z" /><path class="shp7" d="M1545.11 691.04C1496.27 691.04 1456.6 730.63 1456.6 779.64C1456.6 828.52 1496.27 868.07 1545.11 868.07C1593.95 868.07 1633.62 828.52 1633.62 779.64C1633.62 730.63 1593.95 691.04 1545.11 691.04Z" /><path class="shp8" d="M0.96 1182.92L1918.33 1182.92L1918.33 847.4L1737.07 779.38L1522.91 784.74L1374.06 738.92L1203.4 763.17L1148.94 736.24L1000.08 738.92L647.91 595.98L568.05 593.3L495.35 631.08L426.48 625.72L339.36 652.64L235.4 654.44L180.94 686.72L23.41 746.96L0.96 751.3L0.96 1182.92Z" /><path class="shp9" d="M106.58 715.18L23.41 746.96L0.96 751.3L0.96 885.56L70.6 889.14L106.58 715.18Z" /><path class="shp10" d="M632.09 864.25L325.96 873.82L305.04 805.66L496.12 704.08L613.21 675.62L915 860.67L760.02 930.74L632.09 864.25Z" /><path class="shp9" d="M498.54 703.44L613.21 675.62L618.31 678.68L616.78 683.78L604.16 797.11L498.54 703.44Z" /><path class="shp9" d="M1918.33 877.13L1918.33 847.4L1737.07 779.38L1838.86 866.29C1849.07 866.29 1859.78 865.27 1869.6 867.56C1886.06 871.52 1902.38 874.84 1918.33 877.13ZM1519.22 783.59L1379.68 740.58L1460.41 856.59L1519.22 783.59Z" /><path class="shp9" d="M1366.54 739.94L1203.4 763.17L1171.89 747.6L1250.08 856.72L1366.54 739.94Z" /><path class="shp10" d="M1317.68 875.86L1146 864.37L1148.42 736.24L1148.94 736.24L1165.26 744.28L1317.68 875.86Z" /><path class="shp9" d="M1004.03 738.79L1020.49 867.56L1150.72 737.01L1148.94 736.24L1004.03 738.79Z" /><path class="shp9" d="M225.07 660.44L102.24 716.84L303.9 810.78L225.07 660.44Z" /><path class="shp9" d="M422.01 627.12L339.36 652.64L303.9 810.78L422.01 627.12Z" /><path class="shp9" d="M644.46 595.86L568.05 593.3L565 594.96L616.78 683.78L644.46 595.86Z" /><path class="shp9" d="M504.92 626.1L495.35 631.08L426.48 625.72L496.5 703.44L504.92 626.1Z" /><path class="shp11" d="M0.96 1283.61L1918.33 1283.61L1918.33 888.49L1738.73 879.31L1545.11 841.28L1382.1 879.31L1127.25 897.04L933.63 846.38L765.51 876.76L530.43 820.73L305.17 890.28L149.94 878.67L0.96 917.08L0.96 1283.61Z" /><path class="shp12" d="M307.72 889.52L355.43 1026.71L374.43 868.97L307.72 889.52Z" /><path class="shp11" d="M706.96 862.85L530.43 820.73L529.92 820.98L547.27 919.38L713.98 914.02C713.98 897.81 711.56 880.32 706.96 862.85Z" /><path class="shp13" d="M1723.3 1122.04L1740.91 879.43L1918.33 888.49L1723.3 1122.04Z" /><path class="shp13" d="M306.2 890.03L246.63 1012.93L155.94 879.18L305.17 890.28L306.2 890.03Z" /><path class="shp12" d="M1545.11 841.28L1382.1 879.31L1374.57 879.82L1458.37 1087.58L1545.11 841.28Z" /><path class="shp14" d="M1529.17 844.59L1516.03 1079.8L1717.05 1020.83L1703.15 1009.99L1543.45 841.28L1529.17 844.59Z" /><path class="shp13" d="M1395.11 1057.98L1516.03 1079.8L1539.24 842.29L1520.62 846.63L1395.11 1057.98Z" /><path class="shp14" d="M777.76 1031.05L776.73 1044.83L526.99 1022.37L688.6 914.28L777.76 1031.05Z" /><path class="shp12" d="M929.8 847.02L1068.7 1054.92L1172.91 935.58L1127.25 897.04L933.63 846.38L929.8 847.02Z" /><path class="shp15" d="M1167.29 942.09L1172.91 935.58L1127.25 897.04L1121.76 895.64L1103.78 995.83L1167.29 942.09Z" /><path class="shp12" d="M1327.89 1081.59L1169.59 1057.34L1172.91 935.58L1327.89 1081.59Z" /><path class="shp13" d="M1172.02 934.83L976.22 1110.05L1173.17 1196.32L1172.02 934.83Z" /><path class="shp13" d="M928.27 847.27L778.52 874.46L959.65 1052.23L928.27 847.27Z" /><path class="shp12" d="M779.41 874.2L765.51 876.76L539.49 822.9L688.6 914.28L764.37 1023.78L779.41 874.2Z" /><path class="shp13" d="M765.51 876.76L539.49 822.9L688.6 914.28L765.51 876.76Z" /><path class="shp13" d="M561.05 1014.46L533.24 821.37L530.43 820.73L519.97 824.04L448.16 1021.99L561.05 1014.46Z" /><path class="shp11" d="M524.18 822.77L501.61 829.66L340.89 996.97L467.8 1011.13L524.18 822.77Z" /><path class="shp14" d="M516.66 1049.42L477.5 1080.44L321.76 1002.21L458.23 946.05L462.32 945.29L514.1 991.49L516.66 1049.42Z" /><path class="shp13" d="M466.4 1023.52L459.64 940.57L323.16 996.71L350.07 1010.25L466.4 1023.52Z" /><path class="shp16" d="M0.96 992.25L214.48 960.22L403.65 993.91L699.31 1009.6L923.93 964.69L1119.09 991.61L1391.79 942.09L1653.27 1003.61L1833.5 993.4L1918.33 1009.99L1918.33 1238.56L0.96 1238.56L0.96 992.25Z" /><path class="shp17" d="M7.72 1208.57L0.96 1137.49L0.96 1202.45L7.72 1208.57Z" /><path class="shp17" d="M1652.12 1003.36L1721.26 1112.09L1826.49 993.78L1653.27 1003.61L1652.12 1003.36Z" /><path class="shp18" d="M190.38 963.79L214.48 960.22L403.65 993.91L412.44 994.29L315.12 1178.2L190.38 963.79Z" /><path class="shp19" d="M232.98 963.16L248.29 1171.31L14.99 1119.11L31.06 1109.54L216.4 960.22L232.98 963.16Z" /><path class="shp17" d="M388.59 1151.91L248.29 1171.31L221.37 961.11L242.93 964.94L388.59 1151.91Z" /><path class="shp19" d="M1049.31 1123.07L1106.07 1140.43L1373.42 1086.82L1208.37 1024.8L1049.31 1123.07Z" /><path class="shp18" d="M552.24 1161.73L696.5 1136.47L693.57 1009.23L552.24 1161.73Z" /><path class="shp17" d="M697.27 1011.52L875.72 1194.53L788.34 1238.56L696.38 1238.56L697.27 1011.52Z" /><path class="shp17" d="M930.31 965.58L1103.91 989.57L893.83 1146.8L930.31 965.58Z" /><path class="shp18" d="M1103.01 989.45L1119.09 991.61L1381.46 944.01L1208.37 1024.8L1120.49 1121.66L1103.01 989.45Z" /><path class="shp17" d="M1356.33 1113.5L1388.73 942.61L1391.79 942.09L1404.04 945.03L1487.33 1120.13L1356.33 1113.5Z" /><path class="shp16" d="M1399.19 943.88L1425.34 950.01L1611.82 1097.92L1464.63 1110.56L1399.19 943.88Z" /><path class="shp20" d="M1586.43 1110.18L1519.09 1024.41L1744.73 1092.69L1586.43 1110.18Z" /><path class="shp18" d="M1399.19 943.88L1425.34 950.01L1514.5 1020.83L1460.03 1098.82L1399.19 943.88Z" /><path class="shp16" d="M1518.58 1024.03L1464.63 1110.56L1360.92 1089.38L1431.84 1030.29L1518.58 1024.03Z" /><path class="shp20" d="M1518.58 1024.03L1471.77 1099.07L1435.29 1030.03L1518.58 1024.03Z" /><path class="shp21" d="M536.68 1179.35L537.19 1186.36L529.66 1179.85L536.68 1179.35Z" /><path class="shp22" d="M0.96 1283.61L1918.33 1283.61L1918.33 1110.05L0.96 1110.05L0.96 1283.61Z" /><path class="shp23" d="M0.96 1109.67L1918.33 1109.67L1918.33 1067.16C1738.1 1076.35 1496.89 1084.78 1408.38 1084.78C1426.61 1084.78 1054.68 1070.36 1068.7 1067.04L723.16 1080.95L0.96 1056.32L0.96 1109.67Z" /><path class="shp24" d="M1101.61 1189.17L1107.23 1173.47L1117.17 1194.78L1101.61 1189.17Z" /><path class="shp24" d="M951.86 1247.37L987.7 1237.28L941.79 1211.51L951.86 1247.37Z" /><path class="shp24" d="M706.71 1204.36L682.22 1208.19L710.54 1228.86L706.71 1204.36Z" /><path class="shp24" d="M1401.23 1185.6L1401.36 1202.19L1384.52 1185.72L1401.23 1185.6Z" /><path class="shp24" d="M1214.11 1260.77L1214.49 1283.49L1225.47 1283.49L1247.91 1260.13L1214.11 1260.77Z" /><path class="shp24" d="M1688.35 1228.23L1686.69 1203.47L1663.6 1229.75L1688.35 1228.23Z" /><path class="shp24" d="M1872.28 1210.61L1896.77 1207.04L1868.71 1186.11L1872.28 1210.61Z" /><path class="shp24" d="M1756.08 1175.78L1763.86 1174.62L1754.93 1167.98L1756.08 1175.78Z" /><path class="shp24" d="M1603.14 1180.24L1604.68 1172.45L1595.37 1178.71L1603.14 1180.24Z" /><path class="shp24" d="M1266.41 1172.59L1269.47 1165.31L1259.14 1169.65L1266.41 1172.59Z" /><path class="shp24" d="M1534.52 1224.01L1549.19 1223.88L1534.4 1209.21L1534.52 1224.01Z" /><path class="shp24" d="M1319.73 1221.59L1330.05 1233.59L1331.59 1211.26L1319.73 1221.59Z" /><path class="shp24" d="M989.49 1144.76L997.41 1144.64L989.49 1136.85L989.49 1144.76Z" /><path class="shp24" d="M1155.69 1140.16L1163.48 1140.04L1155.56 1132.38L1155.69 1140.16Z" /><path class="shp24" d="M1458.63 1142.46L1466.41 1140.93L1457.23 1134.68L1458.63 1142.46Z" /><path class="shp24" d="M776.6 1141.31L764.23 1139.91L778.9 1133.53L776.6 1141.31Z" /><path class="shp24" d="M1033.88 1191.6L1050.34 1194.41L1031.08 1208.06L1033.88 1191.6Z" /><path class="shp24" d="M1439.24 1256.81L1462.58 1248.9L1431.33 1233.33L1439.24 1256.81Z" /><path class="shp24" d="M1680.19 1140.43L1687.97 1139.02L1678.78 1132.76L1680.19 1140.43Z" /><path class="shp24" d="M409.76 1199.64L404.15 1183.94L394.2 1205.25L409.76 1199.64Z" /><path class="shp24" d="M628.77 1224.78L605.05 1218.01L635.53 1200.91L628.77 1224.78Z" /><path class="shp24" d="M805.95 1183.68L817.3 1185.34L804.16 1195.04L805.95 1183.68Z" /><path class="shp24" d="M82.34 1202.7L82.08 1219.29L98.92 1202.83L82.34 1202.7Z" /><path class="shp24" d="M292.67 1255.54L292.29 1272.12L284.25 1272.12L267.92 1255.03L292.67 1255.54Z" /><path class="shp24" d="M244.97 1183.05L241.91 1175.78L252.24 1179.99L244.97 1183.05Z" /><path class="shp24" d="M188.46 1240.86L172.65 1240.74L188.59 1225.03L188.46 1240.86Z" /><path class="shp24" d="M494.97 1159.18L487.06 1159.05L494.97 1151.27L494.97 1159.18Z" /><path class="shp24" d="M355.69 1150.5L347.9 1150.5L355.81 1142.72L355.69 1150.5Z" /><path class="shp24" d="M52.75 1152.8L44.97 1151.4L54.15 1145.02L52.75 1152.8Z" /><path class="shp24" d="M550.71 1213.81L542.93 1212.27L552.11 1206.02L550.71 1213.81Z" /><path class="shp24" d="M512.57 1244.56L496.12 1247.37L515.38 1261.03L512.57 1244.56Z" /><path class="shp24" d="M35.91 1256.94L29.92 1232.82L59.89 1251.07L35.91 1256.94Z" /><path class="shp25" d="M107.85 1283.61L219.08 758.7L330.17 1283.61L107.85 1283.61Z" /><path class="shp26" d="M220.48 1283.61L220.48 765.46L330.17 1283.61L220.48 1283.61Z" /><path class="shp25" d="M286.93 1283.61L394.71 846.38L502.62 1283.61L286.93 1283.61Z" /><path class="shp26" d="M396.12 1283.61L396.12 851.62L502.62 1283.61L396.12 1283.61Z" /><path class="shp25" d="M552.63 1283.61L634.77 950.52L716.92 1283.61L552.63 1283.61Z" /><path class="shp26" d="M635.79 1283.61L635.79 954.73L716.92 1283.61L635.79 1283.61Z" /><path class="shp25" d="M668.95 1283.61L725.59 1053.89L782.35 1283.61L668.95 1283.61Z" /><path class="shp26" d="M726.73 1283.61L726.73 1058.23L782.35 1283.61L726.73 1283.61Z" /><path class="shp25" d="M802.63 1283.61L840.51 1129.96L878.39 1283.61L802.63 1283.61Z" /><path class="shp26" d="M841.53 1283.61L841.53 1134.17L878.39 1283.61L841.53 1283.61Z" /><path class="shp27" d="M425.84 626.35L338.72 653.28L388.34 678.94L421.37 627.76L425.84 626.35Z" /><path class="shp27" d="M643.83 596.5L567.42 593.94L527.5 614.75L579.41 621.25L643.83 596.5Z" /><path class="shp28" d="M619.46 674.98L498.54 703.44L611.81 723.86L619.46 674.98Z" /></svg>