<svg xmlns="http://www.w3.org/2000/svg" xmlns:xlink="http://www.w3.org/1999/xlink" viewBox="0 0 1417.32 708.66"><defs><style>.cls-1{fill:url(#radial-gradient);}.cls-12,.cls-13,.cls-2,.cls-3,.cls-5,.cls-6,.cls-7,.cls-8,.cls-9{fill:#fff;}.cls-2{opacity:0.1;}.cls-3{opacity:0.07;}.cls-4{opacity:0.5;}.cls-5{opacity:0.15;}.cls-6{opacity:0.2;}.cls-7{opacity:0.12;}.cls-8{opacity:0.18;}.cls-10{fill:url(#radial-gradient-2);}.cls-11,.cls-12,.cls-16{opacity:0.3;}.cls-13{opacity:0.4;}.cls-14{fill:url(#linear-gradient);}.cls-15,.cls-16{fill:#0f8762;}</style><radialGradient id="radial-gradient" cx="-1599.16" cy="10716.57" r="882.65" gradientTransform="matrix(-1, 0, 0, 0.43, -888.5, -4249.55)" gradientUnits="userSpaceOnUse"><stop offset="0" stop-color="#fdeee1"/><stop offset="0.17" stop-color="#f6ede2"/><stop offset="0.42" stop-color="#e3e9e7"/><stop offset="0.72" stop-color="#c4e3ed"/><stop offset="1" stop-color="#9fdcf5"/></radialGradient><radialGradient id="radial-gradient-2" cx="-1600.16" cy="9532.46" r="555.34" gradientTransform="matrix(-1, 0, 0, 0.46, -888.5, -4017.64)" gradientUnits="userSpaceOnUse"><stop offset="0" stop-color="#fde4ce"/><stop offset="0.16" stop-color="#f7e3d0"/><stop offset="0.38" stop-color="#e6e2d6"/><stop offset="0.63" stop-color="#cbdfe0"/><stop offset="0.89" stop-color="#a5dbee"/><stop offset="1" stop-color="#93d9f5"/></radialGradient><linearGradient id="linear-gradient" x1="-1597.16" y1="707" x2="-1597.16" y2="394.64" gradientTransform="matrix(-1, 0, 0, 1, -888.5, 0)" gradientUnits="userSpaceOnUse"><stop offset="0" stop-color="#189e78"/><stop offset="1" stop-color="#34bf83"/></linearGradient></defs><g id="Warstwa_2" data-name="Warstwa 2"><g id="Ńëîé_1" data-name="Ńëîé 1"><rect class="cls-1" width="1417.32" height="708.66"/><polygon class="cls-2" points="225.37 224.98 884.47 218.44 1417.32 59.15 1417.32 392.63 119.35 301.9 1011.94 300.4 225.37 224.98"/><polygon class="cls-3" points="0 410.19 0 0 545.15 107.91 1209.66 50.43 869.24 159.51 0 410.19"/><g class="cls-4"><polygon class="cls-2" points="0 15.28 529.34 17.76 793.63 35.06 1169.54 26.59 767.13 54.85 475.23 35.06 0 45.78 0 15.28"/><polygon class="cls-5" points="1417.32 228.58 1168.62 244.51 1001.99 242.7 1193.97 262.77 1417.32 260.78 1417.32 228.58"/><polygon class="cls-6" points="0 293.41 182.52 317.42 367.91 331.07 551.49 337.83 371.31 346.95 168.66 348.43 0 321.19 0 293.41"/><polygon class="cls-7" points="1417.32 36.13 1122.59 55.66 762.63 46.11 196.87 53.39 792.33 60.67 1168.7 67.23 1417.32 73.57 1417.32 36.13"/><polygon class="cls-6" points="1417.32 347.96 1417.32 368.75 684.14 367.73 1417.32 347.96"/><polygon class="cls-8" points="0 172.67 0 199.94 410.15 195.67 0 172.67"/></g><circle class="cls-9" cx="708.66" cy="402.09" r="120.76" transform="translate(-76.76 618.87) rotate(-45)"/><rect class="cls-10" y="401" width="1417.32" height="307.66"/><path class="cls-2" d="M66.88,401c1,1.55,23,4.27,13.52,6.74-2.67.69-3.45,1.41-2.86,2.13,1,1.24-9.45,1.94-3.19,3.12,5.52,1,27.49,2.59,33,3.45,23.69,3.72-33.85,2.65,27.63,10.71,9,1.19-18.63,2.18-5.2,3.93,4.83.63,28.09,2.27,33.26,3.41,9.22,2-18.06,2.6-9.58,5.89C160.67,443.17,119,443,130,446c3.25.88,30.28,1.59,39.56,1.62,5.44,0,1.09,2.73,6.89,3.16,6.26.47,25.94-.12,31.16,1.37,10.5,3-24,9.28-7,9.64a132.33,132.33,0,0,1,31.16,5.08c13,4-55.43,6.78-50.4,11.39,6.28,5.73,91.84,9.66,106.6,12,43.19,6.93-74.59,7.94-36.79,15.1,10.9,2.07,30.4,1.63,49.22,2.65,11.24.61,57.12,3.16,85.34,8,23.78,4.1-86.95,9.19-52.69,12.14,28.32,2.43,43.34,5.06,98.27,10.36,195,18.82-95.63,18.06-64.26,26.5,64.26,17.28,145.6.82,208.09,16.69,12.28,3.12-66.69,3.49-50.4,6.24,18.44,3.11,68.22,4.55,87.73,7,16.17,2.07,32,3.91,46.16,5.46H868.82c8.66-1.46,17.31-2.88,25.95-4.14,23.83-3.47,51.35-2.27,72.19-8.22,1.06-.31,1.83-.17,2.35-1.15-10.21-5.65-34.82,2.68-43.83-4.14a4.16,4.16,0,0,1,2.12-.84c60.35-8.36,126.32-7.25,188.81-17.3,4.78-.76,4.19-1.21,1.08-2.76-4.93-2.46-14.45-1.76-19.91-2.2-16.42-1.34-33-2.06-49.3-4.15-3.33-.42-17.82-1.05-15.8-5.85,1.11-2.63,10.92-4,13.27-4.59,13-3.18,26.41-5.18,39.7-7,35-4.73,70.37-8.86,105.64-10.82,3.27-.19,6.79-.25,9.82-1.36-11.93-5.44-31.3-3.74-44.48-5-5.71-.56-16.4,0-21.46-2.82-2.58-1.45-5.06-1.91.15-2.8,34.23-5.84,70.58-6.67,105.52-8.12,17.24-.72,36.58-.27,52.87-2.59,6-.86,6.5-1.83,2.46-4.18-6.18-3.6-19.82-2.69-26.87-3.35-8.64-.81-19.44-.33-27.68-3-7.59-2.47-3.91-3.32,3-4.32,16.66-2.39,33.77-2.85,50.57-4.55,6.52-.66,32.93-4.18,32.25-6.93-.73-2.95-22.34-4.85-31-5.85-6.06-.69-29.74-3.65-29.22-5.36s13.86-4.33,21.1-4.86a8.75,8.75,0,0,0,3.31-.5c-5.33-3.34-26.69-7.46-25.71-8.86,1.26-1.81,19.11-.63,28.32-1.26,4.85-.34-3.1-3,2.14-3.05,11.67,0,31.22,2.1,35.8-1.46,1.55-1.2-28.49-2.64-29.37-5.55-1-3.22-19.18-4.45-17.33-5.76,4.65-3.29,21.6-2.55,31.75-3.25a9.06,9.06,0,0,0,3.12-.73c-4.15-1.84-9.55-1.46-14.14-2.6.22-.52.86-.55,1.52-.52,6.66.31,21.63-.88,28.52-5.62-3.28-2.09-8.14-1.61-11.46-3.37a19.09,19.09,0,0,1,6.07-1.43c12.05-.9,38.75-1.73,50.65-3.34,7-1-12.41-1.44-8.19-4.21.76-.49,11.15-2.42,7.32-2.48-53.12-.86,36.93-7.25,36.93-7.25V708.66H0V401Z"/><g class="cls-11"><path class="cls-9" d="M894,485.94c10.67,0,19.39-2.41,19.39-5.35s8.73-5.34,19.39-5.34h11.34c10.66,0,19.39-2.41,19.39-5.35s-6.61-5.35-14.68-5.35-14.67-2.4-14.67-5.34-8.73-5.35-19.39-5.35H854.11c-10.66,0-19.39-2.4-19.39-5.34s5.13-5.35,11.4-5.35,11.4-2.4,11.4-5.34-5.43-5.35-12.07-5.35-30-2.4-30-5.34a5.47,5.47,0,0,1,5.54-5.35,5.45,5.45,0,0,0,5.54-5.34c0-2.94,4.3-5.35,9.55-5.35s9.55-2.25,9.55-5-8.73-5-19.39-5H591.31c-10.66,0-19.39,2.26-19.39,5s-4.3,5-9.55,5-9.55,2.41-9.55,5.35,24.25,5.09,24.25,10.69c0,7.78,15.25,6.65,12.07,10.4-11.7-.62-42.6-2.65-42.6.29s-12.83,5.34-19.1,5.34-11.4,2.41-11.4,5.35,8.73,5.34,19.39,5.34h-1.91c10.67,0,19.39,2.41,19.39,5.35s6.6,5.34,14.68,5.34,14.67,2.41,14.67,5.35-8.73,5.35-19.39,5.35H551.54c-10.67,0-19.39,2.4-19.39,5.34s-8.73,5.35-19.39,5.35H490.44c-10.67,0-19.39,2.4-19.39,5.34s8.72,5.35,19.39,5.35h14c10.67,0,19.39,2.4,19.39,5.34s8.73,5.35,19.39,5.35h7.88c10.67,0,19.39,2.4,19.39,5.34S561.76,518,551.09,518H470.47c-10.67,0-19.39,2.4-19.39,5.34s-8.73,5.35-19.39,5.35h-8.25c-10.66,0-19.39,2.4-19.39,5.34s8.73,5.35,19.39,5.35h23.47c10.67,0,19.39,2.4,19.39,5.34s-5.05,5.35-11.22,5.35-11.23,2.4-11.23,5.34-8.72,5.35-19.39,5.35H405.05c-10.66,0-19.39,2.4-19.39,5.34s3.31,5.35,7.35,5.35,7.35,2.4,7.35,5.34,8.73,5.35,19.39,5.35h12.16c10.67,0,19.39,2.4,19.39,5.34s-8.72,5.35-19.39,5.35h-.23c-10.66,0-19.39,2.4-19.39,5.34s-8.72,5.35-19.39,5.35H319.28c-10.66,0-19.38,2.4-19.38,5.34s8.72,5.35,19.38,5.35h56.26c10.67,0,19.39,2.7,19.39,6s8.73,6,19.39,6H990c10.66,0,19.39-2.7,19.39-6s-8.73-6-19.39-6H968.38c-10.67,0-19.39-2.41-19.39-5.35s8.72-5.34,19.39-5.34h39c10.66,0,19.39-2.41,19.39-5.35s-3.52-5.34-6.58-5.34a5.47,5.47,0,0,1-5.56-5.35c0-2.94-8.73-5.34-19.39-5.34h-.39c-10.66,0-19.39-2.41-19.39-5.35s-3.31-5.34-7.35-5.34-7.35-2.41-7.35-5.35,8.72-5.34,19.39-5.34h4.16c10.67,0,19.39-2.41,19.39-5.35s5-5.34,11.23-5.34,11.22-2.41,11.22-5.35-8.72-5.34-19.39-5.34h-47c-10.66,0-19.39-2.41-19.39-5.35s-8.73-5.34-19.39-5.34H885.58c-10.67,0-19.39-2.41-19.39-5.35s8.72-5.34,19.39-5.34h54.71c10.67,0,19.39-2.41,19.39-5.35s-8.72-5.34-19.39-5.34h-7.87c-10.67,0-19.39-2.41-19.39-5.35s-8.73-5.34-19.39-5.34h-14c-10.66,0-19.39-2.41-19.39-5.35s8.73-5.34,19.39-5.34Z"/></g><path class="cls-12" d="M54.24,401c1,1.55,23,4.27,13.51,6.74-2.67.69-3.44,1.41-2.86,2.13,1,1.24-9.45,1.94-3.19,3.12,5.53,1,27.49,2.59,33,3.45,23.69,3.72-33.85,2.65,27.64,10.71,9,1.19-18.64,2.18-5.21,3.93,4.84.63,28.1,2.27,33.26,3.41,9.23,2-18.06,2.6-9.57,5.89,7.19,2.79-34.52,2.64-23.44,5.63,3.25.88,30.28,1.59,39.57,1.62,5.44,0,1.08,2.73,6.88,3.16,6.27.47,25.95-.12,31.17,1.37,10.49,3-24,9.28-7,9.64a132.42,132.42,0,0,1,31.17,5.08c13,4-55.44,6.78-50.4,11.39,6.27,5.73,91.84,9.66,106.59,12,43.19,6.93-74.59,7.94-36.79,15.1,10.9,2.07,30.41,1.63,49.22,2.65,11.25.61,57.12,3.16,85.35,8,23.77,4.1-86.95,9.19-52.7,12.14,28.33,2.43,43.34,5.06,98.28,10.36,195,18.82-95.64,18.06-64.26,26.5,64.26,17.28,145.59.82,208.09,16.69,12.28,3.12-66.69,7.49-50.4,10.24,18.43,3.11,80.86,4.55,100.37,7,16.17,2.07,32,3.91,46.16,5.46H878c8.65-1.46,17.3-2.88,26-4.14,23.82-3.47,51.34-2.27,72.18-8.22,1.07-.31,1.83-.17,2.35-1.15-10.21-5.65-34.81-1.32-43.82-8.14a4.12,4.12,0,0,1,2.11-.84c60.35-8.36,126.32-7.25,188.81-17.3,4.78-.76,4.19-1.21,1.09-2.76-4.94-2.46-14.46-1.76-19.92-2.2-16.42-1.34-33-2.06-49.29-4.15-3.34-.42-17.82-1.05-15.8-5.85,1.11-2.63,10.91-4,13.26-4.59,13-3.18,26.41-5.18,39.7-7,35.05-4.73,70.37-8.86,105.64-10.82,3.28-.19,6.8-.25,9.82-1.36-11.93-5.44-31.3-3.74-44.48-5-5.71-.56-16.39,0-21.46-2.82-2.58-1.45-5.06-1.91.15-2.8,34.23-5.84,70.58-6.67,105.52-8.12,17.24-.72,36.58-.27,52.87-2.59,6-.86,6.5-1.83,2.46-4.18-6.18-3.6-19.82-2.69-26.87-3.35-8.64-.81-19.43-.33-27.68-3-7.58-2.47-3.91-3.32,3-4.32,16.66-2.39,33.77-2.85,50.56-4.55,6.52-.66,32.93-4.18,32.25-6.93-.73-2.95-22.33-4.85-31.05-5.85-6.06-.69-29.73-3.65-29.22-5.36s13.86-4.33,21.1-4.86a8.83,8.83,0,0,0,3.32-.5c-5.34-3.34-26.7-7.46-25.72-8.86,1.26-1.81,19.11-.63,28.32-1.26,4.85-.34-3.1-3,2.15-3.05,11.66,0,31.22,2.1,35.79-1.46,1.56-1.2-28.48-2.64-29.36-5.55-1-3.22-19.18-4.45-17.34-5.76,4.66-3.29,21.6-2.55,31.75-3.25a9.06,9.06,0,0,0,3.12-.73c-4.15-1.84-9.55-1.46-14.13-2.6.22-.52.85-.55,1.51-.52,6.67.31,21.63-.88,28.52-5.62-3.28-2.09-8.13-1.61-11.45-3.37a19,19,0,0,1,6.07-1.43c12-.9,37.63-1.48,49.53-3.09,7-1-12.9-1.11-8.68-3.88.75-.49,14.33-2.56,10.5-2.62-53.12-.86,26.18-7.69,26.18-7.69V708.66H0V401Z"/><path class="cls-13" d="M30.85,401c1,1.55,23,4.27,13.51,6.74-2.67.69-3.44,1.41-2.86,2.13,1,1.24-9.45,1.94-3.19,3.12,5.53,1,27.49,2.59,33,3.45C95,420.16,37.47,419.09,99,427.15c9,1.19-18.64,2.18-5.21,3.93,4.84.63,28.09,2.27,33.26,3.41,9.23,2-18.06,2.6-9.57,5.89C124.64,443.17,82.92,443,94,446c3.25.88,30.29,1.59,39.57,1.62,5.44,0,1.08,2.73,6.88,3.16,6.27.47,26-.12,31.17,1.37,10.5,3-24,9.28-7,9.64a132.42,132.42,0,0,1,31.16,5.08c13,4-55.44,6.78-50.4,11.39,6.27,5.73,91.84,9.66,106.59,12,43.19,6.93-74.59,7.94-36.79,15.1,10.9,2.07,30.41,1.63,49.22,2.65,11.24.61,57.12,3.16,85.35,8,23.77,4.1-86.95,9.19-52.7,12.14,28.33,2.43,43.34,5.06,98.27,10.36,195,18.82-95.62,18.06-64.25,26.5,64.25,17.28,144.67,5.32,207.17,21.19,12.28,3.12-66.69,7.49-50.4,10.24,18.43,3.11,104.25,4.55,123.76,7,16.17,2.07,32,3.91,46.16,5.46H877.08c8.65-1.46,17.3-2.88,25.94-4.14,23.83-3.47,51.35-2.27,72.19-8.22,1.07-.31,1.83-.17,2.35-1.15-10.21-5.65-27.07-1.32-36.08-8.14a4.16,4.16,0,0,1,2.12-.84c60.35-8.36,131.21-11.75,193.7-21.8,4.78-.76,4.19-1.21,1.08-2.76-4.93-2.46-14.45-1.76-19.91-2.2-16.42-1.34-33-2.06-49.3-4.15-3.33-.42-17.82-1.05-15.79-5.85,1.11-2.63,10.91-4,13.26-4.59,13-3.18,26.41-5.18,39.7-7,35-4.73,70.37-8.86,105.64-10.82,3.28-.19,6.8-.25,9.82-1.36-11.93-5.44-31.3-3.74-44.48-5-5.71-.56-16.4,0-21.46-2.82-2.58-1.45-5.06-1.91.15-2.8,34.23-5.84,70.58-6.67,105.52-8.12,17.24-.72,36.58-.27,52.88-2.59,6-.86,6.49-1.83,2.45-4.18-6.18-3.6-19.82-2.69-26.87-3.35-8.64-.81-19.43-.33-27.67-3-7.59-2.47-3.92-3.32,3-4.32,16.66-2.39,33.77-2.85,50.56-4.55,6.52-.66,32.93-4.18,32.25-6.93-.73-2.95-22.33-4.85-31.05-5.85-6.06-.69-29.73-3.65-29.22-5.36s13.86-4.33,21.1-4.86a8.83,8.83,0,0,0,3.32-.5c-5.34-3.34-26.7-7.46-25.72-8.86,1.26-1.81,19.11-.63,28.32-1.26,4.85-.34-3.1-3,2.15-3.05,11.66,0,31.22,2.1,35.79-1.46,1.55-1.2-28.48-2.64-29.36-5.55-1-3.22-19.18-4.45-17.34-5.76,4.66-3.29,21.6-2.55,31.75-3.25a9.06,9.06,0,0,0,3.12-.73c-4.15-1.84-9.55-1.46-14.13-2.6.22-.52.85-.55,1.51-.52,6.67.31,21.63-.88,28.52-5.62-3.28-2.09-8.14-1.61-11.45-3.37a19,19,0,0,1,6.07-1.43c12-.9,25.07.37,37-1.24,7-1,1.66-2.82,5.89-5.58.75-.5,10.28-3.57,6.45-3.63-53.11-.85,16.5-6.83,16.5-6.83V708.66H0V401Z"/><path class="cls-14" d="M2.61,401c1,1.55,23,4.27,13.51,6.74-2.67.69-3.44,1.41-2.86,2.13,1,1.24-9.45,1.94-3.19,3.12,5.53,1,27.49,2.59,33,3.45,23.69,3.72-33.85,2.65,27.64,10.71,9,1.19-18.64,2.18-5.21,3.93,4.84.63,28.09,2.27,33.26,3.41,9.23,2-18.06,2.6-9.57,5.89,7.2,2.79-34.53,2.64-23.44,5.63,3.25.88,30.29,1.59,39.57,1.62,5.44,0,1.08,2.73,6.88,3.16,6.27.47,26-.12,31.17,1.37,10.5,3-24,9.28-7,9.64a132.42,132.42,0,0,1,31.16,5.08c13,4-55.44,6.78-50.4,11.39,6.27,5.73,91.84,9.66,106.59,12,43.19,6.93-74.59,7.94-36.79,15.1,10.9,2.07,30.41,1.63,49.22,2.65,11.25.61,57.12,3.16,85.35,8,23.77,4.1-87,9.19-52.7,12.14,28.33,2.43,43.34,5.06,98.27,10.36,195,18.82-95.62,18.06-64.25,26.5,64.25,17.28,144.67,10.22,207.17,26.09,12.28,3.12-66.69,7.49-50.4,10.24,18.44,3.12,132.49,4.56,152,7.06,16.17,2.07,32,3.9,46.16,5.45H897.24c8.66-1.46,17.31-2.88,26-4.14,23.83-3.47,51.35-2.27,72.19-8.22,1.06-.31,1.83-.17,2.34-1.15-10.2-5.65-27.06-1.32-36.07-8.14a4.12,4.12,0,0,1,2.12-.84c60.34-8.36,131.21-16.65,193.7-26.7,4.78-.76,4.19-1.21,1.08-2.76-4.93-2.46-14.45-1.76-19.91-2.2-16.42-1.34-33-2.06-49.3-4.15-3.33-.42-17.82-1.05-15.8-5.85,1.11-2.63,10.91-4,13.27-4.59,13-3.18,26.41-5.18,39.69-7,35-4.73,70.38-8.86,105.65-10.82,3.27-.19,6.79-.25,9.81-1.36-11.92-5.44-31.29-3.74-44.47-5-5.71-.56-16.4,0-21.46-2.82-2.58-1.45-5.06-1.91.15-2.8,34.23-5.84,70.58-6.67,105.51-8.12,17.24-.72,36.59-.27,52.88-2.59,6-.86,6.5-1.83,2.46-4.18-6.19-3.6-19.82-2.69-26.87-3.35-8.64-.81-19.44-.33-27.68-3-7.59-2.47-3.91-3.32,3-4.32,16.66-2.39,33.77-2.85,50.56-4.55,6.53-.66,32.94-4.18,32.26-6.93-.73-2.95-22.34-4.85-31-5.85-6.06-.69-29.74-3.65-29.22-5.36s13.86-4.33,21.1-4.86a8.75,8.75,0,0,0,3.31-.5c-5.33-3.34-26.69-7.46-25.71-8.86,1.26-1.81,19.11-.63,28.32-1.26,4.85-.34-3.1-3,2.14-3.05,11.67,0,31.22,2.1,35.8-1.46,1.55-1.2-28.49-2.64-29.37-5.55-1-3.22-19.18-4.45-17.33-5.76,4.65-3.29,21.6-2.55,31.75-3.25a9.06,9.06,0,0,0,3.12-.73c-4.15-1.84-9.55-1.46-14.14-2.6.22-.52.86-.55,1.52-.52,6.66.31,21.63-.88,28.52-5.62-3.28-2.09-8.14-1.61-11.46-3.37a19.09,19.09,0,0,1,6.07-1.43c12-.9,25.08.37,37-1.24,7-1-12.41-1.45-8.19-4.21.76-.49,12.19-5.6,8.36-5.67-53.11-.85,8.5-6.16,8.5-6.16V708.66H0V401Z"/><polygon class="cls-15" points="1262.64 486.93 1271.59 520.13 1253.7 520.13 1262.64 486.93"/><polygon class="cls-16" points="1283.07 535.75 1253.7 520.13 1271.59 520.13 1283.07 535.75"/><polygon class="cls-15" points="1386.84 476.68 1395.08 507.27 1378.6 507.27 1386.84 476.68"/><polygon class="cls-16" points="1406.82 515.5 1378.6 507.27 1395.08 507.27 1406.82 515.5"/><polygon class="cls-15" points="1343 506.18 1353.35 544.6 1332.65 544.6 1343 506.18"/><polygon class="cls-16" points="1362.99 558.67 1332.65 544.6 1353.35 544.6 1362.99 558.67"/><polygon class="cls-15" points="1402.12 431.41 1404.52 440.32 1399.73 440.32 1402.12 431.41"/><polygon class="cls-16" points="1407.49 442.58 1399.73 440.32 1404.52 440.32 1407.49 442.58"/><polygon class="cls-15" points="1385.13 440.18 1390.12 458.72 1380.14 458.72 1385.13 440.18"/><polygon class="cls-16" points="1395.45 463.88 1380.14 458.72 1390.12 458.72 1395.45 463.88"/><polygon class="cls-15" points="1361.03 449.31 1367.15 472.01 1354.91 472.01 1361.03 449.31"/><polygon class="cls-16" points="1373.7 476.88 1354.91 472.01 1367.15 472.01 1373.7 476.88"/><polygon class="cls-15" points="1410.45 408.86 1411.6 413.12 1409.3 413.12 1410.45 408.86"/><polygon class="cls-16" points="1413.16 413.62 1409.3 413.12 1411.6 413.12 1413.16 413.62"/><polygon class="cls-15" points="1398.48 402.31 1399.35 405.52 1397.62 405.52 1398.48 402.31"/><polygon class="cls-16" points="1400.97 405.88 1397.62 405.52 1399.35 405.52 1400.97 405.88"/><polygon class="cls-15" points="1371.84 427.14 1374.59 437.34 1369.1 437.34 1371.84 427.14"/><polygon class="cls-16" points="1378.32 439.63 1369.1 437.34 1374.59 437.34 1378.32 439.63"/><polygon class="cls-15" points="1401.43 413.93 1403.63 422.12 1399.22 422.12 1401.43 413.93"/><polygon class="cls-16" points="1408.07 424.13 1399.22 422.12 1403.63 422.12 1408.07 424.13"/><polygon class="cls-15" points="182.24 487.43 173.29 520.63 191.18 520.63 182.24 487.43"/><polygon class="cls-16" points="161.8 536.25 191.18 520.63 173.29 520.63 161.8 536.25"/><polygon class="cls-15" points="110.21 476.68 101.97 507.27 118.45 507.27 110.21 476.68"/><polygon class="cls-16" points="90.22 515.5 118.45 507.27 101.97 507.27 90.22 515.5"/><polygon class="cls-15" points="51.71 506.18 41.36 544.6 62.06 544.6 51.71 506.18"/><polygon class="cls-16" points="31.72 558.67 62.06 544.6 41.36 544.6 31.72 558.67"/><polygon class="cls-15" points="30.42 422.41 28.02 431.32 32.82 431.32 30.42 422.41"/><polygon class="cls-16" points="25.05 433.58 32.82 431.32 28.02 431.32 25.05 433.58"/><polygon class="cls-15" points="29.58 440.18 24.59 458.72 34.57 458.72 29.58 440.18"/><polygon class="cls-16" points="19.26 463.88 34.57 458.72 24.59 458.72 19.26 463.88"/><polygon class="cls-15" points="76.35 456.81 70.23 479.51 82.46 479.51 76.35 456.81"/><polygon class="cls-16" points="63.68 484.38 82.46 479.51 70.23 479.51 63.68 484.38"/><polygon class="cls-15" points="9.5 412.71 8.45 416.61 10.55 416.61 9.5 412.71"/><polygon class="cls-16" points="7.03 417.06 10.55 416.61 8.45 416.61 7.03 417.06"/><polygon class="cls-15" points="24.06 415.58 22.83 420.15 25.29 420.15 24.06 415.58"/><polygon class="cls-16" points="21.17 420.69 25.29 420.15 22.83 420.15 21.17 420.69"/><polygon class="cls-15" points="9.13 404.75 8.46 407.24 9.8 407.24 9.13 404.75"/><polygon class="cls-16" points="7.2 407.52 9.8 407.24 8.46 407.24 7.2 407.52"/><polygon class="cls-15" points="3.94 407.75 3.27 410.24 4.61 410.24 3.94 407.75"/><polygon class="cls-16" points="2.02 410.52 4.61 410.24 3.27 410.24 2.02 410.52"/><polygon class="cls-15" points="14.16 433.6 11.41 443.8 16.91 443.8 14.16 433.6"/><polygon class="cls-16" points="7.68 446.08 16.91 443.8 11.41 443.8 7.68 446.08"/><polygon class="cls-15" points="10.21 420.37 8.53 426.59 11.88 426.59 10.21 420.37"/><polygon class="cls-16" points="5.16 428.11 11.88 426.59 8.53 426.59 5.16 428.11"/><polygon class="cls-15" points="1172.23 520.38 1186.13 572.01 1158.32 572.01 1172.23 520.38"/><polygon class="cls-16" points="1185.16 604.67 1158.32 572.01 1186.13 572.01 1185.16 604.67"/><polygon class="cls-15" points="1231.25 613.49 1245.16 665.12 1217.34 665.12 1231.25 613.49"/><polygon class="cls-16" points="1253.83 694.86 1217.34 665.12 1245.16 665.12 1253.83 694.86"/><polygon class="cls-15" points="1368.05 579.93 1383.98 639.04 1352.13 639.04 1368.05 579.93"/><polygon class="cls-16" points="1378.7 671.64 1352.13 639.04 1383.98 639.04 1378.7 671.64"/><polygon class="cls-15" points="1281.04 523.1 1298.36 587.4 1263.72 587.4 1281.04 523.1"/><polygon class="cls-16" points="1293.97 626.39 1263.72 587.4 1298.36 587.4 1293.97 626.39"/><polygon class="cls-15" points="1068.76 589.52 1087.98 660.85 1049.54 660.85 1068.76 589.52"/><polygon class="cls-16" points="1079.41 699.57 1049.54 660.85 1087.98 660.85 1079.41 699.57"/><polygon class="cls-15" points="855.76 562.85 874.98 634.18 836.55 634.18 855.76 562.85"/><polygon class="cls-16" points="863.32 679 836.55 634.18 874.98 634.18 863.32 679"/><polygon class="cls-15" points="1120.92 554.68 1133.44 601.16 1108.4 601.16 1120.92 554.68"/><polygon class="cls-16" points="1134.01 627.53 1108.4 601.16 1133.44 601.16 1134.01 627.53"/><polygon class="cls-15" points="692.94 586.1 713.38 661.99 672.5 661.99 692.94 586.1"/><polygon class="cls-16" points="692.94 702.22 672.5 661.99 713.38 661.99 692.94 702.22"/><polygon class="cls-15" points="592.3 628.16 603.24 668.76 581.36 668.76 592.3 628.16"/><polygon class="cls-16" points="590.24 691.64 581.36 668.76 603.24 668.76 590.24 691.64"/><polygon class="cls-15" points="954.97 573.19 972.56 638.46 937.39 638.46 954.97 573.19"/><polygon class="cls-16" points="972.01 681.53 937.39 638.46 972.56 638.46 972.01 681.53"/><polygon class="cls-15" points="777.98 597.93 789.24 639.72 766.73 639.72 777.98 597.93"/><polygon class="cls-16" points="781.52 671.03 766.73 639.72 789.24 639.72 781.52 671.03"/><polygon class="cls-15" points="523.28 562.8 538.06 617.65 508.51 617.65 523.28 562.8"/><polygon class="cls-16" points="518.72 650.4 508.51 617.65 538.06 617.65 518.72 650.4"/><polygon class="cls-15" points="412.97 586.1 425.78 633.66 400.16 633.66 412.97 586.1"/><polygon class="cls-16" points="403.08 666.57 400.16 633.66 425.78 633.66 403.08 666.57"/><polygon class="cls-15" points="90.06 540.78 101.16 581.95 78.97 581.95 90.06 540.78"/><polygon class="cls-16" points="57.06 596.03 78.97 581.95 101.16 581.95 57.06 596.03"/><polygon class="cls-15" points="339.65 557.85 348.82 591.89 330.48 591.89 339.65 557.85"/><polygon class="cls-16" points="318.09 606.27 330.48 591.89 348.82 591.89 318.09 606.27"/><polygon class="cls-15" points="258.7 594.68 270.1 636.98 247.31 636.98 258.7 594.68"/><polygon class="cls-16" points="237.66 656.71 247.31 636.98 270.1 636.98 237.66 656.71"/><polygon class="cls-15" points="198.09 536.03 207.71 571.73 188.48 571.73 198.09 536.03"/><polygon class="cls-16" points="177.05 588.16 188.48 571.73 207.71 571.73 177.05 588.16"/><polygon class="cls-15" points="60.54 627.29 71.36 667.48 49.71 667.48 60.54 627.29"/><polygon class="cls-16" points="33.4 685.4 49.71 667.48 71.36 667.48 33.4 685.4"/></g></g></svg>