<svg xmlns="http://www.w3.org/2000/svg" viewBox="0 0 1920 1285" width="1920" height="1285"><defs><linearGradient id="grd1" gradientUnits="userSpaceOnUse"  x1="1619.134" y1="954.631" x2="1673.85" y2="330.867"><stop offset="0" stop-color="#ffffff"  /><stop offset="0.989" stop-color="#f3a4c6"  /><stop offset="1" stop-color="#f3a4c6"  /></linearGradient><linearGradient id="grd2" gradientUnits="userSpaceOnUse"  x1="3085.075" y1="1083.54" x2="3139.787" y2="459.817"><stop offset="0" stop-color="#fefef9"  /><stop offset="0.989" stop-color="#f4b4ca"  /><stop offset="1" stop-color="#f4b4ca"  /></linearGradient><linearGradient id="grd3" gradientUnits="userSpaceOnUse"  x1="3157.748" y1="1090.317" x2="3212.464" y2="466.543"><stop offset="0" stop-color="#fdfdf4"  /><stop offset="0.989" stop-color="#f5c1ce"  /><stop offset="1" stop-color="#f5c1ce"  /></linearGradient><linearGradient id="grd4" gradientUnits="userSpaceOnUse"  x1="3083.05" y1="1083.823" x2="3137.756" y2="460.166"><stop offset="0" stop-color="#fcfcf0"  /><stop offset="0.989" stop-color="#f6cbd1"  /><stop offset="1" stop-color="#f6cbd1"  /></linearGradient><linearGradient id="grd5" gradientUnits="userSpaceOnUse"  x1="2907.71" y1="1068.59" x2="2962.426" y2="444.827"><stop offset="0" stop-color="#fcfcec"  /><stop offset="0.989" stop-color="#f7d4d3"  /><stop offset="1" stop-color="#f7d4d3"  /></linearGradient><linearGradient id="grd6" gradientUnits="userSpaceOnUse"  x1="2779.532" y1="1057.343" x2="2834.247" y2="433.58"><stop offset="0" stop-color="#fbfbf2"  /><stop offset="0.989" stop-color="#f9eae8"  /><stop offset="1" stop-color="#f9eae8"  /></linearGradient></defs><style>tspan { white-space:pre }.shp0 { fill: url(#grd1) } .shp1 { fill: url(#grd2) } .shp2 { fill: url(#grd3) } .shp3 { fill: url(#grd4) } .shp4 { fill: url(#grd5) } .shp5 { fill: url(#grd6) } .shp6 { fill: #c8dfef } .shp7 { fill: #d0e4f3 } .shp8 { fill: #c3d9ea } .shp9 { fill: #e6f0f6 } .shp10 { fill: #aac4d1 } .shp11 { fill: #a3bccb } .shp12 { fill: #b6ccd9 } .shp13 { fill: #9cb2c1 } .shp14 { fill: #9db3c2 } .shp15 { fill: #96b2bf } .shp16 { fill: #93adbd } .shp17 { fill: #7d9fb9 } .shp18 { fill: #87a9be } .shp19 { fill: #799db2 } .shp20 { fill: #7497a8 } .shp21 { fill: #7194ac } .shp22 { fill: #8edd97 } .shp23 { fill: #7ac6a1 } .shp24 { fill: #ffc6ef } .shp25 { fill: #ffd3a9 } .shp26 { fill: #ffd3bd } .shp27 { fill: #7ec68f } .shp28 { fill: #71ba82 } </style><path class="shp0" d="M444.4 0.89L1.46 0.68L0.83 1281.96L1.16 1281.96L0.83 1281.96L1.01 915.34L150.01 877.01L305.19 888.7L327.64 881.78C303.13 786.85 290.11 687.29 290.16 584.66C290.26 372.38 346.36 173.17 444.4 0.89Z" /><path class="shp1" d="M1094.46 1.21L444.4 0.89C346.36 173.17 290.26 372.38 290.16 584.66C290.11 687.29 303.13 786.85 327.64 881.78L530.48 819.25L765.5 875.38L834.37 862.97C797.25 777.81 776.67 683.75 776.71 584.9C776.83 340.19 903.33 125.04 1094.46 1.21ZM1918.59 1.61L1848.97 1.58C1873.32 17.39 1896.52 34.65 1918.56 53.18L1918.59 1.61Z" /><path class="shp2" d="M1848.97 1.58L1094.46 1.21C903.33 125.04 776.83 340.19 776.71 584.9C776.67 683.75 797.25 777.81 834.37 862.97L933.59 845.09L1127.18 895.84L1228.74 888.84C1139.81 817.54 1082.88 707.93 1082.94 585.05C1083.05 370.34 1257.08 196.45 1471.6 196.56C1686.12 196.66 1860.03 370.72 1859.92 585.43C1859.87 701.28 1809.15 805.3 1728.74 876.5L1738.62 878.45L1918.16 887.71L1918.56 53.18C1896.52 34.65 1873.32 17.39 1848.97 1.58Z" /><path fill-rule="evenodd" class="shp3" d="M1859.92 585.43C1859.87 701.28 1809.15 805.3 1728.74 876.5L1545.01 840.28L1381.99 878.27L1228.74 888.84C1139.81 817.54 1082.88 707.93 1082.94 585.05C1083.05 370.34 1257.08 196.45 1471.6 196.56C1686.12 196.66 1860.03 370.72 1859.92 585.43ZM1683.13 585.34C1683.19 468.29 1588.48 373.38 1471.51 373.32C1354.59 373.27 1259.79 468.09 1259.73 585.14C1259.67 702.19 1354.38 797.06 1471.31 797.11C1588.28 797.17 1683.08 702.39 1683.13 585.34Z" /><path fill-rule="evenodd" class="shp4" d="M1683.13 585.34C1683.08 702.39 1588.28 797.17 1471.31 797.11C1354.38 797.06 1259.67 702.19 1259.73 585.14C1259.79 468.09 1354.59 373.27 1471.51 373.32C1588.48 373.38 1683.19 468.29 1683.13 585.34ZM1559.95 585.28C1559.97 536.39 1520.33 496.65 1471.45 496.63C1422.62 496.61 1382.94 536.3 1382.91 585.2C1382.89 634.05 1422.53 673.78 1471.37 673.81C1520.25 673.83 1559.93 634.14 1559.95 585.28Z" /><path class="shp5" d="M1471.45 496.63C1422.62 496.61 1382.94 536.3 1382.91 585.2C1382.89 634.05 1422.53 673.78 1471.37 673.81C1520.25 673.83 1559.93 634.14 1559.95 585.28C1559.97 536.39 1520.33 496.65 1471.45 496.63Z" /><path class="shp6" d="M0.88 1181.24L1918.03 1182.17L1918.19 846.6L1736.99 778.48L1522.85 783.73L1374.04 737.84L1203.38 762.01L1148.94 735.05L1000.1 737.65L648.04 594.52L568.2 591.8L495.48 629.55L426.62 624.16L339.49 651.05L235.55 652.78L181.07 685.05L23.54 745.22L1.09 749.55L0.88 1181.24Z" /><path class="shp7" d="M106.71 713.48L23.54 745.22L1.09 749.55L1.03 883.83L70.65 887.44L106.71 713.48Z" /><path class="shp8" d="M632.09 862.82L325.99 872.25L305.11 804.07L496.21 702.56L613.3 674.15L914.97 859.39L759.98 929.38L632.09 862.82Z" /><path class="shp7" d="M498.64 701.92L613.3 674.15L618.4 677.22L616.87 682.33L604.19 795.66L498.64 701.92Z" /><path class="shp7" d="M1918.18 876.34L1918.19 846.6L1736.99 778.48L1838.73 865.45C1848.93 865.45 1859.64 864.44 1869.45 866.74C1885.91 870.71 1902.23 874.04 1918.18 876.34ZM1519.15 782.58L1379.65 739.5L1460.32 855.57L1519.15 782.58Z" /><path class="shp7" d="M1366.52 738.86L1203.38 762.01L1171.88 746.42L1250.01 855.59L1366.52 738.86Z" /><path class="shp8" d="M1317.6 874.78L1145.94 863.2L1148.43 735.05L1148.94 735.05L1165.26 743.1L1317.6 874.78Z" /><path class="shp7" d="M1004.05 737.53L1020.44 866.33L1150.72 735.81L1148.94 735.05L1004.05 737.53Z" /><path class="shp7" d="M225.22 658.78L102.37 715.13L303.96 809.18L225.22 658.78Z" /><path class="shp7" d="M422.15 625.56L339.49 651.05L303.96 809.18L422.15 625.56Z" /><path class="shp7" d="M644.59 594.4L568.2 591.8L565.14 593.47L616.87 682.33L644.59 594.4Z" /><path class="shp7" d="M505.05 624.58L495.48 629.55L426.62 624.16L496.6 701.92L505.05 624.58Z" /><path class="shp9" d="M426.62 624.16L339.49 651.05L389.09 676.73L422.15 625.56L426.62 624.16Z" /><path class="shp9" d="M644.59 594.4L568.2 591.8L528.27 612.59L580.04 619.12L644.59 594.4Z" /><path class="shp10" d="M0.83 1281.96L1917.96 1282.9L1918.16 887.71L1738.62 878.45L1545.01 840.28L1381.99 878.27L1127.18 895.84L933.59 845.09L765.5 875.38L530.48 819.25L305.19 888.7L150.01 877.01L1.01 915.34L0.83 1281.96Z" /><path class="shp11" d="M307.75 887.94L355.38 1025.17L374.46 867.42L307.75 887.94Z" /><path class="shp10" d="M706.96 861.46L530.47 819.25L529.95 819.5L547.25 917.92L713.95 912.64C713.96 896.43 711.54 878.95 706.96 861.46Z" /><path class="shp12" d="M1723.05 1121.2L1740.77 878.55L1918.17 887.7L1723.05 1121.2Z" /><path class="shp12" d="M306.22 888.44L246.6 1011.34L155.99 877.52L305.2 888.71L306.22 888.44Z" /><path class="shp11" d="M1545.01 840.29L1382.01 878.25L1374.48 878.75L1458.17 1086.6L1545.01 840.29Z" /><path class="shp13" d="M1529.08 843.61L1515.82 1078.84L1716.85 1019.97L1702.95 1009.11L1543.36 840.29L1529.08 843.61Z" /><path class="shp12" d="M1394.93 1056.95L1515.82 1078.84L1539.15 841.3L1520.53 845.64L1394.93 1056.95Z" /><path class="shp13" d="M777.66 1029.72L776.63 1043.5L526.92 1020.92L688.56 912.88L777.66 1029.72Z" /><path class="shp11" d="M929.77 845.73L1068.56 1053.73L1172.82 934.44L1127.18 895.86L933.6 845.1L929.77 845.73Z" /><path class="shp14" d="M1167.2 940.94L1172.82 934.44L1127.18 895.86L1121.69 894.46L1103.67 994.65L1167.2 940.94Z" /><path class="shp15" d="M1327.7 1080.54L1169.44 1056.2L1172.82 934.44L1327.7 1080.54Z" /><path class="shp10" d="M1171.92 933.67L976.07 1108.83L1172.95 1195.21L1171.92 933.67Z" /><path class="shp12" d="M928.24 845.99L778.5 873.1L959.52 1051L928.24 845.99Z" /><path class="shp11" d="M779.39 872.84L765.49 875.4L539.52 821.42L688.56 912.88L764.27 1022.45L779.39 872.84Z" /><path class="shp12" d="M765.49 875.4L539.52 821.42L688.56 912.88L765.49 875.4Z" /><path class="shp12" d="M560.98 1013.03L533.27 819.89L530.47 819.25L520.01 822.56L448.11 1020.5L560.98 1013.03Z" /><path class="shp10" d="M524.21 821.29L501.64 828.17L340.86 995.43L467.75 1009.66L524.21 821.29Z" /><path class="shp16" d="M498.08 1047.96L468.86 1078.97L352.34 1000.67L454.52 944.55L457.58 943.79L496.2 990.02L498.08 1047.96Z" /><path class="shp12" d="M460.6 1022.04L455.54 939.07L353.35 995.18L373.63 1008.72L460.6 1022.04Z" /><path class="shp17" d="M0.97 990.54L214.49 958.61L403.61 992.4L699.23 1008.24L923.85 963.42L1118.96 990.45L1391.67 941.05L1653.08 1002.7L1833.31 992.58L1918.11 1009.22L1918 1237.83L0.85 1236.89L0.97 990.54Z" /><path class="shp18" d="M7.63 1206.9L0.9 1135.79L0.87 1200.77L7.63 1206.9Z" /><path class="shp18" d="M1651.94 1002.45L1721.01 1111.23L1826.29 992.96L1653.08 1002.7L1651.94 1002.45Z" /><path class="shp19" d="M190.38 962.17L214.49 958.61L403.61 992.4L412.41 992.78L315.01 1176.67L190.38 962.17Z" /><path class="shp20" d="M232.98 961.55L248.18 1169.74L14.94 1117.43L31.01 1107.86L216.4 958.61L232.98 961.55Z" /><path class="shp18" d="M388.48 1150.41L248.18 1169.74L221.37 959.51L242.93 963.34L388.48 1150.41Z" /><path class="shp20" d="M1049.14 1121.89L1105.88 1139.27L1373.24 1085.79L1208.23 1023.68L1049.14 1121.89Z" /><path class="shp19" d="M552.11 1160.32L696.36 1135.11L693.49 1007.85L552.11 1160.32Z" /><path class="shp18" d="M697.19 1010.16L875.53 1193.28L788.14 1237.28L696.19 1237.23L697.19 1010.16Z" /><path class="shp18" d="M930.22 964.32L1103.79 988.4L893.66 1145.55L930.22 964.32Z" /><path class="shp19" d="M1102.9 988.27L1118.96 990.45L1381.34 942.96L1208.23 1023.68L1120.31 1120.52L1102.9 988.27Z" /><path class="shp18" d="M1356.13 1112.47L1388.61 941.56L1391.67 941.05L1403.91 944L1487.11 1119.17L1356.13 1112.47Z" /><path class="shp17" d="M1399.06 942.84L1425.21 948.98L1611.59 1097.01L1464.41 1109.58L1399.06 942.84Z" /><path class="shp21" d="M1586.21 1109.25L1518.91 1023.45L1744.5 1091.84L1586.21 1109.25Z" /><path class="shp19" d="M1399.06 942.84L1425.21 948.98L1514.32 1019.87L1459.83 1097.83L1399.06 942.84Z" /><path class="shp17" d="M1518.4 1023.06L1464.41 1109.58L1360.73 1088.34L1431.67 1029.28L1518.4 1023.06Z" /><path class="shp21" d="M1518.4 1023.06L1471.56 1098.1L1435.12 1029.02L1518.4 1023.06Z" /><path class="shp22" d="M0.83 1281.96L1917.96 1282.9L1918.04 1121.28L0.91 1120.34L0.83 1281.96Z" /><path class="shp23" d="M0.91 1121.38L1918.06 1122.31L1918.09 1062.19C1737.87 1075.25 1496.69 1087 1408.18 1086.96C1426.41 1086.96 1054.53 1066.24 1068.55 1061.52L723.05 1081.14L0.95 1045.94L0.91 1121.38Z" /><path class="shp24" d="M568.49 1276.25L569 1283.28L561.47 1276.77L568.49 1276.25Z" /><path class="shp25" d="M1101.39 1209.98L1107.01 1194.29L1116.95 1215.61L1101.39 1209.98Z" /><path class="shp25" d="M951.63 1263.01L987.48 1252.82L941.57 1227.14L951.63 1263.01Z" /><path class="shp25" d="M706.52 1224.98L682.04 1228.8L710.34 1249.36L706.52 1224.98Z" /><path class="shp25" d="M1400.97 1206.43L1401.09 1223.15L1384.27 1206.67L1400.97 1206.43Z" /><path class="shp25" d="M1218.42 1261.73L1218.95 1282.56L1228.9 1282.56L1249.45 1261.13L1218.42 1261.73Z" /><path class="shp25" d="M1688.04 1249.2L1686.4 1224.43L1663.3 1250.85L1688.04 1249.2Z" /><path class="shp25" d="M1871.96 1231.81L1896.45 1228.23L1868.4 1207.29L1871.96 1231.81Z" /><path class="shp25" d="M1755.79 1196.9L1763.57 1195.75L1754.64 1189.11L1755.79 1196.9Z" /><path class="shp25" d="M1602.87 1201.16L1604.41 1193.51L1595.09 1199.63L1602.87 1201.16Z" /><path class="shp25" d="M1266.17 1193.47L1269.24 1186.2L1258.91 1190.41L1266.17 1193.47Z" /><path class="shp25" d="M1534.23 1244.91L1548.9 1244.8L1534.12 1230.23L1534.23 1244.91Z" /><path class="shp25" d="M1319.46 1242.52L1329.79 1254.51L1331.33 1232.18L1319.46 1242.52Z" /><path class="shp25" d="M989.31 1165.39L997.2 1165.39L989.31 1157.47L989.31 1165.39Z" /><path class="shp25" d="M1155.49 1160.87L1163.27 1160.87L1155.37 1153.08L1155.49 1160.87Z" /><path class="shp25" d="M1458.39 1163.31L1466.17 1161.91L1456.99 1155.52L1458.39 1163.31Z" /><path class="shp25" d="M776.45 1161.83L764.07 1160.42L778.74 1154.17L776.45 1161.83Z" /><path class="shp25" d="M1033.67 1212.38L1050.11 1215.19L1030.85 1228.71L1033.67 1212.38Z" /><path class="shp25" d="M1438.94 1277.67L1462.29 1269.9L1431.05 1254.19L1438.94 1277.67Z" /><path class="shp25" d="M1679.93 1161.51L1687.7 1160.11L1678.52 1153.72L1679.93 1161.51Z" /><path class="shp26" d="M409.62 1209.65L404.02 1193.95L394.06 1215.26L409.62 1209.65Z" /><path class="shp26" d="M628.6 1234.9L604.87 1228.12L635.37 1211.03L628.6 1234.9Z" /><path class="shp26" d="M805.77 1193.89L817.11 1195.55L803.97 1205.25L805.77 1193.89Z" /><path class="shp26" d="M82.23 1212.55L81.97 1229.15L98.81 1212.68L82.23 1212.55Z" /><path class="shp26" d="M292.52 1265.5L292.13 1282.09L284.09 1282.09L267.77 1264.97L292.52 1265.5Z" /><path class="shp26" d="M244.85 1192.97L241.8 1185.7L252.12 1189.92L244.85 1192.97Z" /><path class="shp26" d="M188.33 1250.77L172.51 1250.64L188.46 1234.94L188.33 1250.77Z" /><path class="shp26" d="M494.84 1169.23L486.93 1169.1L494.84 1161.31L494.84 1169.23Z" /><path class="shp26" d="M355.57 1160.48L347.79 1160.47L355.7 1152.69L355.57 1160.48Z" /><path class="shp26" d="M52.67 1162.63L44.89 1161.22L54.08 1154.84L52.67 1162.63Z" /><path class="shp26" d="M550.55 1223.88L542.76 1222.35L551.95 1216.1L550.55 1223.88Z" /><path class="shp26" d="M512.39 1254.63L495.94 1257.43L515.2 1271.09L512.39 1254.63Z" /><path class="shp26" d="M35.78 1266.78L29.8 1242.65L59.76 1260.92L35.78 1266.78Z" /><path class="shp27" d="M107.71 1282L219.17 757.07L330.01 1282.11L107.71 1282Z" /><path class="shp28" d="M220.32 1282.05L220.57 763.83L330.01 1282.11L220.32 1282.05Z" /><path class="shp27" d="M286.77 1282.09L394.75 844.83L502.44 1282.19L286.77 1282.09Z" /><path class="shp28" d="M395.94 1282.14L396.15 850.07L502.44 1282.19L395.94 1282.14Z" /><path class="shp27" d="M552.43 1282.23L634.72 949.11L716.72 1282.31L552.43 1282.23Z" /><path class="shp28" d="M635.58 1282.27L635.74 953.31L716.72 1282.31L635.58 1282.27Z" /><path class="shp27" d="M668.74 1282.29L725.47 1052.54L782.13 1282.34L668.74 1282.29Z" /><path class="shp28" d="M726.51 1282.32L726.62 1056.9L782.13 1282.34L726.51 1282.32Z" /><path class="shp27" d="M802.42 1282.35L840.34 1128.69L878.16 1282.39L802.42 1282.35Z" /><path class="shp28" d="M841.3 1282.37L841.37 1132.89L878.16 1282.39L841.3 1282.37Z" /><path class="shp9" d="M618.03 674.42L501.44 704.48L612.52 721.77L618.03 674.42Z" /></svg>