<svg xmlns="http://www.w3.org/2000/svg" xmlns:xlink="http://www.w3.org/1999/xlink" viewBox="0 0 1417.32 708.66"><defs><style>.cls-1{isolation:isolate;}.cls-2{fill:url(#linear-gradient);}.cls-3{opacity:0.04;}.cls-4{opacity:0.03;}.cls-10,.cls-11,.cls-5,.cls-6,.cls-7,.cls-8,.cls-9{fill:#384882;}.cls-5{opacity:0.1;}.cls-6{opacity:0.15;}.cls-7{opacity:0.13;}.cls-8{opacity:0.06;}.cls-9{opacity:0.08;}.cls-10{opacity:0.09;}.cls-11{opacity:0.18;}.cls-12{mix-blend-mode:color-dodge;fill:url(#radial-gradient);}.cls-13{fill:#fff;}.cls-14,.cls-15,.cls-16{fill:#f1f2f2;}.cls-14{opacity:0.7;}.cls-15{opacity:0.9;}.cls-16{opacity:0.6;}.cls-17{fill:url(#linear-gradient-2);}.cls-18{fill:url(#linear-gradient-3);}.cls-19{fill:url(#linear-gradient-4);}.cls-20{fill:url(#linear-gradient-5);}.cls-21{fill:url(#linear-gradient-6);}.cls-22{fill:url(#linear-gradient-7);}.cls-23{fill:url(#linear-gradient-8);}.cls-24{fill:url(#linear-gradient-9);}.cls-25{fill:url(#linear-gradient-10);}.cls-26{fill:url(#linear-gradient-11);}.cls-27{fill:url(#linear-gradient-12);}.cls-28{fill:url(#linear-gradient-13);}.cls-29{fill:url(#linear-gradient-14);}.cls-30{fill:url(#linear-gradient-15);}.cls-31{fill:url(#linear-gradient-16);}.cls-32{fill:url(#linear-gradient-17);}.cls-33{fill:url(#linear-gradient-18);}.cls-34{fill:url(#linear-gradient-19);}.cls-35{fill:url(#linear-gradient-20);}.cls-36{fill:url(#linear-gradient-21);}.cls-37{fill:url(#linear-gradient-22);}.cls-38{fill:url(#linear-gradient-23);}.cls-39{fill:url(#linear-gradient-24);}.cls-40{fill:url(#linear-gradient-25);}.cls-41{fill:url(#linear-gradient-26);}.cls-42{fill:url(#linear-gradient-27);}.cls-43{fill:url(#linear-gradient-28);}.cls-44{fill:url(#linear-gradient-29);}.cls-45{fill:url(#linear-gradient-30);}.cls-46{fill:url(#linear-gradient-31);}.cls-47{fill:url(#linear-gradient-32);}.cls-48{fill:url(#linear-gradient-33);}.cls-49{fill:url(#linear-gradient-34);}.cls-50{fill:url(#linear-gradient-35);}.cls-51{fill:url(#linear-gradient-36);}.cls-52{fill:url(#linear-gradient-37);}.cls-53{fill:url(#linear-gradient-38);}.cls-54{fill:url(#linear-gradient-39);}.cls-55{fill:url(#linear-gradient-40);}.cls-56{fill:url(#linear-gradient-41);}.cls-57{fill:url(#linear-gradient-42);}.cls-58{fill:url(#linear-gradient-43);}.cls-59{fill:url(#linear-gradient-44);}.cls-60{fill:url(#linear-gradient-45);}.cls-61{fill:url(#linear-gradient-46);}.cls-62{fill:url(#linear-gradient-47);}.cls-63{fill:url(#linear-gradient-48);}.cls-64{fill:url(#linear-gradient-49);}.cls-65{fill:url(#linear-gradient-50);}</style><linearGradient id="linear-gradient" x1="1597.16" y1="451" x2="1597.16" y2="-3.63" gradientTransform="translate(-888.5)" gradientUnits="userSpaceOnUse"><stop offset="0" stop-color="#3b94ff"/><stop offset="0.5" stop-color="#4b61d6"/><stop offset="1" stop-color="#2f2a59"/></linearGradient><radialGradient id="radial-gradient" cx="1405.5" cy="157.38" r="156.05" gradientTransform="matrix(0, -1, -1, 0, 705.67, 1562.35)" gradientUnits="userSpaceOnUse"><stop offset="0.29" stop-color="#6d6e71"/><stop offset="0.43" stop-color="#4a4a4c"/><stop offset="0.59" stop-color="#2a2a2b"/><stop offset="0.74" stop-color="#131313"/><stop offset="0.88" stop-color="#050505"/><stop offset="1"/></radialGradient><linearGradient id="linear-gradient-2" x1="1597.16" y1="521" x2="1597.16" y2="-0.86" gradientTransform="translate(-888.5)" gradientUnits="userSpaceOnUse"><stop offset="0" stop-color="#3d45b8"/><stop offset="1" stop-color="#081c4a"/></linearGradient><linearGradient id="linear-gradient-3" x1="1177.16" y1="521" x2="1177.16" y2="-0.86" xlink:href="#linear-gradient-2"/><linearGradient id="linear-gradient-4" x1="909.16" y1="521" x2="909.16" y2="-0.86" xlink:href="#linear-gradient-2"/><linearGradient id="linear-gradient-5" x1="1269.42" y1="521" x2="1269.42" y2="-0.86" xlink:href="#linear-gradient-2"/><linearGradient id="linear-gradient-6" x1="1261.16" y1="521" x2="1261.16" y2="-0.86" xlink:href="#linear-gradient-2"/><linearGradient id="linear-gradient-7" x1="2191.94" y1="521" x2="2191.94" y2="-0.86" xlink:href="#linear-gradient-2"/><linearGradient id="linear-gradient-8" x1="2213.29" y1="521" x2="2213.29" y2="-0.86" xlink:href="#linear-gradient-2"/><linearGradient id="linear-gradient-9" x1="2179.48" y1="521" x2="2179.48" y2="-0.86" xlink:href="#linear-gradient-2"/><linearGradient id="linear-gradient-10" x1="2283.16" y1="521" x2="2283.16" y2="-0.86" xlink:href="#linear-gradient-2"/><linearGradient id="linear-gradient-11" x1="2003.81" y1="521" x2="2003.81" y2="-0.85" xlink:href="#linear-gradient-2"/><linearGradient id="linear-gradient-12" x1="2009.16" y1="521" x2="2009.16" y2="-0.86" xlink:href="#linear-gradient-2"/><linearGradient id="linear-gradient-13" x1="1931.16" y1="521" x2="1931.16" y2="-0.86" xlink:href="#linear-gradient-2"/><linearGradient id="linear-gradient-14" x1="1073.16" y1="521" x2="1073.16" y2="-0.86" xlink:href="#linear-gradient-2"/><linearGradient id="linear-gradient-15" x1="1056.44" y1="521" x2="1056.44" y2="-0.86" xlink:href="#linear-gradient-2"/><linearGradient id="linear-gradient-16" x1="1597.16" y1="547" x2="1597.16" y2="1.75" gradientTransform="translate(-888.5)" gradientUnits="userSpaceOnUse"><stop offset="0" stop-color="#2c3285"/><stop offset="1" stop-color="#062266"/></linearGradient><linearGradient id="linear-gradient-17" x1="1216.56" y1="547" x2="1216.56" y2="1.75" xlink:href="#linear-gradient-16"/><linearGradient id="linear-gradient-18" x1="1266.5" y1="547" x2="1266.5" y2="1.75" xlink:href="#linear-gradient-16"/><linearGradient id="linear-gradient-19" x1="2046.01" y1="547" x2="2046.01" y2="1.75" xlink:href="#linear-gradient-16"/><linearGradient id="linear-gradient-20" x1="2078.3" y1="547" x2="2078.3" y2="1.75" xlink:href="#linear-gradient-16"/><linearGradient id="linear-gradient-21" x1="2079.74" y1="547" x2="2079.74" y2="1.76" xlink:href="#linear-gradient-16"/><linearGradient id="linear-gradient-22" x1="1999.23" y1="547" x2="1999.23" y2="1.75" xlink:href="#linear-gradient-16"/><linearGradient id="linear-gradient-23" x1="2000.58" y1="547" x2="2000.58" y2="1.75" xlink:href="#linear-gradient-16"/><linearGradient id="linear-gradient-24" x1="971.35" y1="703" x2="971.35" y2="-3.27" gradientTransform="translate(-888.5)" gradientUnits="userSpaceOnUse"><stop offset="0" stop-color="#1b2064"/><stop offset="1" stop-color="#0d2254"/></linearGradient><linearGradient id="linear-gradient-25" x1="919.3" y1="703" x2="919.3" y2="-3.27" xlink:href="#linear-gradient-24"/><linearGradient id="linear-gradient-26" x1="931.46" y1="703" x2="931.46" y2="-3.27" xlink:href="#linear-gradient-24"/><linearGradient id="linear-gradient-27" x1="1012.36" y1="703" x2="1012.36" y2="-3.27" xlink:href="#linear-gradient-24"/><linearGradient id="linear-gradient-28" x1="2215.98" y1="703" x2="2215.98" y2="-3.27" xlink:href="#linear-gradient-24"/><linearGradient id="linear-gradient-29" x1="2190.27" y1="703" x2="2190.27" y2="-3.27" xlink:href="#linear-gradient-24"/><linearGradient id="linear-gradient-30" x1="2261.41" y1="703" x2="2261.41" y2="-3.27" xlink:href="#linear-gradient-24"/><linearGradient id="linear-gradient-31" x1="2258.39" y1="703" x2="2258.39" y2="-3.27" xlink:href="#linear-gradient-24"/><linearGradient id="linear-gradient-32" x1="1597.16" y1="703" x2="1597.16" y2="-3.27" xlink:href="#linear-gradient-24"/><linearGradient id="linear-gradient-33" x1="1137.91" y1="715" x2="1137.91" y2="5.04" gradientTransform="translate(-888.5)" gradientUnits="userSpaceOnUse"><stop offset="0" stop-color="#10164a"/><stop offset="1" stop-color="#09183b"/></linearGradient><linearGradient id="linear-gradient-34" x1="957.08" y1="715" x2="957.08" y2="5.04" xlink:href="#linear-gradient-33"/><linearGradient id="linear-gradient-35" x1="1042.02" y1="715" x2="1042.02" y2="5.04" xlink:href="#linear-gradient-33"/><linearGradient id="linear-gradient-36" x1="1036.81" y1="715" x2="1036.81" y2="5.05" xlink:href="#linear-gradient-33"/><linearGradient id="linear-gradient-37" x1="1206.93" y1="715" x2="1206.93" y2="5.04" xlink:href="#linear-gradient-33"/><linearGradient id="linear-gradient-38" x1="1209.52" y1="715" x2="1209.52" y2="5.04" xlink:href="#linear-gradient-33"/><linearGradient id="linear-gradient-39" x1="1197.48" y1="715" x2="1197.48" y2="5.04" xlink:href="#linear-gradient-33"/><linearGradient id="linear-gradient-40" x1="1204.6" y1="715" x2="1204.6" y2="5.04" xlink:href="#linear-gradient-33"/><linearGradient id="linear-gradient-41" x1="1028.33" y1="715" x2="1028.33" y2="5.04" xlink:href="#linear-gradient-33"/><linearGradient id="linear-gradient-42" x1="2118.57" y1="715" x2="2118.57" y2="5.04" xlink:href="#linear-gradient-33"/><linearGradient id="linear-gradient-43" x1="2044.19" y1="715" x2="2044.19" y2="5.04" xlink:href="#linear-gradient-33"/><linearGradient id="linear-gradient-44" x1="2037.82" y1="715" x2="2037.82" y2="5.04" xlink:href="#linear-gradient-33"/><linearGradient id="linear-gradient-45" x1="1968.61" y1="715" x2="1968.61" y2="5.04" xlink:href="#linear-gradient-33"/><linearGradient id="linear-gradient-46" x1="2188.93" y1="715" x2="2188.93" y2="5.04" xlink:href="#linear-gradient-33"/><linearGradient id="linear-gradient-47" x1="2183.64" y1="715" x2="2183.64" y2="5.04" xlink:href="#linear-gradient-33"/><linearGradient id="linear-gradient-48" x1="1982.08" y1="715" x2="1982.08" y2="5.04" xlink:href="#linear-gradient-33"/><linearGradient id="linear-gradient-49" x1="1973.98" y1="715" x2="1973.98" y2="5.04" xlink:href="#linear-gradient-33"/><linearGradient id="linear-gradient-50" x1="1597.16" y1="715" x2="1597.16" y2="5.04" xlink:href="#linear-gradient-33"/></defs><g class="cls-1"><g id="Warstwa_2" data-name="Warstwa 2"><g id="Ńëîé_1" data-name="Ńëîé 1"><rect class="cls-2" width="1417.32" height="708.66"/><polygon class="cls-3" points="0 312.75 0 0 1041.05 77.06 1333.58 137.09 415.33 213.44 0 312.75"/><polygon class="cls-4" points="1417.32 529.18 1417.32 163 751.76 249.48 32.63 418.54 637.53 383.8 1417.32 529.18"/><polygon class="cls-5" points="0 9.53 529.34 14.2 793.63 46.7 1169.54 30.79 767.14 83.86 475.23 46.7 0 66.83 0 9.53"/><polygon class="cls-6" points="0 293.6 159.21 316 305.9 293.6 434.05 307.79 305.9 313.34 146.26 341.31 0 325.18 0 293.6"/><polygon class="cls-5" points="1417.32 309.49 1168.63 339.41 1001.99 336.01 1193.98 373.7 1417.32 369.96 1417.32 309.49"/><polygon class="cls-5" points="0 372.49 145.52 385.69 332.24 341.6 516.02 344.13 335.64 371.42 143.81 428.73 0 429.79 0 372.49"/><polygon class="cls-7" points="0 314.54 610.87 304.57 636.56 287.78 1073.84 269.14 618.62 260.37 584.29 274 0 246.32 0 314.54"/><polygon class="cls-8" points="1417.32 169.07 1122.59 205.75 762.63 187.81 196.87 201.48 792.33 215.15 1168.7 227.47 1417.32 239.38 1417.32 169.07"/><polygon class="cls-5" points="1417.32 246.55 1287.58 248.18 796.14 195.31 1292.02 292.53 1417.32 293.31 1417.32 246.55"/><polygon class="cls-9" points="1417.32 46.7 1034.03 98.67 628.56 120.96 479.74 83.86 128.66 145.36 724.21 148.56 1040.77 137.14 1417.32 97.09 1417.32 46.7"/><polygon class="cls-10" points="1417.32 372.52 1417.32 411.56 556.65 378.71 1417.32 372.52"/><polygon class="cls-11" points="0 158.39 0 209.61 363.2 244.77 0 158.39"/><circle class="cls-12" cx="543.66" cy="157.38" r="156.05" transform="translate(384.49 700.52) rotate(-89.81)"/><circle class="cls-13" cx="543.66" cy="157.38" r="43.24"/><polygon class="cls-14" points="542.32 190.33 538.45 196.13 515.07 185.63 506.32 172.25 504.45 155.13 510.57 169.13 518.49 161.33 525.57 164.88 523.95 178.88 534.53 181.69 542.32 190.33"/><polygon class="cls-15" points="560 185.69 538.74 178.96 537.34 169.6 531.98 161.15 524.24 153.76 524.03 144.78 536.4 139.67 556.35 164.86 560 185.69"/><polygon class="cls-16" points="521.59 129.98 540.25 119.42 558.82 126.5 554.08 140.3 542.98 131.47 521.59 129.98"/><polygon class="cls-15" points="568.2 132.75 558.32 145.5 560.82 163.25 570.57 170.75 579.82 150.5 575.57 135.75 568.2 132.75"/><path class="cls-17" d="M1378.38,356.35a37.25,37.25,0,0,0-32,41.83c.13,1,.3,1.91.5,2.84a45.2,45.2,0,0,0-9.29,5,22.51,22.51,0,0,0-4.42-5.33,15,15,0,1,0-24.28-3.69,22.64,22.64,0,0,0-12.24,13.79,69.66,69.66,0,0,0-88-3.78,15,15,0,0,0-28.26-9.38,36.5,36.5,0,0,0-5-1.84,37.23,37.23,0,0,0-39.66,58.8,68.69,68.69,0,0,0-7.74,8.75,36.85,36.85,0,0,0-13.63-1.43A45.25,45.25,0,0,0,1076,441.73a17,17,0,0,0-33.08-7.73,22.59,22.59,0,0,0-18,2.38,37.24,37.24,0,1,0-62.3,40.8,87.63,87.63,0,0,0-21.3,16.95A69.76,69.76,0,0,0,859.59,478a22.6,22.6,0,0,0-35.67-13.8,15,15,0,0,0-28.18,9.24v0c-.52.06-1,.12-1.56.2a45.23,45.23,0,0,0-14.93,5.06,37.25,37.25,0,0,0-55.53-24.11,45.77,45.77,0,0,0-.49-5.31,45.22,45.22,0,0,0-59.84-35.76,15,15,0,0,0-10.61-4.39,15.28,15.28,0,0,0-4.08.56A22.59,22.59,0,1,0,607.4,427a69.43,69.43,0,0,0-15.09,6,37.24,37.24,0,0,0-72.72,5.22c-2.6-.23-5.23-.36-7.89-.36A87.4,87.4,0,0,0,474.79,446a15,15,0,0,0-24.47-5.69A22.59,22.59,0,0,0,415.94,447v-.14a15,15,0,1,0-30.06,0,14.59,14.59,0,0,0,.21,2.49,45.47,45.47,0,0,0-5.82,2.49,45.23,45.23,0,0,0-70.78,13.07A23.78,23.78,0,0,0,282,469.13a24.29,24.29,0,0,0-2.67,3.11,15,15,0,0,0-22.14,18.37,44.14,44.14,0,0,0-9.46,5.29,30.79,30.79,0,0,0-32.62-5.63,15,15,0,0,0-14.39-10.68h-.33c0-.1,0-.2,0-.31a23.75,23.75,0,0,0-27.87-23.43,15,15,0,0,0-28.67-2.41,45.2,45.2,0,0,0-52.73,14.07A15,15,0,0,0,82,462a12.23,12.23,0,0,0,.42-3.16A11.94,11.94,0,0,0,62,450.38a23.27,23.27,0,0,0-35.8,25.45,87.3,87.3,0,0,0-16.4,4.51A37.35,37.35,0,0,0,0,464.66v244H1417.32V378.14A37.25,37.25,0,0,0,1378.38,356.35Z"/><polygon class="cls-18" points="299.8 0 299.8 455.13 309.34 708.66 273.55 708.66 277.52 406.89 267.98 0 299.8 0"/><polygon class="cls-19" points="25.61 0 25.61 455.13 29.84 708.66 13.95 708.66 15.72 406.89 11.48 0 25.61 0"/><polygon class="cls-20" points="369 121.1 373.27 126.7 392.85 87.79 389.76 85.49 369 121.1"/><polygon class="cls-21" points="376 0 381.44 583.75 386.45 708.66 358.88 708.66 364.73 401.95 365.76 0 376 0"/><polygon class="cls-22" points="1294.54 0 1294.54 455.13 1286.9 708.66 1315.54 708.66 1312.36 406.89 1319.99 0 1294.54 0"/><polygon class="cls-23" points="1303.17 332.8 1301.5 301.3 1342.69 174.04 1348.09 108 1347 174.33 1303.17 332.8"/><polygon class="cls-24" points="1300.15 157.02 1295.96 162.67 1281.82 112.41 1284.88 110.07 1300.15 157.02"/><polygon class="cls-25" points="1382.17 708.66 1380.16 457.6 1396.65 0 1409.17 0 1405.7 289.78 1402.6 447.46 1408.81 708.66 1382.17 708.66"/><polygon class="cls-26" points="1120.59 251.07 1109.45 227.48 1104.88 195.23 1107.48 195.44 1112.28 227.18 1125.75 249.38 1120.59 251.07"/><polygon class="cls-27" points="1112.47 708.66 1111.16 457.6 1121.96 0 1130.17 0 1127.9 289.78 1125.87 447.46 1129.93 708.66 1112.47 708.66"/><polygon class="cls-28" points="1037.92 708.66 1037.16 457.6 1043.41 0 1048.17 0 1046.86 289.78 1045.68 447.46 1048.03 708.66 1037.92 708.66"/><polygon class="cls-29" points="188 0 193.44 583.75 198.45 708.66 170.88 708.66 176.72 401.95 171.29 0 188 0"/><polygon class="cls-30" points="178.63 463.64 157.47 424.81 153.04 364.25 155.55 363.52 160.01 423.51 182.84 460.21 178.63 463.64"/><path class="cls-31" d="M4.46,431.78a21.5,21.5,0,0,1,12.45,4,11.07,11.07,0,0,1,18.86,7.86,10.83,10.83,0,0,1-.39,2.92,13.92,13.92,0,0,1,8.51,5.1,42,42,0,0,1,48.87-13,13.93,13.93,0,0,1,26.56,2.24,21.43,21.43,0,0,1,3.78-.33,22,22,0,0,1,22.05,22c0,.1,0,.19,0,.29h.31a13.93,13.93,0,0,1,13.33,9.9A28.52,28.52,0,0,1,186.65,476c1.09-.05,2.18-.08,3.29-.08a64.18,64.18,0,0,1,36,11,20.93,20.93,0,0,1,41.34,4.62c0,.72,0,1.43-.1,2.14.64,0,1.3-.06,2-.06a34.51,34.51,0,0,1,32.54,23,30,30,0,0,1,34.95,12.22,41.77,41.77,0,0,1,12.61-7,14.69,14.69,0,0,1-.19-2.31,13.93,13.93,0,0,1,27.86,0s0,.09,0,.13a20.95,20.95,0,0,1,31.86-6.22,13.94,13.94,0,0,1,22.68,5.27,81,81,0,0,1,34.2-7.53c2.46,0,4.9.12,7.31.34a34.5,34.5,0,0,1,67.38-4.84,64,64,0,0,1,14-5.55,20.93,20.93,0,1,1,38.27-16,13.94,13.94,0,0,1,17.14,17.33,64.57,64.57,0,0,1,65.5,5.34A34.5,34.5,0,0,1,743.54,512a41.89,41.89,0,0,1,14.4-2.53c.49,0,1,0,1.46,0v0A13.93,13.93,0,0,1,786.51,505a20.94,20.94,0,0,1,30.73,17.67A64.56,64.56,0,0,1,889.83,549a80.91,80.91,0,0,1,21.89-12.53,34.51,34.51,0,0,1,52.07-42,20.93,20.93,0,0,1,36.11,10.22,41.93,41.93,0,0,1,37.39,34.84c1.55.35,3.09.76,4.59,1.22a34.51,34.51,0,0,1,56.17-16.43,20.93,20.93,0,0,1,32.43,24.62,64.67,64.67,0,0,1,36.41,29.36,64.53,64.53,0,0,1,89.72-25.5,33.9,33.9,0,0,1,2.47-6.83,13.93,13.93,0,1,1,18.26-17,34.74,34.74,0,0,1,6.9-1.94,20.94,20.94,0,0,1,8.38-26.57,12.73,12.73,0,0,1-1.09-5.17,12.89,12.89,0,0,1,21.93-9.18,20.4,20.4,0,0,1,22.81.59,34.5,34.5,0,0,1,63.86,11.64,65,65,0,0,1,7.81-.47,65.85,65.85,0,0,1,9.38.68V672.66H0V432.24A21.84,21.84,0,0,1,4.46,431.78Z"/><polygon class="cls-32" points="311.37 708.66 306 457.6 311.96 0 345.35 0 342.96 303 347.73 453.89 350.12 708.66 311.37 708.66"/><polygon class="cls-33" points="339.83 501.74 338.16 386.49 399.37 179.76 408.97 0 417.84 1.76 417.29 208.84 339.83 501.74"/><polygon class="cls-34" points="1177.59 708.66 1182.37 457.6 1177.06 0 1137.89 0 1140.99 330.21 1134.79 466.26 1132.66 708.66 1177.59 708.66"/><polygon class="cls-35" points="1161.75 312.31 1161.23 302.65 1197.6 250.25 1215.79 209.56 1218.38 214.39 1200.2 253 1161.75 312.31"/><polygon class="cls-36" points="1195.74 256.37 1193.15 260.05 1186.74 229.48 1188.47 228.1 1195.74 256.37"/><polygon class="cls-37" points="1118.02 411.62 1102.57 440.7 1097.58 437.57 1112.88 409.79 1120.47 384.37 1123.88 383.39 1118.02 411.62"/><polygon class="cls-38" points="1093.01 427.98 1081.37 389.58 1075.05 391.59 1088.72 432.45 1141.89 476.73 1149.12 474.31 1093.01 427.98"/><polygon class="cls-39" points="93.88 0 111.81 583.75 128.35 708.66 37.36 708.66 56.66 401.95 38.73 0 93.88 0"/><polygon class="cls-40" points="35.78 295.67 26.76 316.3 21.9 311.84 31.58 295.68 36.6 262.96 39.72 261.3 35.78 295.67"/><polygon class="cls-41" points="78.59 366.23 36.4 334.96 0 289.79 4.14 287.73 40.44 331.8 85.92 358.52 78.59 366.23"/><polygon class="cls-42" points="85.69 334.3 84.02 272.8 145.23 162.48 154.83 66.56 163.7 67.5 163.15 178 85.69 334.3"/><polygon class="cls-43" points="1310.94 0 1312.32 409.37 1288.88 708.66 1356.44 708.66 1363.33 432.87 1366.09 0 1310.94 0"/><polygon class="cls-44" points="1293.63 226.68 1323.52 268.42 1332.29 263.45 1277.47 189.52 1271.26 188.32 1293.63 226.68"/><polygon class="cls-45" points="1343.75 418.67 1381.67 387.67 1395.51 332.29 1402.07 337.61 1390.94 395.39 1349.92 440.8 1343.75 418.67"/><polygon class="cls-46" points="1334.47 367 1335.59 290 1385.25 217.42 1399.75 170 1405.32 169 1399 218.75 1334.47 367"/><path class="cls-47" d="M1404.88,512.12a23.52,23.52,0,0,0-22.48,16.61,119.63,119.63,0,0,0-49.93-10.85,121.31,121.31,0,0,0-18.7,1.45,45.53,45.53,0,0,0-82.62,3,46.43,46.43,0,0,0-10.76-3.27c0-.39,0-.79,0-1.19a23.51,23.51,0,0,0-46.05-6.68,45.51,45.51,0,0,0-70.43,14.85,46.51,46.51,0,0,0-63.86,12.41,46.53,46.53,0,0,0-70,22.69c-1.93.62-3.83,1.29-5.72,2a81.76,81.76,0,0,0-124.56-20.56,121.38,121.38,0,0,0-17.91-18.83,23.51,23.51,0,0,0-14-42.39c-.4,0-.8,0-1.19,0a45.52,45.52,0,0,0-88.32,15.48c0,.44,0,.88,0,1.32a118.77,118.77,0,0,0-19.5,6.11,31.49,31.49,0,0,0-60.1,12.43,66,66,0,0,0-6.92-.37,63.78,63.78,0,0,0-63,54A40.48,40.48,0,0,0,497.81,597c0,.16,0,.33,0,.49-1.06,0-2.12-.07-3.19-.07a81.8,81.8,0,0,0-23.77,3.52,46.52,46.52,0,0,0-86.95-15l-.53-.13a46.52,46.52,0,0,0-62.19-43.62A23.51,23.51,0,0,0,278,548.27a46.08,46.08,0,0,0-9.17-2.37c0-.34,0-.68,0-1a46.5,46.5,0,0,0-74.08-37.45,23.49,23.49,0,0,0-43.25,15.39A81.35,81.35,0,0,0,110.74,539,120.21,120.21,0,0,0,0,533.19V708.66H1417.32v-193A23.44,23.44,0,0,0,1404.88,512.12Z"/><polygon class="cls-48" points="304.91 708.66 284.91 309.19 282.15 0 204.94 0 209.08 312.9 210.46 561.49 193.91 708.66 304.91 708.66"/><polygon class="cls-49" points="100.16 166.06 57.64 126.13 43.29 65.94 37.01 71.52 51.04 128.79 94.31 172.48 100.16 166.06"/><polygon class="cls-50" points="128.23 233.11 122.36 221.2 163.93 132.91 177.38 70.44 184.69 74.98 170.19 134.84 128.23 233.11"/><polygon class="cls-51" points="163.56 141.79 160.56 148.01 133.07 113.18 135.61 110.39 163.56 141.79"/><polygon class="cls-52" points="311.45 68.25 322.88 90.25 329.12 82 318.31 66.43 310.97 34.06 307.74 32.59 311.45 68.25"/><polygon class="cls-53" points="313.74 373.28 332.63 402.36 342.2 398.33 304.01 347.66 299.84 346.68 313.74 373.28"/><polygon class="cls-54" points="276.42 153.5 318.7 112.5 349.4 58.75 345.12 56.92 312.04 102.99 268.56 132.26 276.42 153.5"/><polygon class="cls-55" points="366.05 331.68 364.4 396.75 301.42 442.5 275 476.73 266.15 474.31 280.24 426.25 348.61 388.49 355.25 337.82 366.05 331.68"/><polygon class="cls-56" points="221.87 530.57 217.74 419.26 136.39 227.56 89.52 0 57.81 0 99.17 238.69 221.87 530.57"/><polygon class="cls-57" points="1286.93 708.66 1278.94 507.43 1279.62 309.19 1276.86 0 1199.66 0 1203.79 312.9 1194.95 526.93 1173.21 708.66 1286.93 708.66"/><polygon class="cls-58" points="1149.61 241.16 1162.77 262.36 1168.33 253.73 1156.3 238.9 1146.39 207.09 1143.05 205.82 1149.61 241.16"/><polygon class="cls-59" points="1121.5 328.44 1160.38 284.82 1186.7 229.23 1182.29 227.69 1152.97 275.76 1111.95 307.77 1121.5 328.44"/><polygon class="cls-60" points="1072.81 63.25 1085.07 85.75 1092.54 74.2 1080.12 56.83 1071.34 20.54 1067.68 18.92 1072.81 63.25"/><polygon class="cls-61" points="1295.62 280.01 1300.8 300.99 1305.24 296.8 1299.05 280.23 1301.85 224.31 1299.48 222.5 1295.62 280.01"/><polygon class="cls-62" points="1267.5 327.52 1305.26 298.57 1327.95 242.5 1325.12 241.83 1302.3 295.22 1262.34 319.49 1267.5 327.52"/><polygon class="cls-63" points="1215.69 514.27 1211.56 394 1072.81 254 1001.46 0 971.48 0 1034.94 273.56 1215.69 514.27"/><polygon class="cls-64" points="1045.77 178 1032.67 143 1076.15 88 1117.4 0 1138.3 0 1045.77 178"/><path class="cls-65" d="M1412.54,540.59a33.78,33.78,0,0,0-27.82,14.59,113.39,113.39,0,0,0-168.57,49,48.81,48.81,0,0,0-65.46,11.68,53.29,53.29,0,0,0-66.31,27.68,11.76,11.76,0,0,0-1.2-.06,12,12,0,0,0-10.73,17.37A27,27,0,0,0,1048.94,695a219.8,219.8,0,0,0-39.25-3.52c-5.47,0-10.9.21-16.27.6a33.82,33.82,0,0,0-57.1-32.74,113.49,113.49,0,0,0-143.06-68.86A48.83,48.83,0,0,0,715,567.11a32.69,32.69,0,0,0-62,14.39c0,1.14.06,2.27.17,3.37a217.9,217.9,0,0,0-76.64,19,113.42,113.42,0,0,0-140.55,52.44A113.47,113.47,0,0,0,335.76,659a48.83,48.83,0,0,0-86.51-23.56A218.12,218.12,0,0,0,155.1,570a220,220,0,0,0-22.21-6.66,38.82,38.82,0,0,0-64.12-24,70.85,70.85,0,0,0-42.69-42.23A70.81,70.81,0,0,0,0,493V708.66H1417.32V540.93A34.26,34.26,0,0,0,1412.54,540.59Z"/><path class="cls-13" d="M1288,352.91a1.49,1.49,0,0,1,0-3A1.49,1.49,0,0,1,1288,352.91Z"/><path class="cls-13" d="M1378,177.39a1.49,1.49,0,0,1,0-3A1.49,1.49,0,0,1,1378,177.39Z"/><path class="cls-13" d="M955.93,400.37a1.32,1.32,0,0,1,0-2.64A1.32,1.32,0,0,1,955.93,400.37Z"/><path class="cls-13" d="M986.44,301.91a1,1,0,0,1,0-2A1,1,0,0,1,986.44,301.91Z"/><path class="cls-13" d="M872.33,93.87a1.23,1.23,0,0,1,0-2.45A1.23,1.23,0,0,1,872.33,93.87Z"/><path class="cls-13" d="M1026,44.82a1.51,1.51,0,0,1,0-3A1.51,1.51,0,0,1,1026,44.82Z"/><path class="cls-13" d="M642.91,28.78a1.26,1.26,0,0,1,0-2.51A1.26,1.26,0,0,1,642.91,28.78Z"/><path class="cls-13" d="M909,429.54a1.09,1.09,0,0,1,0-2.17A1.09,1.09,0,0,1,909,429.54Z"/><path class="cls-13" d="M654,377a1.5,1.5,0,0,1,0-3A1.5,1.5,0,0,1,654,377Z"/><path class="cls-13" d="M435.89,79.84a1.31,1.31,0,0,1,0-2.62A1.31,1.31,0,0,1,435.89,79.84Z"/><path class="cls-13" d="M655.53,89.81a1.31,1.31,0,0,1,0-2.62A1.31,1.31,0,0,1,655.53,89.81Z"/><path class="cls-13" d="M419.39,347.21a1.65,1.65,0,0,1,0-3.3A1.65,1.65,0,0,1,419.39,347.21Z"/><path class="cls-13" d="M489,365a.92.92,0,0,1,0-1.83A.92.92,0,0,1,489,365Z"/><path class="cls-13" d="M494.73,32.18a1,1,0,0,1,0-1.92A1,1,0,0,1,494.73,32.18Z"/><path class="cls-13" d="M643.53,165.68a.81.81,0,0,1,0-1.62A.81.81,0,0,1,643.53,165.68Z"/><path class="cls-13" d="M159.86,243.4a.81.81,0,0,1,0-1.62A.81.81,0,0,1,159.86,243.4Z"/><path class="cls-13" d="M824.34,389.58a.77.77,0,0,1,0-1.53A.77.77,0,0,1,824.34,389.58Z"/><path class="cls-13" d="M779.42,214.7a1.42,1.42,0,0,1,0-2.84A1.42,1.42,0,0,1,779.42,214.7Z"/><path class="cls-13" d="M702.78,167.8a1.42,1.42,0,0,1,0-2.83A1.42,1.42,0,0,1,702.78,167.8Z"/><path class="cls-13" d="M1001.44,234a1.17,1.17,0,0,1,0-2.33A1.17,1.17,0,0,1,1001.44,234Z"/><path class="cls-13" d="M1069,363.41a1.17,1.17,0,0,1,0-2.34A1.17,1.17,0,0,1,1069,363.41Z"/><path class="cls-13" d="M947.44,198.36a1.58,1.58,0,0,1,0-3.16A1.58,1.58,0,0,1,947.44,198.36Z"/><path class="cls-13" d="M135.86,379.88a1.58,1.58,0,0,1,0-3.16A1.58,1.58,0,0,1,135.86,379.88Z"/><path class="cls-13" d="M137.36,54.35a1.58,1.58,0,0,1,0-3.16A1.58,1.58,0,0,1,137.36,54.35Z"/><path class="cls-13" d="M36.85,168.36a1.58,1.58,0,0,1,0-3.16A1.58,1.58,0,0,1,36.85,168.36Z"/><path class="cls-13" d="M1285,63.35a1.58,1.58,0,0,1,0-3.16A1.58,1.58,0,0,1,1285,63.35Z"/><path class="cls-13" d="M1186.32,90a1.41,1.41,0,0,1,0-2.82A1.41,1.41,0,0,1,1186.32,90Z"/><path class="cls-13" d="M1081,231a1.28,1.28,0,0,1,0-2.55A1.28,1.28,0,0,1,1081,231Z"/></g></g></g></svg>