<svg xmlns="http://www.w3.org/2000/svg" xmlns:xlink="http://www.w3.org/1999/xlink" viewBox="0 0 2091.35 450.87"><defs><style>.cls-1,.cls-30,.cls-35{fill:none;}.cls-2{isolation:isolate;}.cls-3{fill:#d1f6ff;}.cls-4{fill:#2d5068;}.cls-5{fill:#4cc3ed;}.cls-6{fill:#e8f5f9;}.cls-28,.cls-7{fill:#fff;}.cls-8{fill:#aad7e2;}.cls-10,.cls-9{fill:#9abdff;}.cls-9{opacity:0.51;}.cls-10,.cls-14,.cls-28,.cls-9{mix-blend-mode:soft-light;}.cls-10{opacity:0.77;}.cls-11{fill:#c8e6ed;}.cls-12{fill:#a1ccd3;}.cls-13{fill:#27545b;}.cls-13,.cls-26{opacity:0.15;}.cls-14,.cls-28{opacity:0.72;}.cls-15{fill:#3ac5e0;}.cls-16,.cls-21{fill:#3bb5ff;}.cls-16,.cls-20{opacity:0.85;}.cls-16,.cls-20,.cls-22,.cls-23,.cls-24{mix-blend-mode:hard-light;}.cls-17{clip-path:url(#clip-path);}.cls-18{fill:#2fb3c9;}.cls-19{opacity:0.12;}.cls-22,.cls-23,.cls-24{fill:#e0c83f;}.cls-22{opacity:0.24;}.cls-23{opacity:0.26;}.cls-24{opacity:0.45;}.cls-25{fill:#f9e167;}.cls-26{mix-blend-mode:overlay;}.cls-27{fill:#c8eef9;}.cls-29{fill:#c1f1fe;}.cls-30{stroke:#e3e4e5;stroke-width:1.3px;}.cls-30,.cls-35{stroke-linecap:round;stroke-miterlimit:10;}.cls-31{fill:#e4a87c;}.cls-32{fill:#77bc4a;}.cls-33{fill:#3c3c3b;}.cls-34{fill:#eff0f0;}.cls-35{stroke:#e6e7e8;stroke-width:1.32px;}.cls-36{fill:#d85454;}.cls-37{fill:#335977;}.cls-38{opacity:0.1;}.cls-39{opacity:0.05;}.cls-40{fill:#ef6262;}.cls-41{fill:#e15959;}.cls-42{fill:#343433;}.cls-43{fill:#4c4c4c;}.cls-44{fill:#d39167;}.cls-45{fill:#b4b7b9;}.cls-46{fill:#d2d6d8;}.cls-47{fill:#6d96cb;}.cls-48{fill:#e3e4e5;}</style><clipPath id="clip-path" transform="translate(719.09)"><rect class="cls-1" y="299.88" width="650" height="149.52"/></clipPath></defs><g class="cls-2"><g id="Warstwa_2" data-name="Warstwa 2"><g id="background"><rect class="cls-3" x="719.09" width="650" height="450"/><path class="cls-4" d="M323.41,449.4l22.28-11.51A620.57,620.57,0,0,0,269.9,0H650V450Z" transform="translate(719.09)"/><path class="cls-5" d="M264.9,0h20a620.57,620.57,0,0,1,75.79,437.89h-20A620.57,620.57,0,0,0,264.9,0Z" transform="translate(719.09)"/><path class="cls-6" d="M650,312.73c-61.79,1.39-267.86,6.11-270.81,7.12-3.48,1.19,0-40.81,0-40.81l23.69-6.67a41.43,41.43,0,0,1-.29-4.89c0-20.39,14.47-36.92,32.32-36.92,9.3,0,17.67,4.5,23.57,11.68,8.18-13.81,24.37-23.22,43-23.22a51.54,51.54,0,0,1,33.46,12c3.51-8.28,12.36-14.16,22.73-14.16a25.89,25.89,0,0,1,14.89,4.62,33.52,33.52,0,0,1-5.23-18c0-19.59,17-35.47,38-35.47a39,39,0,0,1,29.81,13.48A32.35,32.35,0,0,1,650,175.45Z" transform="translate(719.09)"/><path class="cls-7" d="M0,207.8a27.54,27.54,0,0,1,8.9-.31l.34,0a31.07,31.07,0,0,1,62.08-2.62,16.53,16.53,0,0,1,19.37,4.37,49.32,49.32,0,0,1,87.44,31.61,24.94,24.94,0,0,1,25.06,9c10.39-8.65,26.43-13.15,43.67-10.94a64.81,64.81,0,0,1,23.45,7.59,19.59,19.59,0,0,1,37.25,8.33,39.1,39.1,0,0,1,49.85,17.69,28.28,28.28,0,0,1,28.93,2.66c6.62-3.77,17-5.46,28.28-4,13.93,1.78,25.28,7.81,29.47,14.85,6-8.5,15.22-13.47,24.86-12.24,9.39,1.2,16.93,8,20.7,17.33a51.15,51.15,0,0,1,21.42-1.71c24,3.06,41.37,21.47,38.86,41.12-2.11,16.46-17.53,28.57-36.59,30.25-5.35,12.23-10.52,25.62-10.52,25.62L0,310.27Z" transform="translate(719.09)"/><polygon class="cls-8" points="1337.56 70.06 1336.43 72.61 1333.63 72.8 1336.14 73.97 1336.38 76.72 1337.55 74.22 1340.3 73.98 1337.8 72.81 1337.56 70.06"/><polygon class="cls-8" points="1155.94 19.78 1153.57 18.11 1154.86 20.76 1153.12 23.13 1155.75 21.91 1158.13 23.58 1156.91 20.94 1158.58 18.57 1155.94 19.78"/><polygon class="cls-9" points="1294.78 63.72 1293.26 61.18 1293.36 64.17 1290.76 65.66 1293.72 65.62 1295.24 68.16 1295.2 65.2 1297.74 63.67 1294.78 63.72"/><polygon class="cls-8" points="1097.78 24.79 1096.48 27.57 1093.4 27.72 1096.13 29.06 1096.33 32.1 1097.68 29.37 1100.71 29.17 1097.99 27.82 1097.78 24.79"/><polygon class="cls-7" points="1065.61 79.9 1065.3 82.8 1062.59 83.87 1065.44 84.24 1066.56 86.89 1066.92 84.03 1069.58 82.92 1066.72 82.55 1065.61 79.9"/><polygon class="cls-9" points="1115.4 82.04 1113.24 78.43 1113.39 82.69 1109.68 84.81 1113.9 84.75 1116.06 88.36 1116 84.15 1119.62 81.98 1115.4 82.04"/><polygon class="cls-7" points="1081.62 124.22 1079.56 120.8 1079.7 124.84 1076.19 126.84 1080.19 126.79 1082.24 130.21 1082.18 126.22 1085.61 124.17 1081.62 124.22"/><polygon class="cls-8" points="1156.57 135.37 1154.49 131.9 1154.64 135.99 1151.08 138.02 1155.13 137.97 1157.2 141.43 1157.15 137.39 1160.61 135.31 1156.57 135.37"/><polygon class="cls-9" points="1185.77 201.46 1185.7 203.63 1183.73 204.58 1185.88 204.7 1186.86 206.62 1186.98 204.47 1188.89 203.49 1186.75 203.37 1185.77 201.46"/><polygon class="cls-7" points="1186.93 156.85 1185.16 153.9 1185.28 157.38 1182.26 159.11 1185.7 159.06 1187.47 162.01 1187.42 158.57 1190.37 156.8 1186.93 156.85"/><polygon class="cls-8" points="1333.09 116.53 1330.93 112.99 1331.11 117.18 1327.48 119.29 1331.62 119.2 1333.78 122.74 1333.69 118.6 1337.23 116.44 1333.09 116.53"/><polygon class="cls-7" points="1294.68 131.72 1293.62 134.56 1290.6 134.94 1293.39 136.05 1293.82 139.01 1294.93 136.23 1297.9 135.8 1295.12 134.69 1294.68 131.72"/><polygon class="cls-10" points="1351.24 133.56 1349.09 132.29 1350.37 134.47 1349.04 136.62 1351.22 135.4 1353.37 136.67 1352.15 134.49 1353.42 132.34 1351.24 133.56"/><polygon class="cls-8" points="1239.21 184.11 1238.31 187.52 1234.87 188.31 1238.22 189.27 1239.07 192.65 1240.03 189.3 1243.41 188.45 1240.06 187.49 1239.21 184.11"/><polygon class="cls-9" points="1281.52 164.85 1279.18 162.57 1280.13 165.74 1277.77 168.05 1280.92 167.18 1283.25 169.46 1282.38 166.31 1284.66 163.98 1281.52 164.85"/><polygon class="cls-9" points="1138.34 188.09 1139.91 183.81 1136.43 186.84 1132.13 185.16 1135.04 188.66 1133.48 192.94 1136.98 190.03 1141.26 191.59 1138.34 188.09"/><polygon class="cls-10" points="1111.06 146.02 1109.05 142.68 1109.19 146.62 1105.77 148.57 1109.66 148.52 1111.66 151.86 1111.61 147.97 1114.95 145.97 1111.06 146.02"/><polygon class="cls-7" points="1295.56 31.81 1294.08 29.35 1294.18 32.25 1291.66 33.69 1294.53 33.65 1296.01 36.12 1295.97 33.25 1298.43 31.77 1295.56 31.81"/><polygon class="cls-7" points="1133.93 50.35 1132.51 47.98 1132.61 50.77 1130.17 52.16 1132.94 52.12 1134.36 54.49 1134.32 51.73 1136.69 50.31 1133.93 50.35"/><polygon class="cls-8" points="1332.93 14.85 1330.44 11.62 1331.06 15.7 1327.74 18.15 1331.78 17.62 1334.27 20.85 1333.74 16.8 1336.97 14.32 1332.93 14.85"/><polygon class="cls-8" points="1060.98 15.98 1060.22 21.09 1055.34 22.8 1060.37 23.66 1062.16 28.44 1063.02 23.41 1067.8 21.62 1062.77 20.77 1060.98 15.98"/><circle class="cls-9" cx="507.16" cy="93.15" r="60.86" transform="translate(801.77 385.9) rotate(-45)"/><circle class="cls-9" cx="507.16" cy="93.15" r="53.15" transform="translate(801.77 385.9) rotate(-45)"/><circle class="cls-9" cx="507.16" cy="93.15" r="43.51" transform="translate(801.77 385.9) rotate(-45)"/><circle class="cls-11" cx="507.16" cy="93.15" r="35.08" transform="translate(955.35 531.9) rotate(-68.71)"/><circle class="cls-12" cx="1207.14" cy="75.91" r="2.87"/><path class="cls-12" d="M526.89,72c-.74,1.35-2.74,1.68-4.46.74s-2.52-2.8-1.78-4.15,2.73-1.69,4.46-.75S527.63,70.6,526.89,72Z" transform="translate(719.09)"/><path class="cls-12" d="M537.78,97.32a4.6,4.6,0,1,1-4.58-5A4.8,4.8,0,0,1,537.78,97.32Z" transform="translate(719.09)"/><path class="cls-12" d="M503.21,108.62a6.78,6.78,0,1,1-6.77-6.31A6.55,6.55,0,0,1,503.21,108.62Z" transform="translate(719.09)"/><ellipse class="cls-12" cx="1215.99" cy="88.56" rx="2.39" ry="2.23"/><ellipse class="cls-12" cx="1236.44" cy="97.25" rx="1.59" ry="1.62"/><path class="cls-12" d="M484.05,90.18a1.59,1.59,0,1,1-1.59-1.62A1.61,1.61,0,0,1,484.05,90.18Z" transform="translate(719.09)"/><ellipse class="cls-12" cx="1229.67" cy="73.04" rx="1.59" ry="1.62"/><path class="cls-12" d="M522.75,115c0,1-1.21,1.8-2.7,1.8s-2.7-.81-2.7-1.8,1.21-1.8,2.7-1.8S522.75,114,522.75,115Z" transform="translate(719.09)"/><path class="cls-13" d="M501.58,120.1A35.08,35.08,0,0,0,533,69.42a35.08,35.08,0,1,1-57.25,39.33A35,35,0,0,0,501.58,120.1Z" transform="translate(719.09)"/><g class="cls-14"><rect class="cls-7" x="719.09" y="366.03" width="650" height="72.36"/></g><g class="cls-14"><rect class="cls-7" x="719.09" y="372.03" width="650" height="72.36"/></g><rect class="cls-15" x="719.09" y="299.88" width="650" height="149.52"/><polygon class="cls-16" points="719.09 308.27 1369.09 299.88 719.09 299.88 719.09 308.27"/><g class="cls-17"><polygon class="cls-18" points="1045.67 299.75 1047.17 449.4 1044.17 449.4 1045.67 299.75"/><polygon class="cls-18" points="1054.42 299.75 1077.03 449.19 1074.06 449.61 1054.42 299.75"/><polygon class="cls-18" points="1063.17 299.75 1106.85 448.99 1103.96 449.81 1063.17 299.75"/><polygon class="cls-18" points="1071.91 299.75 1136.66 448.81 1133.89 449.98 1071.91 299.75"/><polygon class="cls-18" points="1080.66 299.75 1166.45 448.66 1163.84 450.13 1080.66 299.75"/><polygon class="cls-18" points="1089.41 299.75 1196.24 448.53 1193.79 450.26 1089.41 299.75"/><polygon class="cls-18" points="1098.15 299.75 1226.03 448.43 1223.74 450.37 1098.15 299.75"/><polygon class="cls-18" points="1106.9 299.75 1255.82 448.34 1253.68 450.45 1106.9 299.75"/><polygon class="cls-18" points="1115.65 299.75 1285.61 448.27 1283.62 450.52 1115.65 299.75"/><polygon class="cls-18" points="1124.4 299.75 1315.41 448.22 1313.56 450.58 1124.4 299.75"/><polygon class="cls-18" points="1133.14 299.75 1345.22 448.17 1343.48 450.62 1133.14 299.75"/><polygon class="cls-18" points="1141.89 299.75 1375.03 448.14 1373.41 450.66 1141.89 299.75"/><polygon class="cls-18" points="1150.64 299.75 1404.85 448.11 1403.33 450.69 1150.64 299.75"/><polygon class="cls-18" points="1159.38 299.75 1434.67 448.08 1433.24 450.71 1159.38 299.75"/><polygon class="cls-18" points="1168.13 299.75 1464.5 448.06 1463.15 450.74 1168.13 299.75"/><polygon class="cls-18" points="1176.88 299.75 1494.33 448.04 1493.05 450.75 1176.88 299.75"/><polygon class="cls-18" points="1185.63 299.75 1524.17 448.03 1522.95 450.77 1185.63 299.75"/><polygon class="cls-18" points="1194.37 299.75 1554 448.01 1552.85 450.78 1194.37 299.75"/><polygon class="cls-18" points="1203.12 299.75 1583.84 448 1582.74 450.79 1203.12 299.75"/><polygon class="cls-18" points="1211.87 299.75 1613.69 447.99 1612.64 450.8 1211.87 299.75"/><polygon class="cls-18" points="1220.61 299.75 1643.53 447.98 1642.53 450.81 1220.61 299.75"/><polygon class="cls-18" points="1229.36 299.75 1673.38 447.98 1672.42 450.82 1229.36 299.75"/><polygon class="cls-18" points="1238.11 299.75 1703.23 447.97 1702.31 450.82 1238.11 299.75"/><polygon class="cls-18" points="1246.86 299.75 1733.08 447.96 1732.19 450.83 1246.86 299.75"/><polygon class="cls-18" points="1255.6 299.75 1762.93 447.96 1762.08 450.84 1255.6 299.75"/><polygon class="cls-18" points="1264.35 299.75 1792.78 447.95 1791.96 450.84 1264.35 299.75"/><polygon class="cls-18" points="1273.1 299.75 1822.63 447.95 1821.84 450.85 1273.1 299.75"/><polygon class="cls-18" points="1281.84 299.75 1852.49 447.95 1851.72 450.85 1281.84 299.75"/><polygon class="cls-18" points="1290.59 299.75 1882.34 447.94 1881.61 450.85 1290.59 299.75"/><polygon class="cls-18" points="1299.34 299.75 1912.2 447.94 1911.48 450.86 1299.34 299.75"/><polygon class="cls-18" points="1308.09 299.75 1942.05 447.94 1941.36 450.86 1308.09 299.75"/><polygon class="cls-18" points="1316.83 299.75 1971.91 447.94 1971.24 450.86 1316.83 299.75"/><polygon class="cls-18" points="1325.58 299.75 2001.77 447.93 2001.12 450.86 1325.58 299.75"/><polygon class="cls-18" points="1334.33 299.75 2031.63 447.93 2031 450.86 1334.33 299.75"/><polygon class="cls-18" points="1343.07 299.75 2061.49 447.93 2060.88 450.87 1343.07 299.75"/><polygon class="cls-18" points="1351.82 299.75 2091.35 447.93 2090.75 450.87 1351.82 299.75"/><polygon class="cls-18" points="1045.67 299.75 1047.17 449.4 1044.17 449.4 1045.67 299.75"/><polygon class="cls-18" points="1036.93 299.75 1017.29 449.61 1014.32 449.19 1036.93 299.75"/><polygon class="cls-18" points="1028.18 299.75 987.38 449.81 984.49 448.99 1028.18 299.75"/><polygon class="cls-18" points="1019.43 299.75 957.45 449.98 954.69 448.81 1019.43 299.75"/><polygon class="cls-18" points="1010.68 299.75 927.51 450.13 924.89 448.66 1010.68 299.75"/><polygon class="cls-18" points="1001.94 299.75 897.56 450.26 895.11 448.53 1001.94 299.75"/><polygon class="cls-18" points="993.19 299.75 867.61 450.37 865.32 448.43 993.19 299.75"/><polygon class="cls-18" points="984.44 299.75 837.66 450.45 835.53 448.34 984.44 299.75"/><polygon class="cls-18" points="975.7 299.75 807.73 450.52 805.74 448.27 975.7 299.75"/><polygon class="cls-18" points="966.95 299.75 777.79 450.58 775.93 448.22 966.95 299.75"/><polygon class="cls-18" points="958.2 299.75 747.86 450.62 746.13 448.17 958.2 299.75"/><polygon class="cls-18" points="949.46 299.75 717.94 450.66 716.31 448.14 949.46 299.75"/><polygon class="cls-18" points="940.71 299.75 688.02 450.69 686.5 448.11 940.71 299.75"/><polygon class="cls-18" points="931.96 299.75 658.11 450.71 656.67 448.08 931.96 299.75"/><polygon class="cls-18" points="923.21 299.75 628.2 450.74 626.85 448.06 923.21 299.75"/><polygon class="cls-18" points="914.47 299.75 598.3 450.75 597.01 448.04 914.47 299.75"/><polygon class="cls-18" points="905.72 299.75 568.39 450.77 567.18 448.03 905.72 299.75"/><polygon class="cls-18" points="896.97 299.75 538.5 450.78 537.34 448.01 896.97 299.75"/><polygon class="cls-18" points="888.23 299.75 508.6 450.79 507.5 448 888.23 299.75"/><polygon class="cls-18" points="879.48 299.75 478.71 450.8 477.66 447.99 879.48 299.75"/><polygon class="cls-18" points="870.73 299.75 448.82 450.81 447.81 447.98 870.73 299.75"/><polygon class="cls-18" points="861.99 299.75 418.93 450.82 417.97 447.98 861.99 299.75"/><polygon class="cls-18" points="853.24 299.75 389.04 450.82 388.12 447.97 853.24 299.75"/><polygon class="cls-18" points="844.49 299.75 359.15 450.83 358.27 447.96 844.49 299.75"/><polygon class="cls-18" points="835.74 299.75 329.27 450.84 328.42 447.96 835.74 299.75"/><polygon class="cls-18" points="827 299.75 299.38 450.84 298.57 447.95 827 299.75"/><polygon class="cls-18" points="818.25 299.75 269.5 450.85 268.71 447.95 818.25 299.75"/><polygon class="cls-18" points="809.5 299.75 239.62 450.85 238.86 447.95 809.5 299.75"/><polygon class="cls-18" points="800.75 299.75 209.74 450.85 209 447.94 800.75 299.75"/><polygon class="cls-18" points="792.01 299.75 179.86 450.86 179.15 447.94 792.01 299.75"/><polygon class="cls-18" points="783.26 299.75 149.98 450.86 149.29 447.94 783.26 299.75"/><polygon class="cls-18" points="774.51 299.75 120.1 450.86 119.44 447.94 774.51 299.75"/><polygon class="cls-18" points="765.77 299.75 90.23 450.86 89.58 447.93 765.77 299.75"/><polygon class="cls-18" points="757.02 299.75 60.35 450.86 59.72 447.93 757.02 299.75"/><polygon class="cls-18" points="748.27 299.75 30.47 450.87 29.86 447.93 748.27 299.75"/><polygon class="cls-18" points="739.53 299.75 0.59 450.87 0 447.93 739.53 299.75"/></g><path class="cls-16" d="M352.17,299.88h20c1.32,45.68-11.14,116.8-23.84,149.51H285.14C300.67,437.89,353.42,345.55,352.17,299.88Z" transform="translate(719.09)"/><g class="cls-19"><path d="M211.11,365c-54.94,0-54.94,35.59,0,35.59,160.32,0,216.65-8.71,216.65-18.54S371.43,365,211.11,365Z" transform="translate(719.09)"/></g><g class="cls-20"><polygon class="cls-21" points="1104.22 449.4 1369.09 449.4 1369.09 435.91 757.09 438.91 1104.22 449.4"/></g><circle class="cls-22" cx="147.26" cy="96.37" r="64.31" transform="translate(694.07 132.35) rotate(-45)"/><circle class="cls-23" cx="866.34" cy="96.37" r="52.51"/><circle class="cls-24" cx="147.26" cy="96.37" r="41.94" transform="translate(694.07 132.35) rotate(-45)"/><circle class="cls-25" cx="147.26" cy="96.37" r="30.2" transform="matrix(0.66, -0.75, 0.75, 0.66, 696.5, 142.46)"/><path class="cls-26" d="M142.59,117.09a30.19,30.19,0,0,0,29-38.58,30.19,30.19,0,1,1-53.35,26.25A30.16,30.16,0,0,0,142.59,117.09Z" transform="translate(719.09)"/><path class="cls-7" d="M156.8,151.21a10.07,10.07,0,0,0-7.26,3.1,13.75,13.75,0,0,0-12.1-7.23,13.45,13.45,0,0,0-1.92.15,23.89,23.89,0,0,0-28.81-20.06,21.31,21.31,0,0,0-38.82,3.19,17.51,17.51,0,0,0-24.25,16.17,16.86,16.86,0,0,0,.27,2.95c-.39,0-.78-.06-1.18-.06a14.61,14.61,0,0,0-14.25,11.41H166.84A10.06,10.06,0,0,0,156.8,151.21Z" transform="translate(719.09)"/><path class="cls-7" d="M259.15,80.92H259a13.65,13.65,0,0,0-25.82-8,11.22,11.22,0,0,0-16.52,8.24,7.66,7.66,0,0,0-9.85,3.8H266A7.86,7.86,0,0,0,259.15,80.92Z" transform="translate(719.09)"/><path class="cls-27" d="M156.8,151.21a10.07,10.07,0,0,0-7.26,3.1,13.75,13.75,0,0,0-12.1-7.23,13.45,13.45,0,0,0-1.92.15,23.89,23.89,0,0,0-28.81-20.06,21.31,21.31,0,0,0-38.82,3.19,17.51,17.51,0,0,0-24.25,16.17c0,.51,0,1,.07,1.51a14.54,14.54,0,0,1,14.45-13,14.39,14.39,0,0,1,5.58,1.11l2.94,1.23,1-3a18.31,18.31,0,0,1,33.36-2.74l1.08,2,2.19-.48a20.84,20.84,0,0,1,25.19,17.53l.4,3,3-.41a9.78,9.78,0,0,1,1.51-.12,10.75,10.75,0,0,1,9.47,5.65l1.13,2.1h2.28l1.39-1.44A7,7,0,0,1,160,160.83h6.88A10.06,10.06,0,0,0,156.8,151.21Z" transform="translate(719.09)"/><path class="cls-28" d="M43.64,149.52v-.05c-.3,0-.6-.05-.91-.05a14.61,14.61,0,0,0-14.25,11.41h1.45a11.68,11.68,0,0,1,9.8-5.41c.32,0,.63,0,.94.05l3.84.3L43.86,152A14.75,14.75,0,0,1,43.64,149.52Z" transform="translate(719.09)"/><path class="cls-6" d="M585.47,106.54a13.19,13.19,0,0,0-22-14.63c-.4-.27-.81-.52-1.24-.76a16.06,16.06,0,0,0-23.65,15.59h-.07a9,9,0,0,0-7.88,4.61h62.9A9.23,9.23,0,0,0,585.47,106.54Z" transform="translate(719.09)"/><path class="cls-6" d="M508.4,143.74l-.35,0a28.6,28.6,0,0,0-54.11-16.71,23.51,23.51,0,0,0-34.62,17.27,16.08,16.08,0,0,0-20.64,8H522.84A16.46,16.46,0,0,0,508.4,143.74Z" transform="translate(719.09)"/><path class="cls-29" d="M508.33,143.74c-.06.72-.14,1.43-.25,2.14l-.47,3,3-.07h.3a14,14,0,0,1,9.25,3.5h2.67a16.46,16.46,0,0,0-14.44-8.54Z" transform="translate(719.09)"/><path class="cls-27" d="M415.72,148.15a13.49,13.49,0,0,1,5.16,1l3,1.23.45-3.21a21,21,0,0,1,30.91-15.41l2.35,1.29,1.15-2.42a26.06,26.06,0,0,1,49.61,10c0-.47,0-.94,0-1.42a28.6,28.6,0,0,0-54.46-12.22,23.51,23.51,0,0,0-34.62,17.27,16.08,16.08,0,0,0-20.64,8H406A13.62,13.62,0,0,1,415.72,148.15Z" transform="translate(719.09)"/></g><g id="content"><line class="cls-30" x1="973.07" y1="254.7" x2="973.07" y2="272.97"/><path class="cls-30" d="M254,254.7s5.07,15.29,3.82,24.07" transform="translate(719.09)"/><path class="cls-31" d="M238.24,233.11,251,221.91l6-20.94,23.15-6.53L297.12,220l-6.92,8.2-6.45,11.05a3,3,0,0,1-3.52,1.66l-1.51-.41-7.11,5.9a6.81,6.81,0,0,1-9.85-1l0-.07-.93-1.32-10.57,8.47Z" transform="translate(719.09)"/><polygon class="cls-32" points="1074.41 357.43 1086.25 369.5 1068.92 374.81 1058.62 362.64 1074.41 357.43"/><path class="cls-33" d="M359.52,365.24c1.5-.22,8.08-7.67,8.08-7.67h0a6.48,6.48,0,0,1,3.73,5.87v3.45l18.85,6.94a4.47,4.47,0,0,1,2.85,3.46h0a4.46,4.46,0,0,1-3.28,5h0a55.38,55.38,0,0,1-15.59,1.74l-30.42-.92a5.75,5.75,0,0,1-5.51-6.65l.92-5.84a3.49,3.49,0,0,1,4.3-2.85c2.72.67,6.07,1.49,6.83,1.62C351.59,369.66,359.52,365.24,359.52,365.24Z" transform="translate(719.09)"/><path class="cls-34" d="M389.75,382.34a4.46,4.46,0,0,0,3.28-5,4.77,4.77,0,0,0-.39-1.23,26.1,26.1,0,0,1-18.6,4.66L338.32,376l-.09.53a5.75,5.75,0,0,0,5.51,6.65l30.42.92A55.38,55.38,0,0,0,389.75,382.34Z" transform="translate(719.09)"/><line class="cls-35" x1="1091.17" y1="366.64" x2="1087" y2="370.84"/><line class="cls-35" x1="1095.07" y1="367.91" x2="1091.28" y2="371.72"/><line class="cls-35" x1="1098.72" y1="369.52" x2="1095.52" y2="372.74"/><line class="cls-35" x1="1102.18" y1="370.61" x2="1099.63" y2="373.17"/><path class="cls-36" d="M397.75,360.34c11.19-3.54,17.58-15,17.58-15l1.28,24.73s1.15,11.18-8.1,7.07-37.11-2.68-37.11-2.68-2.75-11,0-12.75C376.73,358.31,390.36,362.68,397.75,360.34Z" transform="translate(719.09)"/><path class="cls-33" d="M408.61,359.05c0-1.52-6.37-9.15-6.37-9.15h0a6.51,6.51,0,0,1,6.38-2.8l3.4.52,9.72-17.57a4.44,4.44,0,0,1,3.84-2.31h0a4.46,4.46,0,0,1,4.5,4h0a55.7,55.7,0,0,1-.63,15.68l-5.51,29.92a5.76,5.76,0,0,1-7.4,4.45L410.9,380a3.51,3.51,0,0,1-2.17-4.69c1.08-2.58,2.4-5.77,2.63-6.5C411.78,367.56,408.61,359.05,408.61,359.05Z" transform="translate(719.09)"/><path class="cls-34" d="M430.08,331.75a4.44,4.44,0,0,0-5.77-3.8A26,26,0,0,1,426.1,347L416,381.63l.51.17a5.76,5.76,0,0,0,7.4-4.45l5.51-29.92A55.7,55.7,0,0,0,430.08,331.75Z" transform="translate(719.09)"/><line class="cls-35" x1="1130.98" y1="346.84" x2="1134.5" y2="351.6"/><line class="cls-35" x1="1132.82" y1="343.18" x2="1136.01" y2="347.5"/><line class="cls-35" x1="1134.96" y1="339.81" x2="1137.67" y2="343.47"/><line class="cls-35" x1="1136.57" y1="336.56" x2="1138.71" y2="339.46"/><path class="cls-37" d="M237.42,336.81c38.25-34.43,64.07-58.78,78.64-41.06,19.21,21.05,14.93,21.66,40.15,62.89l-11.66,13.11-42-44.7-40.8,38.72-54.67-1.32-4.54-25.55S219.6,352.86,237.42,336.81Z" transform="translate(719.09)"/><path class="cls-38" d="M316.06,295.75C287.24,278.25,240.75,364,240.75,364l-33.65.45,54.67,1.32,40.8-38.72,42,44.7,11.66-13.11C331,317.41,335.27,316.8,316.06,295.75Z" transform="translate(719.09)"/><path class="cls-39" d="M300.39,317.26c19,20.84,49.34,49.38,49.34,49.38L343,370.22l-40.45-43.17-40.8,38.72-54.67-1.32S285.05,359.62,300.39,317.26Z" transform="translate(719.09)"/><path class="cls-37" d="M196.49,349.83v13.71c0,10.49,6.31,18.93,18.28,20.51s64.46-5.27,103.85-2.61,75.8-3.13,78.3-6.23,5-12.14.26-15.88S318.93,349,318.93,349c-17,0-56.47-.4-73.31-3l-8.2-9.23Z" transform="translate(719.09)"/><path class="cls-39" d="M214.77,384.05c-8.83-1.17-14.58-6.08-17-12.79,10.07,10.48,21.21,12.18,35.33,8.12,27.9-8,68.63,3.44,85.5-1.16s80.81-6.11,78.3-3-38.91,8.9-78.3,6.23S226.74,385.64,214.77,384.05Z" transform="translate(719.09)"/><path class="cls-36" d="M238.84,229.86c-18.57,1.17-49.89,20.57-56,60.62-5.14,33.53,5.35,64.91,8.91,74.26a2.68,2.68,0,0,0,3.77,1.41c7.59-4.12,29.8-16.73,43.16-30.55-2.12-18.64-21.87-22.12,7.07-52.69a29.45,29.45,0,0,0,8.2-21.82C252.87,242.5,243,229.48,238.84,229.86Z" transform="translate(719.09)"/><path class="cls-40" d="M237.53,330.32a45.93,45.93,0,0,0-2.84-6.74A38.5,38.5,0,0,0,237.53,330.32Z" transform="translate(719.09)"/><path class="cls-41" d="M186.69,299.28c6.13-40.06,37.44-59.45,56-60.62,2-.19,5.47,2.87,8.55,8.24-3.5-10.66-9.44-17.31-12.42-17-18.57,1.17-49.89,20.57-56,60.62-5.14,33.53,5.35,64.91,8.91,74.26a2.62,2.62,0,0,0,1.32,1.43C188.68,352.46,182.5,326.58,186.69,299.28Z" transform="translate(719.09)"/><path class="cls-42" d="M245.75,224.52s11.36-1.77,12.06-2.61l4.38-5.14a6.34,6.34,0,0,1,8.69-.9h0l-4.26,6.41,2.65,2.27,8.78-10.24a3.69,3.69,0,0,1,5.61,0L292.89,225h2.25a12.06,12.06,0,0,0,10.2-5.61h0a12.05,12.05,0,0,0,1.27-10.24l-3.85-11.71-4.34,3.47-4.11-5.84a23.05,23.05,0,0,0-18.12-9.76l-2.18-.07a23,23,0,0,0-19.11,9.13h0a23.07,23.07,0,0,0-4.31,9.81,149.94,149.94,0,0,1-3.81,16.92Z" transform="translate(719.09)"/><path class="cls-43" d="M268,190.88c19.48-5.49,26.32,4.19,26.32,4.19a23.05,23.05,0,0,0-18.12-9.76l-2.18-.07a23,23,0,0,0-19.11,9.13h0a23.07,23.07,0,0,0-4.31,9.81C249.56,209.88,252.32,195.31,268,190.88Z" transform="translate(719.09)"/><path class="cls-44" d="M257.37,234.52S253.23,240,254,249.44l6.83-5.48Z" transform="translate(719.09)"/><path class="cls-41" d="M253.7,258.33s-8.29-22.83-40.63-14c-2.64.72-6.6,1-8.77-.2-2.35-.15-1.09-11.3,6.49-11.3,3.43,0-1.76-3.59,4.13-6.88,6.82-3.8,18.05-3.58,26,2.93S260.28,255.79,253.7,258.33Z" transform="translate(719.09)"/><path class="cls-36" d="M253.7,258.33s-8.29-22.83-40.63-14c-2.64.72-6.6,1-8.77-.2-2.35-.15-1.09-11.3,6.49-11.3C214.22,232.78,250.4,236.55,253.7,258.33Z" transform="translate(719.09)"/><path class="cls-42" d="M333.37,307l0,0a1.19,1.19,0,0,0-1,.43l-28.86,34.08,11.82,12.25,36.81-45.45Z" transform="translate(719.09)"/><path class="cls-45" d="M255.36,341.93l1.17,8.68h59.65l-11.5-10.7H257.12A1.77,1.77,0,0,0,255.36,341.93Z" transform="translate(719.09)"/><polygon class="cls-7" points="1049.58 311.12 1064.97 312.47 1035.37 347.09 1025.99 339.72 1049.58 311.12"/><path class="cls-46" d="M318,350.61H256.53a5.52,5.52,0,0,0,5.51,5.52h50.39a5.52,5.52,0,0,0,5.52-5.52Z" transform="translate(719.09)"/><path class="cls-46" d="M317,353.73l36.14-43.08a1.46,1.46,0,0,0-.21-2h0a1.45,1.45,0,0,0-2.05.22l-36.15,43.07Z" transform="translate(719.09)"/><polygon class="cls-42" points="1026.73 349.12 1020.14 340.91 995.52 340.91 998.95 349.12 1026.73 349.12"/><polygon class="cls-46" points="993.13 347.09 978.98 347.09 978.49 342.45 991.83 342.45 993.13 347.09"/><polygon class="cls-47" points="1049.58 311.12 1064.97 312.47 1061.4 316.64 1047.3 313.88 1049.58 311.12"/><polygon class="cls-48" points="1046.79 316.26 1057.37 318.95 1055.35 321.39 1045.48 318.06 1046.79 316.26"/><polygon class="cls-48" points="1044.29 319.36 1053.95 322.94 1051.94 325.38 1042.99 321.14 1044.29 319.36"/><polygon class="cls-47" points="1041.37 323.58 1049.15 327.57 1041.96 336.06 1034.78 331.14 1041.37 323.58"/><polygon class="cls-44" points="988.01 327.57 992.97 330.8 1003.72 331.96 1013.6 343.19 1008.52 343.19 996.47 345.95 979.55 340.91 988.01 327.57"/><polygon class="cls-36" points="962.83 301.54 990.53 326.27 983.11 339.92 943.11 313.26 962.83 301.54"/><path class="cls-31" d="M275.13,337.33l12-2.93,9.31,4.65,4.48,7h0a4.53,4.53,0,0,1-4.9-1.22l-2.45-2.71.54,5-2.49,2.55-6.1.9L268,347.06,269.78,337Z" transform="translate(719.09)"/><path class="cls-41" d="M246.84,250.82c8.39.62,10.62,17.57,8.39,25.67-1.6,5.8-7.68,41.2-7.68,41.2l28.33,17.64s-.94,12.83-8.81,14.25-45.35-16.48-45.47-25.26,0-34.33,3.19-48.48C229.9,253,238.46,250.2,246.84,250.82Z" transform="translate(719.09)"/></g></g></g></svg>