<svg xmlns="http://www.w3.org/2000/svg" xmlns:xlink="http://www.w3.org/1999/xlink" viewBox="0 0 2522.83 1417.32"><defs><style>.cls-1{fill:url(#linear-gradient);}.cls-2{fill:#473b1f;opacity:0.02;}.cls-3{opacity:0.01;}.cls-4{opacity:0.3;}.cls-24,.cls-5,.cls-6,.cls-7,.cls-8,.cls-9{fill:#fff;}.cls-5{opacity:0.1;}.cls-6{opacity:0.15;}.cls-7{opacity:0.2;}.cls-8{opacity:0.12;}.cls-9{opacity:0.18;}.cls-10,.cls-11{fill:#e9d4af;}.cls-10{opacity:0.5;}.cls-11,.cls-12{opacity:0.6;}.cls-12{fill:url(#linear-gradient-2);}.cls-13{fill:url(#linear-gradient-3);}.cls-14{fill:url(#linear-gradient-4);}.cls-15{fill:url(#linear-gradient-5);}.cls-16{fill:url(#linear-gradient-6);}.cls-17{opacity:0.7;fill:url(#linear-gradient-7);}.cls-18{fill:url(#linear-gradient-8);}.cls-19{opacity:0.04;}.cls-20{opacity:0.11;}.cls-21{fill:url(#linear-gradient-9);}.cls-22{opacity:0.07;}.cls-23{fill:url(#linear-gradient-10);}</style><linearGradient id="linear-gradient" x1="1261.42" y1="590" x2="1261.42" y2="-11.92" gradientTransform="matrix(-1, 0, 0, 1, 2522.83, 0)" gradientUnits="userSpaceOnUse"><stop offset="0" stop-color="#fff1cf"/><stop offset="1" stop-color="#91b3bf"/></linearGradient><linearGradient id="linear-gradient-2" x1="1261.8" y1="948.01" x2="1261.8" y2="739.37" gradientTransform="translate(-0.38)" gradientUnits="userSpaceOnUse"><stop offset="0" stop-color="#4e6072"/><stop offset="1" stop-color="#f5cf96"/></linearGradient><linearGradient id="linear-gradient-3" x1="1261.42" y1="998.03" x2="1261.42" y2="703.92" gradientTransform="matrix(-1, 0, 0, 1, 2522.83, 0)" gradientUnits="userSpaceOnUse"><stop offset="0" stop-color="#4d6470"/><stop offset="1" stop-color="#8a8374"/></linearGradient><linearGradient id="linear-gradient-4" x1="1127.13" y1="1205.99" x2="1127.13" y2="943.14" gradientTransform="matrix(-1, 0, 0, 1, 2522.83, 0)" gradientUnits="userSpaceOnUse"><stop offset="0" stop-color="#426373"/><stop offset="1" stop-color="#3d5a68"/></linearGradient><linearGradient id="linear-gradient-5" x1="908.39" y1="1065.79" x2="1792.41" y2="812.81" gradientTransform="translate(-0.38)" gradientUnits="userSpaceOnUse"><stop offset="0" stop-color="#3d5a68"/><stop offset="1" stop-color="#7f7c70"/></linearGradient><linearGradient id="linear-gradient-6" x1="1482.73" y1="1294.11" x2="1482.73" y2="1101.38" gradientTransform="translate(-0.38)" gradientUnits="userSpaceOnUse"><stop offset="0" stop-color="#2c5b73"/><stop offset="1" stop-color="#254458"/></linearGradient><linearGradient id="linear-gradient-7" x1="980.46" y1="1009.06" x2="2185.26" y2="1009.06" gradientTransform="translate(-0.38)" gradientUnits="userSpaceOnUse"><stop offset="0" stop-color="#254458"/><stop offset="1" stop-color="#6c6a61"/></linearGradient><linearGradient id="linear-gradient-8" x1="1665.18" y1="1301.78" x2="1665.18" y2="961.85" gradientTransform="matrix(-1, 0, 0, 1, 2522.83, 0)" gradientUnits="userSpaceOnUse"><stop offset="0" stop-color="#375870"/><stop offset="1" stop-color="#1b3649"/></linearGradient><linearGradient id="linear-gradient-9" x1="1862.95" y1="1414.27" x2="1862.95" y2="1000.37" gradientTransform="matrix(-1, 0, 0, 1, 2522.83, 0)" gradientUnits="userSpaceOnUse"><stop offset="0" stop-color="#254458"/><stop offset="1" stop-color="#172d3c"/></linearGradient><linearGradient id="linear-gradient-10" x1="968.36" y1="1417.32" x2="968.36" y2="1243.73" gradientTransform="matrix(-1, 0, 0, 1, 2522.83, 0)" gradientUnits="userSpaceOnUse"><stop offset="0" stop-color="#0e2838"/><stop offset="1" stop-color="#001e30"/></linearGradient></defs><g id="Warstwa_2" data-name="Warstwa 2"><g id="Ńëîé_1" data-name="Ńëîé 1"><rect class="cls-1" width="2522.83" height="1417.32"/><polygon class="cls-2" points="460.94 392.08 1574.36 408.07 2522.83 163.58 2522.83 675.44 149.06 704.26 1694.9 605.57 460.94 392.08"/><polygon class="cls-3" points="0 712.67 0 83.07 1184.7 231.77 2373.78 123.71 1388.03 462.72 0 712.67"/><g class="cls-4"><polygon class="cls-5" points="0 8.14 942.23 8.14 1412.66 38.52 2081.78 25.51 1365.5 68.89 845.92 38.52 0 54.97 0 8.14"/><polygon class="cls-6" points="2522.83 433.92 2080.15 458.37 1783.55 455.59 2125.27 486.4 2522.83 483.34 2522.83 433.92"/><polygon class="cls-7" points="0 533.42 324.89 570.28 654.88 591.22 981.66 601.61 660.94 615.6 300.21 617.88 0 576.07 0 533.42"/><polygon class="cls-8" points="2522.83 138.53 1998.2 168.5 1357.48 153.84 350.44 165.02 1410.34 176.19 2080.29 186.26 2522.83 195.99 2522.83 138.53"/><polygon class="cls-5" points="2522.83 518.23 2522.83 550.14 1217.77 548.58 2522.83 518.23"/><polygon class="cls-9" points="0 348.1 0 389.96 646.51 418.7 0 348.1"/></g><polygon class="cls-10" points="0 536.72 296.61 602.2 705.34 532.5 883.84 615.54 1261.98 733.02 1573.69 644.53 1761.88 698.69 2074.07 566.23 2522.83 670.31 2522.83 1021.66 0 1021.66 0 536.72"/><polygon class="cls-11" points="0 701.12 311.57 610.34 635.77 724.98 1019.5 817.39 1369.67 713.98 1654.4 817.57 2367.98 635.49 2522.83 710.06 2522.83 1072.31 0 1072.31 0 701.12"/><polygon class="cls-12" points="2522.83 1298.66 0 1298.66 0 664.38 248.83 773.08 368.09 722.41 683.15 842.73 937.69 773.08 1033.81 740.22 1432.53 809.03 1833.02 754.26 2108.09 853.67 2362.64 714.83 2522.83 773.08 2522.83 1298.66"/><polygon class="cls-13" points="1933.65 834.09 2286.09 974.71 2522.83 1417.32 0 1417.32 0 761.11 155.71 693.47 289.77 766.66 430.39 786.61 615.51 892.4 776.66 777.13 968.9 951.57 1282.18 828.75 1575.96 967.2 1933.65 834.09"/><polygon class="cls-14" points="2225.49 1417.32 2312.99 1151.9 2077.98 954.1 1907.73 899.15 1767.46 751.13 1562.88 918.94 1540.94 900.26 1310.85 944.79 1225.71 985.53 1120.94 1020.68 916.43 1099.91 706.68 1144.21 478.42 1270.75 478.42 1417.32 684.99 1417.32 2225.49 1417.32"/><polygon class="cls-15" points="1767.46 751.13 1767.46 872.46 1558.78 937.68 1341.94 986.06 943.93 1124.21 916.43 1099.91 1310.85 944.79 1540.94 900.26 1767.46 751.13"/><polygon class="cls-16" points="1395.51 1116.19 1837.88 1035.67 2184.88 763.85 2251.38 778.09 2345.94 859.14 2522.83 736.97 2522.83 1417.32 1134.05 1417.32 441.86 1417.32 773.76 1293.42 980.08 1254.27 1395.51 1116.19"/><polygon class="cls-17" points="980.08 1254.27 1395.51 1116.19 1837.88 1035.67 2184.88 763.85 1861.09 1088.5 1281.47 1185.24 980.08 1254.27"/><polygon class="cls-18" points="792.89 985.23 586.69 949.78 297.83 805.57 0 869.68 0 1417.32 1715.31 1417.32 1267.28 1198.01 1020.92 1187.19 792.89 985.23"/><polygon class="cls-19" points="1020.92 1187.19 792.89 985.23 586.69 949.78 652.89 1029.88 962.21 1187.48 1020.92 1187.19"/><polygon class="cls-20" points="1715.31 1417.32 1278.83 1253.31 1300.71 1246.62 1267.28 1198.01 1715.31 1417.32"/><polygon class="cls-21" points="1015.94 1253.92 493.66 1151.79 123.13 806.83 0 878.38 0 1417.32 1319.76 1417.32 1015.94 1253.92"/><polygon class="cls-22" points="493.66 1151.79 123.13 806.83 238.59 1013.28 260.46 985.33 474.82 1220.49 906.12 1291.6 1319.76 1417.32 1000.06 1250.82 493.66 1151.79"/><polygon class="cls-23" points="2491.67 1036.28 2425.78 1059.83 2373.86 1041.48 2347.67 1053.52 2250.73 1049.77 2174.51 1019.85 2154.54 1037.88 2096.26 1042.42 2000.44 1090.16 1918.3 1077.13 1840.15 1114.41 1821.97 1112.6 1701.92 1208.01 1558.49 1215.22 1524.43 1192.38 1363.8 1255.72 1340.4 1274.37 1268.83 1285.32 1237.68 1300.44 1210.98 1295.99 1144.23 1305.19 1089.05 1301.04 1046.92 1294.51 967.45 1309.21 916.74 1333.01 759.69 1340.88 668.08 1372.54 586.12 1417.32 2522.83 1417.32 2522.83 1047.54 2491.67 1036.28"/><path class="cls-24" d="M1536.18,1417.32s-28.28-2-59.65-2c-97.33,0-99.21-69.33-192.4-69.33s-95.08,69.33-192.41,69.33c-31.37,0-59.65,2-59.65,2Z"/></g></g></svg>